<svg width="31" height="31" viewBox="0 0 31 31" fill="none" xmlns="http://www.w3.org/2000/svg">
<path d="M29.3376 5.26613C28.9743 4.83011 28.5194 4.47944 28.0053 4.23901C27.4912 3.99859 26.9305 3.87431 26.3629 3.875H5.47925L5.425 3.42162C5.31398 2.47925 4.86104 1.61036 4.15205 0.9797C3.44306 0.349038 2.52731 0.000441483 1.57842 0L1.29167 0C0.949095 0 0.620555 0.136086 0.37832 0.37832C0.136086 0.620555 0 0.949095 0 1.29167C0 1.63424 0.136086 1.96278 0.37832 2.20501C0.620555 2.44725 0.949095 2.58333 1.29167 2.58333H1.57842C1.89479 2.58337 2.20014 2.69953 2.43656 2.90976C2.67298 3.11999 2.82403 3.40968 2.86104 3.72387L4.63837 18.8364C4.82289 20.4081 5.57803 21.8573 6.76046 22.909C7.9429 23.9607 9.47031 24.5417 11.0528 24.5417H24.5417C24.8842 24.5417 25.2128 24.4056 25.455 24.1633C25.6972 23.9211 25.8333 23.5926 25.8333 23.25C25.8333 22.9074 25.6972 22.5789 25.455 22.3367C25.2128 22.0944 24.8842 21.9583 24.5417 21.9583H11.0528C10.2533 21.9561 9.47412 21.7066 8.822 21.2441C8.16988 20.7816 7.67678 20.1287 7.41029 19.375H22.807C24.3212 19.3751 25.7873 18.8431 26.9491 17.8721C28.1109 16.901 28.8946 15.5526 29.1632 14.0624L30.1772 8.43846C30.2784 7.88047 30.2557 7.30704 30.1106 6.75882C29.9655 6.2106 29.7016 5.701 29.3376 5.26613ZM27.6417 7.97992L26.6264 13.6038C26.4651 14.499 25.9941 15.3088 25.2958 15.8916C24.5975 16.4744 23.7165 16.793 22.807 16.7917H6.99954L5.78408 6.45833H26.3629C26.5527 6.4572 26.7403 6.49788 26.9126 6.5775C27.0848 6.65711 27.2374 6.77369 27.3595 6.91895C27.4815 7.06421 27.5701 7.23459 27.6189 7.41796C27.6677 7.60133 27.6754 7.7932 27.6417 7.97992Z" fill="#FFFCF9"/>
<path d="M9.04134 30.9987C10.4681 30.9987 11.6247 29.8421 11.6247 28.4154C11.6247 26.9886 10.4681 25.832 9.04134 25.832C7.61461 25.832 6.45801 26.9886 6.45801 28.4154C6.45801 29.8421 7.61461 30.9987 9.04134 30.9987Z" fill="#FFFCF9"/>
<path d="M21.9583 30.9987C23.3851 30.9987 24.5417 29.8421 24.5417 28.4154C24.5417 26.9886 23.3851 25.832 21.9583 25.832C20.5316 25.832 19.375 26.9886 19.375 28.4154C19.375 29.8421 20.5316 30.9987 21.9583 30.9987Z" fill="#FFFCF9"/>
</svg>
