<svg width="21" height="23" viewBox="0 0 21 23" fill="none" xmlns="http://www.w3.org/2000/svg">
<path d="M6.6818 6.6818C7.20679 6.6818 7.63634 6.25225 7.63634 5.72725V4.77271C7.63634 3.18817 8.91543 1.90908 10.5 1.90908C12.0845 1.90908 13.3636 3.18817 13.3636 4.77271V5.72725C13.3636 6.25225 13.7931 6.6818 14.3181 6.6818C14.8431 6.6818 15.2727 6.25225 15.2727 5.72725V4.77271C15.2727 2.13818 13.1345 0 10.5 0C7.86543 0 5.72725 2.13818 5.72725 4.77271V5.72725C5.72725 6.25225 6.1568 6.6818 6.6818 6.6818ZM10.5 14.3181C7.86543 14.3181 5.72725 12.18 5.72725 9.54542C5.72725 9.02043 6.1568 8.59088 6.6818 8.59088C7.20679 8.59088 7.63634 9.02043 7.63634 9.54542C7.63634 11.13 8.91543 12.4091 10.5 12.4091C12.0845 12.4091 13.3636 11.13 13.3636 9.54542C13.3636 9.02043 13.7931 8.59088 14.3181 8.59088C14.8431 8.59088 15.2727 9.02043 15.2727 9.54542C15.2727 12.18 13.1345 14.3181 10.5 14.3181ZM20.9999 17.0863L20.0454 7.63634C20.0454 6.0518 18.7663 4.77271 17.1818 4.77271H3.81817C3.07415 4.76964 2.35836 5.05734 1.82342 5.57445C1.28847 6.09156 0.97669 6.79719 0.954542 7.54088L0 17.1818C0 20.3413 2.56772 22.909 5.72725 22.909H15.2727C18.4513 22.8995 21.0095 20.3127 20.9999 17.134V17.0863Z" fill="url(#paint0_linear_4139_2205)"/>
<defs>
<linearGradient id="paint0_linear_4139_2205" x1="0" y1="11.4545" x2="20.9999" y2="11.4545" gradientUnits="userSpaceOnUse">
<stop stop-color="#FFF33B"/>
<stop offset="0.04" stop-color="#FEE72E"/>
<stop offset="0.117" stop-color="#FED51B"/>
<stop offset="0.196" stop-color="#FDCA10"/>
<stop offset="0.281" stop-color="#FDC70C"/>
<stop offset="0.668" stop-color="#F3903F"/>
<stop offset="0.888" stop-color="#ED683C"/>
<stop offset="1" stop-color="#E93E3A"/>
</linearGradient>
</defs>
</svg>
