<svg width="26" height="26" viewBox="0 0 26 26" fill="none" xmlns="http://www.w3.org/2000/svg">
<g clip-path="url(#clip0_4116_13947)">
<path d="M24.337 10.6882C22.1057 10.691 19.9301 9.99127 18.1187 8.68833V17.7721C18.1187 22.3091 14.4278 25.9989 9.89187 25.9989C8.20414 26.0005 6.55727 25.4798 5.17721 24.5082C4.09322 23.7506 3.20797 22.7428 2.59655 21.5701C1.98513 20.3974 1.66559 19.0946 1.66504 17.7721C1.66504 13.2351 5.35596 9.54417 9.89296 9.54417C10.27 9.54417 10.6383 9.57558 11.0012 9.62433V14.1873C10.6427 14.0737 10.269 14.0153 9.89296 14.014C8.8967 14.0151 7.9416 14.4115 7.23724 15.116C6.53288 15.8206 6.13682 16.7758 6.13596 17.7721C6.13653 18.7685 6.53269 19.7239 7.23737 20.4284C7.94206 21.1329 8.89761 21.5288 9.89404 21.5291C10.8652 21.5275 11.7982 21.1502 12.4973 20.4761C13.1965 19.802 13.6076 18.8834 13.6445 17.9129L13.6478 0H18.1176C18.1208 1.64834 18.7769 3.22828 19.9423 4.39393C21.1078 5.55958 22.6876 6.21598 24.336 6.21942L24.337 10.6882Z" fill="#1A1A1A"/>
</g>
<defs>
<clipPath id="clip0_4116_13947">
<rect width="26" height="26" fill="white"/>
</clipPath>
</defs>
</svg>
