<svg width="26" height="26" viewBox="0 0 26 26" fill="none" xmlns="http://www.w3.org/2000/svg">
<g clip-path="url(#clip0_4116_13950)">
<path d="M13 2.34217C16.471 2.34217 16.8827 2.35517 18.2531 2.418C19.6701 2.483 21.1293 2.80583 22.1618 3.83825C23.2039 4.88042 23.517 6.32558 23.582 7.74692C23.6448 9.11733 23.6578 9.529 23.6578 13C23.6578 16.471 23.6448 16.8827 23.582 18.2531C23.5181 19.6625 23.1877 21.1358 22.1618 22.1618C21.1196 23.2039 19.6755 23.517 18.2531 23.582C16.8827 23.6448 16.471 23.6578 13 23.6578C9.529 23.6578 9.11733 23.6448 7.74692 23.582C6.34833 23.5181 4.8555 23.1801 3.83825 22.1618C2.8015 21.125 2.483 19.6658 2.418 18.2531C2.35517 16.8827 2.34217 16.471 2.34217 13C2.34217 9.529 2.35517 9.11733 2.418 7.74692C2.48192 6.34292 2.81558 4.86092 3.83825 3.83825C4.87825 2.79825 6.32883 2.483 7.74692 2.418C9.11733 2.35517 9.529 2.34217 13 2.34217ZM13 0C9.46942 0 9.02633 0.0151667 7.63967 0.078C5.63008 0.170083 3.63458 0.729083 2.18183 2.18183C0.723667 3.64 0.170083 5.63117 0.078 7.63967C0.0151667 9.02633 0 9.46942 0 13C0 16.5306 0.0151667 16.9737 0.078 18.3603C0.170083 20.3678 0.73125 22.3687 2.18183 23.8182C3.63892 25.2753 5.63333 25.8299 7.63967 25.922C9.02633 25.9848 9.46942 26 13 26C16.5306 26 16.9737 25.9848 18.3603 25.922C20.3688 25.8299 22.3665 25.2698 23.8182 23.8182C25.2774 22.3589 25.8299 20.3688 25.922 18.3603C25.9848 16.9737 26 16.5306 26 13C26 9.46942 25.9848 9.02633 25.922 7.63967C25.8299 5.63008 25.2698 3.6335 23.8182 2.18183C22.3633 0.726917 20.3634 0.169 18.3603 0.078C16.9737 0.0151667 16.5306 0 13 0Z" fill="#1A1A1A"/>
<path d="M12.9997 6.32422C12.1231 6.32422 11.255 6.49689 10.4451 6.83236C9.63521 7.16784 8.89931 7.65955 8.27943 8.27943C7.65955 8.89931 7.16784 9.63521 6.83236 10.4451C6.49689 11.255 6.32422 12.1231 6.32422 12.9997C6.32422 13.8764 6.49689 14.7444 6.83236 15.5543C7.16784 16.3642 7.65955 17.1001 8.27943 17.72C8.89931 18.3399 9.63521 18.8316 10.4451 19.1671C11.255 19.5026 12.1231 19.6752 12.9997 19.6752C14.7702 19.6752 16.4681 18.9719 17.72 17.72C18.9719 16.4681 19.6752 14.7702 19.6752 12.9997C19.6752 11.2293 18.9719 9.53133 17.72 8.27943C16.4681 7.02753 14.7702 6.32422 12.9997 6.32422ZM12.9997 17.3331C11.8504 17.3331 10.7482 16.8765 9.93559 16.0638C9.12293 15.2512 8.66639 14.149 8.66639 12.9997C8.66639 11.8504 9.12293 10.7482 9.93559 9.93559C10.7482 9.12293 11.8504 8.66639 12.9997 8.66639C14.149 8.66639 15.2512 9.12293 16.0638 9.93559C16.8765 10.7482 17.3331 11.8504 17.3331 12.9997C17.3331 14.149 16.8765 15.2512 16.0638 16.0638C15.2512 16.8765 14.149 17.3331 12.9997 17.3331Z" fill="#1A1A1A"/>
<path d="M19.9399 7.62C20.8014 7.62 21.4999 6.92156 21.4999 6.06C21.4999 5.19844 20.8014 4.5 19.9399 4.5C19.0783 4.5 18.3799 5.19844 18.3799 6.06C18.3799 6.92156 19.0783 7.62 19.9399 7.62Z" fill="#1A1A1A"/>
</g>
<defs>
<clipPath id="clip0_4116_13950">
<rect width="26" height="26" fill="white"/>
</clipPath>
</defs>
</svg>
