<svg width="46" height="60" viewBox="0 0 46 60" fill="none" xmlns="http://www.w3.org/2000/svg">
<g filter="url(#filter0_d_4139_1301)">
<path d="M4.81951 33.3509L14.9478 44.5547C15.2236 44.8599 15.5569 45.1079 15.9286 45.2842C16.3002 45.4606 16.703 45.562 17.1139 45.5827C17.5248 45.6033 17.9357 45.5428 18.3231 45.4045C18.7106 45.2663 19.067 45.053 19.372 44.7769L35.1939 30.4667C36.1503 29.5944 36.7432 28.3941 36.8548 27.1045L37.6965 17.109C37.8641 15.161 36.3455 13.4876 34.3774 13.4466L24.3641 13.2986C23.0635 13.2607 21.8079 13.7459 20.8442 14.622L5.04225 28.9275C4.73426 29.2015 4.48386 29.534 4.30566 29.9057C4.12745 30.2774 4.025 30.6808 4.00427 31.0925C3.98354 31.5042 4.04494 31.9159 4.1849 32.3037C4.32487 32.6914 4.54059 33.0474 4.81951 33.3509Z" fill="#404049"/>
<path d="M40.2559 28.4801L28.3805 46.1984C28.1515 46.5401 27.8575 46.8333 27.5151 47.0614C27.1728 47.2895 26.7889 47.4478 26.3854 47.5275C25.9819 47.6072 25.5666 47.6065 25.1633 47.5257C24.76 47.4448 24.3766 47.2853 24.0349 47.0562L11.4833 38.6436C10.7934 38.181 10.3154 37.4634 10.1545 36.6484C9.99361 35.8335 10.163 34.988 10.6255 34.298L22.5009 16.5798C23.221 15.5032 24.3229 14.74 25.584 14.4444L35.3483 12.1723C37.2486 11.722 39.132 12.9842 39.4493 14.9215L41.0471 24.8084C41.2643 26.0885 40.981 27.4031 40.2559 28.4801ZM36.8893 18.0713C37.0434 17.842 37.1507 17.5846 37.2051 17.3138C37.2596 17.043 37.2601 16.7641 37.2066 16.4931C37.1532 16.2221 37.0468 15.9643 36.8936 15.7344C36.7404 15.5046 36.5433 15.3072 36.3137 15.1536C36.0844 14.9994 35.827 14.892 35.5561 14.8375C35.2852 14.7829 35.0063 14.7824 34.7352 14.8358C34.4641 14.8893 34.2062 14.9957 33.9763 15.1489C33.7464 15.3022 33.5489 15.4993 33.3953 15.729C33.2412 15.9583 33.1338 16.2158 33.0793 16.4867C33.0248 16.7577 33.0243 17.0367 33.0778 17.3078C33.1313 17.5789 33.2378 17.8368 33.3911 18.0667C33.5445 18.2966 33.7416 18.494 33.9714 18.6475C34.2007 18.8016 34.4581 18.9089 34.7289 18.9634C34.9997 19.0178 35.2786 19.0183 35.5496 18.9649C35.8206 18.9114 36.0784 18.805 36.3083 18.6518C36.5381 18.4986 36.7355 18.3016 36.8891 18.072L36.8893 18.0713Z" fill="#F7524B"/>
<path d="M11.4891 38.6431L24.0368 47.0603C25.4693 48.0233 27.4232 47.6332 28.3862 46.2006L40.2545 28.4779C40.9827 27.4033 41.2649 26.0879 41.0414 24.8092L40.504 21.5119L40.3146 20.3333C38.6197 36.4188 20.1246 41.7455 12.7841 31.0786L10.6281 34.2933C10.56 34.3928 10.5023 34.5093 10.4479 34.6122C10.0927 35.2939 10.0024 36.0829 10.1946 36.8272C10.3867 37.5715 10.8483 38.2185 11.4891 38.6431Z" fill="black" fill-opacity="0.063"/>
<path d="M24.6009 39.5466C24.6995 39.5711 24.8023 39.574 24.9021 39.555C25.0019 39.536 25.0965 39.4957 25.1792 39.4367C25.262 39.3777 25.331 39.3015 25.3815 39.2134C25.4321 39.1252 25.4629 39.0271 25.4719 38.9259L26.8342 23.9666C26.8427 23.8744 26.8329 23.7814 26.8054 23.693C26.7779 23.6046 26.7332 23.5225 26.6739 23.4513C26.6146 23.3802 26.5418 23.3215 26.4598 23.2786C26.3777 23.2357 26.288 23.2094 26.1958 23.2012C25.8081 23.1653 25.4658 23.4512 25.4304 23.8396L24.0688 38.7991C24.0537 38.9668 24.0992 39.1343 24.1969 39.2715C24.2946 39.4086 24.4381 39.5062 24.6015 39.5468L24.6009 39.5466ZM29.7432 31.2286C29.2346 30.8868 28.8822 30.3573 28.7634 29.7562C28.6446 29.155 28.769 28.5313 29.1094 28.0218L29.1104 28.0206C29.4526 27.5128 29.9822 27.1612 30.5831 27.0427C31.184 26.9243 31.8073 27.0488 32.3167 27.3888C32.8254 27.7306 33.1778 28.2602 33.2965 28.8615C33.4152 29.4628 33.2904 30.0867 32.9497 30.5961C32.6077 31.1044 32.0782 31.4564 31.4771 31.575C30.8761 31.6935 30.2525 31.569 29.7432 31.2286ZM30.2816 28.8058C30.1485 29.0045 30.0998 29.2478 30.1459 29.4824C30.1921 29.717 30.3293 29.9237 30.5277 30.0572C30.7264 30.1897 30.9693 30.2382 31.2036 30.1922C31.4379 30.1461 31.6445 30.0093 31.7783 29.8116C31.8586 29.6911 31.9088 29.5532 31.9247 29.4093C31.9405 29.2654 31.9216 29.1198 31.8695 28.9848C31.8174 28.8497 31.7335 28.7292 31.6251 28.6333C31.5167 28.5374 31.3868 28.469 31.2464 28.4337C30.8889 28.3457 30.4981 28.4827 30.2816 28.8058ZM18.5859 35.3782C18.0772 35.0364 17.7247 34.5068 17.6058 33.9055C17.4869 33.3042 17.6113 32.6803 17.9517 32.1706L17.952 32.1693C18.2943 31.6613 18.824 31.3096 19.425 31.1912C20.0261 31.0728 20.6496 31.1974 21.159 31.5376C21.4116 31.7059 21.6284 31.9227 21.7966 32.1754C21.9648 32.4282 22.0812 32.7118 22.1389 33.0098C22.1985 33.3074 22.1986 33.6138 22.1391 33.9114C22.0796 34.209 21.9617 34.4919 21.7923 34.7436C21.6237 34.9963 21.4067 35.2131 21.1538 35.3815C20.9009 35.5499 20.6172 35.6665 20.3191 35.7247C20.0216 35.7838 19.7154 35.7836 19.418 35.7241C19.1206 35.6645 18.8377 35.5474 18.5859 35.3782ZM19.1227 32.9564C18.9903 33.1553 18.9421 33.3985 18.9885 33.6328C19.035 33.8671 19.1723 34.0735 19.3705 34.2069C19.5691 34.3388 19.808 34.3886 20.0457 34.342C20.1622 34.3195 20.2731 34.2741 20.3718 34.2084C20.4706 34.1427 20.5553 34.0579 20.6209 33.9591C20.7551 33.7597 20.8033 33.519 20.7565 33.2819C20.7237 33.1135 20.6432 32.9581 20.5248 32.834C20.4063 32.7099 20.2548 32.6224 20.0882 32.5818C19.7313 32.4939 19.3394 32.6327 19.1227 32.9564ZM35.3998 5.94C36.4463 5.93609 37.3992 6.54849 38.0969 7.66338C38.7296 8.691 39.0837 10.0265 39.1123 11.4423C39.1247 12.8673 38.808 14.2126 38.1926 15.2367C37.5336 16.3816 36.5917 17.0201 35.5419 17.0377C35.3235 17.0421 35.1113 17.0189 34.9064 16.9685C34.1125 16.773 33.4129 16.1939 32.8593 15.3172C32.2231 14.304 31.873 12.955 31.8437 11.5396C31.812 8.42503 33.3722 5.97772 35.3998 5.94ZM33.2556 11.524C33.2736 12.6902 33.5578 13.7759 34.0459 14.5645C34.2973 14.9599 34.8294 15.6286 35.5269 15.6259C36.2414 15.613 36.7412 14.9375 36.986 14.5335C37.4627 13.7216 37.7187 12.6228 37.7005 11.4573C37.6823 10.2917 37.3951 9.21837 36.8965 8.41336C36.6899 8.07189 36.271 7.53352 35.7099 7.39538C35.614 7.37177 35.5181 7.34816 35.4292 7.35532C34.38 7.37309 33.2333 9.07942 33.2556 11.524Z" fill="#F0F0FC"/>
<path d="M34.7301 12.3065C34.9934 13.1135 35.1337 13.9556 35.1461 14.8044C34.4652 14.796 33.8032 15.127 33.3948 15.7232C33.1667 16.0594 33.0594 16.4392 33.0533 16.8155C32.4333 16.213 31.9493 15.485 31.6339 14.6801C31.434 14.1799 31.3044 13.6543 31.249 13.1184L34.7301 12.3065Z" fill="#F7524B"/>
</g>
<defs>
<filter id="filter0_d_4139_1301" x="0" y="5.93988" width="45.1182" height="53.6494" filterUnits="userSpaceOnUse" color-interpolation-filters="sRGB">
<feFlood flood-opacity="0" result="BackgroundImageFix"/>
<feColorMatrix in="SourceAlpha" type="matrix" values="0 0 0 0 0 0 0 0 0 0 0 0 0 0 0 0 0 0 127 0" result="hardAlpha"/>
<feOffset dy="8"/>
<feGaussianBlur stdDeviation="2"/>
<feComposite in2="hardAlpha" operator="out"/>
<feColorMatrix type="matrix" values="0 0 0 0 0 0 0 0 0 0 0 0 0 0 0 0 0 0 0.25 0"/>
<feBlend mode="normal" in2="BackgroundImageFix" result="effect1_dropShadow_4139_1301"/>
<feBlend mode="normal" in="SourceGraphic" in2="effect1_dropShadow_4139_1301" result="shape"/>
</filter>
</defs>
</svg>
