<svg width="29" height="29" viewBox="0 0 29 29" fill="none" xmlns="http://www.w3.org/2000/svg">
<path d="M25.3754 5.7998L23.0087 7.5748C22.6625 7.83445 22.2415 7.9748 21.8087 7.9748H16.4615C15.7039 7.9748 15.0114 8.40281 14.6726 9.08038L14.4904 9.44485C14.0723 10.281 14.2892 11.2952 15.0127 11.8872L19.2264 15.3347C20.8003 16.6225 21.6148 18.6198 21.3903 20.641L21.1453 22.8455C21.0657 23.5617 20.8897 24.264 20.6221 24.9331L19.5754 27.5498" stroke="#222222" stroke-width="1.5"/>
<path d="M0.724609 12.325L6.66271 11.3353C8.01635 11.1097 9.1899 12.2833 8.96429 13.6369L8.46029 16.6609C8.17161 18.393 9.04638 20.1109 10.617 20.8962L11.6222 21.3988C12.8798 22.0276 13.532 23.4455 13.1909 24.8097L12.3246 28.275" stroke="#222222" stroke-width="1.5"/>
<circle cx="14.5" cy="14.5" r="13.75" stroke="#222222" stroke-width="1.5"/>
</svg>
