<svg width="33" height="36" viewBox="0 0 33 36" fill="none" xmlns="http://www.w3.org/2000/svg">
<path d="M10.5 10.5C11.325 10.5 12 9.825 12 9V7.5C12 5.01 14.01 3 16.5 3C18.99 3 21 5.01 21 7.5V9C21 9.825 21.675 10.5 22.5 10.5C23.325 10.5 24 9.825 24 9V7.5C24 3.36 20.64 0 16.5 0C12.36 0 9 3.36 9 7.5V9C9 9.825 9.675 10.5 10.5 10.5ZM16.5 22.5C12.36 22.5 9 19.14 9 15C9 14.175 9.675 13.5 10.5 13.5C11.325 13.5 12 14.175 12 15C12 17.49 14.01 19.5 16.5 19.5C18.99 19.5 21 17.49 21 15C21 14.175 21.675 13.5 22.5 13.5C23.325 13.5 24 14.175 24 15C24 19.14 20.64 22.5 16.5 22.5ZM33 26.85L31.5 12C31.5 9.51 29.49 7.5 27 7.5H6C4.83082 7.49518 3.70601 7.94727 2.86538 8.75988C2.02475 9.57249 1.5348 10.6813 1.5 11.85L0 27C0 31.965 4.035 36 9 36H24C28.995 35.985 33.015 31.92 33 26.925V26.85Z" fill="url(#paint0_linear_4103_14091)"/>
<defs>
<linearGradient id="paint0_linear_4103_14091" x1="0" y1="18" x2="33" y2="18" gradientUnits="userSpaceOnUse">
<stop stop-color="#FFF33B"/>
<stop offset="0.04" stop-color="#FEE72E"/>
<stop offset="0.117" stop-color="#FED51B"/>
<stop offset="0.196" stop-color="#FDCA10"/>
<stop offset="0.281" stop-color="#FDC70C"/>
<stop offset="0.668" stop-color="#F3903F"/>
<stop offset="0.888" stop-color="#ED683C"/>
<stop offset="1" stop-color="#E93E3A"/>
</linearGradient>
</defs>
</svg>
