<svg width="517" height="512" viewBox="0 0 517 512" fill="none" xmlns="http://www.w3.org/2000/svg">
<path d="M448.639 440.436C435.364 454.119 423.486 462.163 414.392 468.235C325.699 527.456 224.313 510.387 192.967 504.553C142.394 495.14 99.7038 488.5 63.0249 455.362C-20.3205 380.063 -16.2667 222.983 47.4193 125.679C54.9705 114.141 118.56 19.882 220.165 6.59994C222.651 6.27517 224.505 6.09007 226.129 5.91816C241.847 4.25394 339.249 -4.52933 418.671 62.0101C430.039 71.5349 448.335 88.7152 465.301 114.918C527.337 210.727 527.534 359.114 448.639 440.436Z" fill="#F3E0C8"/>
<path d="M225.18 1.82854C213.078 2.8809 203.8 13.0162 203.765 25.1638C203.555 99.451 203.207 355.688 208.049 446.381C208.562 455.989 216.439 463.537 226.061 463.641C273.648 464.153 410.531 465.094 488.24 460.124C504.425 459.088 517.02 445.683 517.001 429.464C516.906 351.497 515.661 132.227 504.98 32.001C503.701 19.9924 494.048 10.619 482.008 9.68083C430.106 5.63687 292.282 -4.00725 225.18 1.82854Z" fill="#1A1A1A"/>
<path d="M222.868 44.632C221.933 108.178 219.273 319.57 223.918 397.591C224.596 408.995 233.455 417.998 244.393 418.379C289.427 419.948 404.911 422.985 470.715 415.745C482.565 414.441 491.621 404.17 491.936 391.734C493.582 326.885 498.029 129.998 493.514 52.8498C492.794 40.5424 483.391 30.7221 471.605 29.928C422.843 26.6423 297.629 19.065 241.671 23.725C231.166 24.5998 223.03 33.6307 222.868 44.632Z" fill="#FF914C"/>
<path d="M331.676 12.8773C331.714 14.6329 333.114 16.0508 334.869 16.1041C343.535 16.3675 367.946 17.1147 378.856 17.5079C381.008 17.5853 382.651 15.6171 382.198 13.5127C382.16 13.4464 381.881 10.7484 379.125 10.5569C371.745 10.0437 349.478 8.66011 334.764 9.50908C331.742 9.68325 331.578 13.1195 331.676 12.8773Z" fill="#1F5AA9"/>
<path opacity="0.24" d="M451.78 398.623H252.174C242.2 398.623 234.115 385.209 234.115 368.661V67.5062C234.115 52.9105 241.247 41.0781 250.044 41.0781H460.852C470.985 41.0781 479.199 54.7068 479.199 71.5186V353.131C479.199 378.255 466.923 398.623 451.78 398.623Z" fill="white"/>
<g opacity="0.67">
<path d="M465.033 94.4082L390.449 93.2695C389.209 93.2506 388.209 92.2199 388.228 90.9793L388.401 79.6413C388.42 78.4007 389.45 77.4011 390.691 77.4199L465.275 78.5586C466.515 78.5775 467.515 79.6082 467.496 80.8488L467.323 92.1868C467.304 93.4274 466.274 94.4272 465.033 94.4082Z" fill="#FFFCF9"/>
<path d="M464.565 126.873L389.981 125.734C388.741 125.715 387.741 124.685 387.76 123.444L387.933 112.106C387.952 110.866 388.983 109.866 390.223 109.885L464.807 111.023C466.048 111.042 467.047 112.073 467.028 113.314L466.855 124.652C466.836 125.892 465.806 126.892 464.565 126.873Z" fill="#FFFCF9"/>
<path d="M464.041 159.338L389.457 158.199C388.216 158.18 387.217 157.15 387.236 155.909L387.409 144.571C387.428 143.33 388.458 142.331 389.699 142.35L464.282 143.488C465.523 143.507 466.523 144.538 466.504 145.779L466.331 157.116C466.312 158.357 465.282 159.357 464.041 159.338Z" fill="#FFFCF9"/>
</g>
<g opacity="0.58">
<path d="M463.142 252.563H280.275C278.873 252.563 277.726 251.416 277.726 250.014V235.508C277.726 234.106 278.873 232.958 280.275 232.958H463.142C464.544 232.958 465.691 234.106 465.691 235.508V250.014C465.692 251.416 464.544 252.563 463.142 252.563Z" fill="#FFFCF9"/>
<path d="M253.615 254.586C259.635 254.586 264.516 249.265 264.516 242.701C264.516 236.137 259.635 230.816 253.615 230.816C247.595 230.816 242.715 236.137 242.715 242.701C242.715 249.265 247.595 254.586 253.615 254.586Z" fill="#FFFCF9"/>
<path d="M463.142 289.35H280.275C278.873 289.35 277.726 288.203 277.726 286.801V272.295C277.726 270.893 278.873 269.746 280.275 269.746H463.142C464.544 269.746 465.691 270.893 465.691 272.295V286.801C465.692 288.203 464.544 289.35 463.142 289.35Z" fill="#FFFCF9"/>
<path d="M253.615 291.374C259.635 291.374 264.516 286.053 264.516 279.489C264.516 272.925 259.635 267.604 253.615 267.604C247.595 267.604 242.715 272.925 242.715 279.489C242.715 286.053 247.595 291.374 253.615 291.374Z" fill="#FFFCF9"/>
<path d="M463.142 326.138H280.275C278.873 326.138 277.726 324.991 277.726 323.589V309.083C277.726 307.681 278.873 306.534 280.275 306.534H463.142C464.544 306.534 465.691 307.681 465.691 309.083V323.589C465.692 324.991 464.544 326.138 463.142 326.138Z" fill="#FFFCF9"/>
<path d="M253.615 328.161C259.635 328.161 264.516 322.84 264.516 316.276C264.516 309.712 259.635 304.391 253.615 304.391C247.595 304.391 242.715 309.712 242.715 316.276C242.715 322.84 247.595 328.161 253.615 328.161Z" fill="#FFFCF9"/>
<path d="M463.142 362.925H280.275C278.873 362.925 277.726 361.778 277.726 360.376V345.87C277.726 344.468 278.873 343.321 280.275 343.321H463.142C464.544 343.321 465.691 344.468 465.691 345.87V360.376C465.692 361.778 464.544 362.925 463.142 362.925Z" fill="#FFFCF9"/>
<path d="M253.615 364.949C259.635 364.949 264.516 359.627 264.516 353.063C264.516 346.499 259.635 341.178 253.615 341.178C247.595 341.178 242.715 346.499 242.715 353.063C242.715 359.627 247.595 364.949 253.615 364.949Z" fill="#FFFCF9"/>
</g>
<path d="M339.83 291.321L329.63 294.834L313.616 248.338C307.327 230.076 313.962 210.527 329.051 202.865L348.907 192.784C357.453 188.445 367.592 188.552 376.724 193.08C385.855 197.608 393.135 206.137 396.697 216.481L409.342 253.193C410.08 255.335 409.16 257.595 407.287 258.24L400.478 260.585L386.498 219.994C384.085 212.987 379.153 207.21 372.968 204.143C366.783 201.076 359.915 201.003 354.127 203.943L334.271 214.024C324.038 219.22 319.55 232.439 323.816 244.824L339.83 291.321Z" fill="#FFFCF9"/>
<path d="M315.15 280.689L409.713 275.45C413.554 275.238 416.785 278.295 416.785 282.141V357.055C416.785 360.756 413.785 363.756 410.084 363.756H317.792C314.177 363.756 311.213 360.888 311.095 357.274L308.823 287.599C308.704 283.959 311.514 280.891 315.15 280.689Z" fill="#FFFCF9"/>
<path d="M378.218 342.296L372.494 325.841C371.806 323.862 372.275 321.65 373.746 320.16C376.679 317.188 378.427 313.043 378.22 308.492C377.855 300.465 371.298 293.957 363.268 293.649C354.383 293.307 347.072 300.409 347.072 309.219C347.072 314.106 349.323 318.466 352.845 321.322C354.671 322.803 355.421 325.238 354.649 327.459L349.488 342.296C348.233 345.904 350.912 349.672 354.733 349.672H372.973C376.793 349.672 379.473 345.904 378.218 342.296Z" fill="#1A1A1A"/>
<path opacity="0.34" d="M269.226 92.0392C95.4334 49.648 -32.5511 167.104 59.8999 329.609H174.073C94.4749 246.28 185.454 158.584 264.516 113.434L269.226 92.0392Z" fill="white"/>
<path d="M203.679 142.641C214.885 131.435 214.885 113.266 203.679 102.059C192.472 90.8532 174.304 90.8532 163.097 102.059C151.891 113.266 151.891 131.435 163.097 142.641C174.304 153.847 192.472 153.847 203.679 142.641Z" fill="#1A1A1A"/>
<g opacity="0.9">
<path d="M183.786 141.161C173.422 141.161 164.99 132.729 164.99 122.365C164.99 112.002 173.422 103.57 183.786 103.57C194.15 103.57 202.581 112.002 202.581 122.365C202.581 132.729 194.15 141.161 183.786 141.161ZM183.786 106.72C175.159 106.72 168.14 113.738 168.14 122.366C168.14 130.993 175.159 138.011 183.786 138.011C192.413 138.011 199.432 130.993 199.432 122.366C199.432 113.738 192.413 106.72 183.786 106.72Z" fill="#F3E0C8"/>
<path fill-rule="evenodd" clip-rule="evenodd" d="M177.896 129.604V116.091C177.896 114.647 179.468 113.752 180.71 114.489L192.096 121.245C193.312 121.967 193.312 123.728 192.096 124.449L180.71 131.206C179.468 131.942 177.896 131.048 177.896 129.604Z" fill="#F3E0C8"/>
</g>
<path d="M85.1732 253.168C99.7529 238.588 99.753 214.95 85.1733 200.37C70.5936 185.791 46.9553 185.791 32.3755 200.371C17.7958 214.95 17.7957 238.589 32.3754 253.168C46.9551 267.748 70.5934 267.748 85.1732 253.168Z" fill="#1A1A1A"/>
<path d="M83.2744 247.416C83.2744 248.158 82.6725 248.76 81.9302 248.76H35.4877C34.7454 248.76 34.1436 248.158 34.1436 247.416V208.436C34.1436 207.694 34.7454 207.092 35.4877 207.092H81.9302C82.6725 207.092 83.2744 207.694 83.2744 208.436V247.416ZM37.253 245.029H80.7867V209.58H37.253V245.029Z" fill="#F3E0C8"/>
<path d="M71.0972 220.694C70.7285 220.216 70.1439 219.934 69.54 219.93C68.9361 219.926 68.3561 220.201 67.9813 220.674L58.0886 233.165C57.7482 233.595 57.2413 233.863 56.6947 233.904C56.1479 233.945 55.608 233.755 55.2075 233.38L47.6645 226.324C46.9192 225.627 45.6608 225.618 44.9044 226.303L35.3867 234.835V246.894H82.03V234.835L71.0972 220.694Z" fill="#F3E0C8"/>
<path d="M51.5567 219.998C53.4158 218.139 53.4158 215.125 51.5567 213.266C49.6976 211.407 46.6834 211.407 44.8242 213.266C42.9651 215.125 42.9651 218.139 44.8243 219.998C46.6834 221.857 49.6976 221.857 51.5567 219.998Z" fill="#F3E0C8"/>
<path d="M138.18 194.061C150.687 181.553 150.687 161.275 138.18 148.767C125.672 136.26 105.394 136.26 92.8861 148.767C80.3786 161.275 80.3786 181.553 92.886 194.061C105.393 206.568 125.672 206.568 138.18 194.061Z" fill="#1A1A1A"/>
<path d="M115.647 196.981C113.524 196.981 111.599 195.896 110.5 194.079C104.301 183.839 96.9121 170.351 96.9121 164.252C96.9121 154.72 105.317 146.965 115.647 146.965C125.978 146.965 134.382 154.72 134.382 164.252C134.382 170.352 126.993 183.839 120.795 194.08C119.695 195.896 117.77 196.981 115.647 196.981ZM115.647 149.363C106.639 149.363 99.3098 156.042 99.3098 164.252C99.3098 168.517 104.136 178.936 112.551 192.838C113.212 193.931 114.37 194.584 115.647 194.584C116.924 194.584 118.082 193.931 118.743 192.838C127.158 178.937 131.984 168.517 131.984 164.252C131.984 156.042 124.655 149.363 115.647 149.363Z" fill="#F3E0C8"/>
<path d="M114.194 176.322C107.789 176.322 102.578 171.111 102.578 164.706C102.578 164.044 103.115 163.507 103.777 163.507C104.439 163.507 104.976 164.044 104.976 164.706C104.976 169.789 109.111 173.924 114.194 173.924C119.277 173.924 123.412 169.789 123.412 164.706C123.412 159.623 119.277 155.488 114.194 155.488C111.255 155.488 108.56 156.841 106.8 159.2C106.404 159.731 105.653 159.841 105.122 159.445C104.591 159.049 104.482 158.298 104.878 157.767C107.062 154.838 110.545 153.09 114.194 153.09C120.599 153.09 125.81 158.301 125.81 164.706C125.81 171.111 120.599 176.322 114.194 176.322Z" fill="#F3E0C8"/>
<path d="M125.181 408.998H117.406V493.074H125.181V408.998Z" fill="#FFFCF9"/>
<path d="M87.2471 494.695H155.34V491.622C155.34 490.524 154.451 489.635 153.353 489.635H89.3884C88.2057 489.635 87.2471 490.593 87.2471 491.776V494.695Z" fill="#FFFCF9"/>
<path d="M74.3701 405.897C74.3701 410.784 78.3685 414.783 83.2554 414.783H156.471C161.358 414.783 165.357 410.784 165.357 405.897V397.863C165.357 392.976 161.358 388.978 156.471 388.978H83.2555C78.3686 388.978 74.3703 392.976 74.3703 397.863L74.3701 405.897Z" fill="#FFFCF9"/>
<path d="M164.596 478.179C164.596 478.179 186.797 494.181 182.942 504.932C182.942 504.932 158.652 494.452 155.717 486.196C152.783 477.941 156.214 474.295 156.214 474.295L164.596 478.179Z" fill="#1A1A1A"/>
<path d="M161.261 464.769L157.631 475.263C157.083 476.847 157.631 478.65 159.048 479.545C159.757 479.993 160.727 480.408 162.052 480.708C163.922 481.132 165.852 480.268 166.751 478.575L171.094 470.398L161.261 464.769Z" fill="url(#paint0_linear_1273_24746)"/>
<path d="M125.934 370.312C125.934 370.312 171.533 378.214 191.093 396.284C210.653 414.353 173.14 471.991 173.14 471.991C173.14 471.991 166.993 471.954 159.545 465.569C159.545 465.569 181.788 422.22 162.619 409.578C141.068 395.366 116.231 392.165 116.231 392.165L125.493 371.705L125.934 370.312Z" fill="#1A1A1A"/>
<path d="M179.085 498.986C174.202 496.726 160.378 487.051 158.048 486.623C155.718 486.197 151.676 488.935 151.676 488.935C151.676 488.935 150.693 490.703 151.744 493.787C154.989 497.713 162.193 505.197 171.878 507.986C179.003 510.037 183.986 508.125 187.089 505.887C185.382 503.287 182.337 500.492 179.085 498.986Z" fill="#1A1A1A"/>
<path d="M171.878 507.986C162.193 505.197 154.989 497.713 151.744 493.787C152.455 495.871 154.093 498.555 157.595 501.702C166.278 509.507 182.863 512.32 186.394 511.778C189.224 511.344 188.957 508.732 187.089 505.887C183.986 508.125 179.002 510.038 171.878 507.986Z" fill="#1A1A1A"/>
<path d="M147.535 482.105C147.59 483.45 150.34 488.064 151.947 490.652C152.71 491.882 154.048 492.634 155.496 492.638C156.414 492.64 157.47 492.56 158.429 492.285C159.868 491.872 160.676 490.339 160.255 488.902L157.115 478.18L147.535 482.105Z" fill="url(#paint1_linear_1273_24746)"/>
<path d="M82.0408 356.624C82.0408 356.624 71.9141 383.702 82.0408 391.937C92.1674 400.171 116.325 409.442 121.722 425.843C127.119 442.245 136.277 474.12 148.533 485.409C148.533 485.409 157.144 484.575 160.366 481.144C160.366 481.144 153.386 433.559 148.782 421.349C144.796 410.775 138.922 395.513 127.665 386.983C124.443 384.541 125.004 380.673 126.498 376.916L129.219 370.075L82.0408 356.624Z" fill="#1A1A1A"/>
<path d="M187.656 335.401C170.677 336.425 175.968 309.298 176.274 308.219L150.503 326.422C150.503 326.422 151.867 340.928 173.293 348.538C178.714 350.463 183.669 350.548 188.049 349.607C186.181 344.159 186.561 339.271 187.656 335.401Z" fill="#1A1A1A"/>
<path d="M220.489 327.237C214.161 322.835 206.993 327.237 206.993 327.237C198.533 332.769 192.274 335.123 187.657 335.401C186.562 339.271 186.182 344.159 188.05 349.607C197.527 347.569 204.308 340.71 207.254 337.191C208.315 335.924 210.193 335.704 211.49 336.727C212.808 337.768 214.087 339.192 213.856 340.692C213.398 343.648 216.829 344.588 217.088 343.516C217.346 342.444 215.914 336.087 215.914 336.087C215.914 336.087 222.776 342.987 225.455 345.639C228.133 348.291 231.502 345.639 231.502 345.639C231.502 345.639 226.816 331.638 220.489 327.237Z" fill="url(#paint2_linear_1273_24746)"/>
<path d="M108.484 266.327C108.484 266.327 133.186 256.436 179.158 294.39C179.158 294.39 182.998 302.338 178.809 309.413C174.62 316.487 134.706 350.959 129.22 370.075C129.22 370.075 105.441 377.802 80.8486 359.48C80.8486 359.48 83.0188 306.276 108.484 266.327Z" fill="#1A1A1A"/>
<path d="M159.79 254.405L145.157 272.242C143.95 273.706 143.684 275.742 144.519 277.445C146.207 280.888 150.212 285.901 159.094 285.208C161.736 285.001 164.076 283.407 165.23 281.021L173.733 263.444L159.79 254.405Z" fill="url(#paint3_linear_1273_24746)"/>
<path d="M89.3589 329.464C86.4911 317.785 115.538 291.748 115.538 291.748L108.484 266.326C108.484 266.326 45.7624 308.081 61.7463 341.658C64.0377 346.472 67.0809 349.844 70.6093 352.098C75.6596 338.504 83.7084 332.269 89.3589 329.464Z" fill="#1A1A1A"/>
<path d="M89.338 327.763C89.0298 327.763 88.7491 327.554 88.6722 327.24C85.7398 315.3 113.862 289.925 115.06 288.85C115.341 288.598 115.775 288.621 116.029 288.903C116.282 289.185 116.258 289.619 115.977 289.872C115.689 290.13 87.2676 315.766 90.0051 326.913C90.0954 327.281 89.8701 327.653 89.502 327.743C89.4479 327.757 89.3925 327.763 89.338 327.763Z" fill="#1A1A1A"/>
<path d="M133.354 328.458C133.354 328.458 98.9156 341.829 90.5093 331.772C89.9393 331.09 89.5676 330.313 89.3589 329.463C83.7084 332.269 75.6597 338.504 70.6094 352.098C88.722 363.672 119.682 345.66 128.053 340.349C129.43 339.476 131.082 339.17 132.679 339.501C135.908 340.17 141.485 341.155 144.494 340.691C148.895 340.013 155.216 355.537 162.348 350.749C162.348 350.749 156.241 323.765 133.354 328.458Z" fill="url(#paint4_linear_1273_24746)"/>
<path d="M183.777 235.846C183.9 236.32 180.927 268.546 180.927 268.546L162.563 266.457L160.843 235.495C160.843 235.495 181.729 227.912 183.777 235.846Z" fill="url(#paint5_linear_1273_24746)"/>
<path d="M165.625 241.912L165.254 258.282C165.249 258.492 165.272 258.696 165.324 258.9C165.644 260.144 167.057 264.347 171.268 262.639C175.09 261.089 178.6 259.731 181.182 260.221C182.341 260.441 183.142 261.502 183.034 262.677C182.763 265.605 182.03 272.191 180.521 277.816C180.215 278.958 179.079 279.664 177.915 279.459C174.408 278.841 167.047 277.332 161.411 274.73C160.647 274.377 160.134 273.645 160.078 272.806C159.803 268.714 158.92 256.28 158.138 252.853C157.405 249.636 153.192 248.124 151.378 247.614C150.784 247.448 150.288 247.048 149.998 246.503C148.972 244.575 147.351 240.032 153.02 237.476C154.206 236.94 154.709 235.543 154.138 234.373C153.001 232.045 152.228 228.386 156.552 225.849C160.947 223.27 164.67 225.356 166.753 227.154C167.596 227.88 168.819 227.871 169.689 227.178C170.184 226.783 170.858 226.597 171.743 227.023C172.936 227.596 174.363 226.959 174.809 225.713C175.667 223.32 177.655 220.639 182.266 220.917C190.446 221.411 192.332 230.209 190.786 235.656C189.24 241.103 180.401 240.063 175.788 237.909C172.281 236.271 168.245 238.834 166.512 240.157C165.963 240.575 165.641 241.222 165.625 241.912Z" fill="#1A1A1A"/>
<path d="M158.884 259.043C158.884 259.043 160.35 249.208 156.71 247.317C153.07 245.425 148.176 247.152 150.017 253.727C152.307 261.905 158.884 259.043 158.884 259.043Z" fill="url(#paint6_linear_1273_24746)"/>
<path d="M183.249 237.558C184.005 237.399 184.726 237.169 185.42 236.91C186.109 236.637 186.766 236.308 187.343 235.878C187.939 235.468 188.404 234.912 188.786 234.302C189.188 233.69 189.391 232.971 189.614 232.227C189.647 232.988 189.606 233.812 189.242 234.539C188.916 235.27 188.394 235.938 187.734 236.406C186.419 237.348 184.786 237.731 183.249 237.558Z" fill="white"/>
<path d="M150.997 354.825C151.052 354.828 151.107 354.829 151.163 354.829L223.42 354.75C225.206 354.749 226.652 353.299 226.651 351.513C226.649 349.726 225.194 348.25 223.413 348.282L151.156 348.361C149.369 348.362 147.923 349.812 147.925 351.598C147.927 353.329 149.288 354.741 150.997 354.825Z" fill="#1A1A1A"/>
<path d="M288.376 289.22H228.201C223.761 289.22 219.721 291.782 217.827 295.797L190.008 354.786H264.79C267.651 354.786 270.222 353.039 271.273 350.378L292.846 295.792C294.092 292.638 291.768 289.22 288.376 289.22Z" fill="#1A1A1A"/>
<path d="M278.621 509.803C279.022 509.803 279.428 509.725 279.82 509.562C281.36 508.921 282.072 507.192 281.409 505.7L217.728 362.38C217.066 360.889 215.281 360.201 213.739 360.842C212.198 361.483 211.487 363.212 212.149 364.704L275.83 508.024C276.325 509.136 277.445 509.803 278.621 509.803Z" fill="#1A1A1A"/>
<path d="M206.881 509.802C208.058 509.802 209.178 509.136 209.672 508.023L273.353 364.703C274.016 363.212 273.304 361.483 271.764 360.841C270.225 360.2 268.438 360.888 267.775 362.38L204.094 505.7C203.431 507.191 204.143 508.92 205.683 509.562C206.074 509.725 206.481 509.802 206.881 509.802Z" fill="#1A1A1A"/>
<path d="M81.4992 509.803C81.8996 509.803 82.3061 509.725 82.6976 509.562C84.238 508.921 84.9498 507.192 84.287 505.7L20.6057 362.38C19.943 360.889 18.1589 360.201 16.6165 360.842C15.0761 361.483 14.3645 363.212 15.0273 364.704L78.7084 508.024C79.2028 509.136 80.3226 509.803 81.4992 509.803Z" fill="#1A1A1A"/>
<path d="M9.76056 509.802C10.9373 509.802 12.057 509.136 12.5512 508.023L76.2323 364.703C76.8951 363.212 76.1833 361.483 74.6431 360.841C73.1037 360.2 71.3169 360.888 70.6538 362.38L6.97254 505.7C6.30979 507.191 7.02155 508.92 8.56192 509.562C8.95323 509.725 9.3602 509.802 9.76056 509.802Z" fill="#1A1A1A"/>
<path d="M2.29146 357.955C2.12898 357.015 2.35009 356.043 2.89446 355.305C3.43864 354.566 4.24917 354.138 5.10437 354.138H294.808C295.932 354.138 296.98 354.78 297.585 355.841C298.191 356.902 298.273 358.235 297.801 359.378L294.662 366.985C293.943 368.727 292.385 369.842 290.671 369.842H7.09223C5.49794 369.842 4.12722 368.577 3.82449 366.824L2.29146 357.955Z" fill="#1A1A1A"/>
<path d="M151.744 284.426C151.744 284.426 147.76 269.495 149.188 266.836C150.615 264.178 151.744 263.738 151.744 263.738C151.744 263.738 140.228 255 132.161 259.387C124.094 263.774 125.505 266.396 127.522 269.421C129.539 272.447 148.939 285.212 151.744 284.426Z" fill="#1A1A1A"/>
<path d="M151.743 284.426C151.743 284.426 163.22 287.733 166.85 284.426C170.48 281.119 166.262 278.001 166.262 278.001C166.262 278.001 156.487 286.044 151.743 284.426Z" fill="#1A1A1A"/>
<path d="M264.15 319.305H246.264C245.065 314.616 240.813 311.149 235.75 311.149C229.756 311.149 224.897 316.008 224.897 322.001C224.897 327.995 229.756 332.854 235.75 332.854C241.052 332.854 245.463 329.05 246.411 324.023H251.523V326.753C251.523 327.777 252.353 328.607 253.377 328.607H253.444C254.468 328.607 255.298 327.777 255.298 326.753V324.023H260.016V328.236C260.016 329.26 260.846 330.09 261.87 330.09H261.937C262.961 330.09 263.791 329.26 263.791 328.236V324.023H264.15C265.441 324.023 266.487 322.977 266.487 321.687V321.642C266.487 320.351 265.441 319.305 264.15 319.305ZM235.75 328.697C232.052 328.697 229.054 325.699 229.054 322.001C229.054 318.303 232.052 315.306 235.75 315.306C239.448 315.306 242.446 318.303 242.446 322.001C242.446 325.699 239.448 328.697 235.75 328.697Z" fill="white"/>
<path d="M305.833 178.538C341.789 178.538 370.937 149.39 370.937 113.434C370.937 77.4779 341.789 48.3298 305.833 48.3298C269.877 48.3298 240.729 77.4779 240.729 113.434C240.729 149.39 269.877 178.538 305.833 178.538Z" fill="white"/>
<mask id="mask0_1273_24746" style="mask-type:luminance" maskUnits="userSpaceOnUse" x="247" y="55" width="117" height="117">
<path d="M305.835 171.414C337.856 171.414 363.815 145.456 363.815 113.434C363.815 81.4123 337.856 55.4536 305.835 55.4536C273.813 55.4536 247.854 81.4123 247.854 113.434C247.854 145.456 273.813 171.414 305.835 171.414Z" fill="white"/>
</mask>
<g mask="url(#mask0_1273_24746)">
<path d="M292.152 75.5188C292.152 75.5188 290.143 83.9746 284.733 79.309C279.322 74.6432 272.632 67.7419 265.067 73.6704C257.502 79.5989 266.476 84.5079 266.476 84.5079C266.476 84.5079 263.028 82.7432 260.432 85.5293C259.686 86.3301 258.494 86.4775 257.606 85.8385C256.768 85.2357 255.61 84.9131 254.213 85.8192C253.114 86.5321 250.054 93.4717 252.851 105.777C254.516 113.105 259.359 134.212 275.936 138.223C286.759 140.841 296.002 134.575 296.814 134.006C305.893 127.647 307.622 117.919 307.905 116.147C307.398 114.195 305.011 104.224 310.797 96.1255C312.112 94.2843 315.945 89.5309 321.858 88.6476C323.13 88.4576 324.455 88.7092 326.3 89.3066C326.3 89.3066 327.855 98.0058 333.605 97.6821C333.605 97.6821 333.038 95.4952 335.274 94.2157C337.416 92.9894 342.534 86.7048 333.847 81.1499C333.157 80.7088 332.797 79.9088 332.869 79.0936C333.105 76.4631 332.512 70.4396 323.628 65.4935C312.338 59.2082 304.515 60.4594 300.333 66.7039C300.03 67.1566 299.553 67.4631 299.02 67.5753C297.226 67.9538 293.12 69.4751 292.152 75.5188Z" fill="#1A1A1A"/>
<path d="M302.578 119.72L306.54 139.9L326.61 138.099L322.726 116.847L302.578 119.72Z" fill="#F3E0C8"/>
<path d="M333.041 88.7744C333.041 88.7744 337.328 88.7744 338.042 95.2043C338.756 101.634 330.898 104.492 330.898 104.492L326.611 103.777L328.755 90.2034L333.041 88.7744Z" fill="#1A1A1A"/>
<path d="M295.293 102.944C295.293 102.944 298.11 124.619 310.746 128.346C323.381 132.073 329.019 112.407 329.829 111.03C329.829 111.03 332.583 112.65 333.491 109.848C334.398 107.045 338.448 100.161 332.033 99.7229C332.033 99.7229 333.945 92.6925 332.05 88.9827C330.155 85.273 326.462 76.4279 317.05 77.9338C307.638 79.4398 296.023 92.2529 295.293 102.944Z" fill="#F3E0C8"/>
<path d="M331.088 79.3149C330.377 78.9094 329.976 78.1289 330.007 77.3108C330.108 74.6717 329.211 68.6861 320.087 64.1976C308.492 58.4938 300.743 60.1407 296.884 66.5894C296.604 67.0569 296.143 67.3873 295.616 67.5266C293.844 67.9958 289.821 69.7237 289.161 75.8087C289.161 75.8087 288.446 79.6664 286.266 80.8666C291.484 85.2038 293.799 100.415 293.905 100.619C295.539 101.016 301.564 101.873 308.827 95.4421C317.535 87.733 318.275 86.3167 323.964 87.8444C323.964 87.8444 328.07 96.4204 333.797 95.8051C333.797 95.8051 332.288 94.0335 334.456 92.6422C336.534 91.3084 340.046 84.4212 331.088 79.3149Z" fill="#1A1A1A"/>
<path d="M296.669 103.754C296.669 103.754 296.961 99.4777 293.348 99.9474C289.736 100.417 293.339 111.115 296.664 109.338L296.669 103.754Z" fill="#F3E0C8"/>
<path d="M305.088 132.498L291.715 137.499L308.264 155.659L338.036 136.713C335.688 135.837 334.208 134.13 331.952 133.524C329.73 132.928 327.555 132.365 325.431 131.64L305.088 132.498Z" fill="#F3E0C8"/>
<path d="M283.067 183.319C284.779 178.572 286.099 175.927 286.099 175.927L274.523 146.431C274.523 146.431 269.033 157.671 264.523 172.676C262.93 177.978 266.892 183.319 272.429 183.319L283.067 183.319Z" fill="#1A1A1A"/>
<path d="M363.207 173.107C360.565 157.844 356.356 147.199 356.356 147.199L340.832 169.455C342.98 174.244 344.599 178.91 345.775 183.318H354.629C360.039 183.318 364.13 178.438 363.207 173.107Z" fill="#F3E0C8"/>
<path d="M345.423 183.318L356.302 148.148C357.61 146.112 347.405 137.431 330.302 132.771C328.446 141.807 299.847 141.335 299.566 134.57C286.427 139.289 274.583 142.893 273.622 148.361C274.095 158.795 276.773 170.434 280.296 183.318L345.423 183.318Z" fill="#1A1A1A"/>
</g>
<defs>
<linearGradient id="paint0_linear_1273_24746" x1="157.422" y1="472.792" x2="171.093" y2="472.792" gradientUnits="userSpaceOnUse">
<stop stop-color="#FEBBBA"/>
<stop offset="1" stop-color="#FF928E"/>
</linearGradient>
<linearGradient id="paint1_linear_1273_24746" x1="147.535" y1="485.409" x2="160.366" y2="485.409" gradientUnits="userSpaceOnUse">
<stop stop-color="#FEBBBA"/>
<stop offset="1" stop-color="#FF928E"/>
</linearGradient>
<linearGradient id="paint2_linear_1273_24746" x1="186.742" y1="337.444" x2="231.502" y2="337.444" gradientUnits="userSpaceOnUse">
<stop stop-color="#FEBBBA"/>
<stop offset="1" stop-color="#FF928E"/>
</linearGradient>
<linearGradient id="paint3_linear_1273_24746" x1="144.035" y1="269.839" x2="173.733" y2="269.839" gradientUnits="userSpaceOnUse">
<stop stop-color="#FEBBBA"/>
<stop offset="1" stop-color="#FF928E"/>
</linearGradient>
<linearGradient id="paint4_linear_1273_24746" x1="123.783" y1="337.982" x2="10.0853" y2="535.556" gradientUnits="userSpaceOnUse">
<stop stop-color="#FEBBBA"/>
<stop offset="1" stop-color="#FF928E"/>
</linearGradient>
<linearGradient id="paint5_linear_1273_24746" x1="176.777" y1="237.875" x2="153.102" y2="294.71" gradientUnits="userSpaceOnUse">
<stop stop-color="#FEBBBA"/>
<stop offset="1" stop-color="#FF928E"/>
</linearGradient>
<linearGradient id="paint6_linear_1273_24746" x1="134.322" y1="289.126" x2="155.416" y2="252.285" gradientUnits="userSpaceOnUse">
<stop stop-color="#FEBBBA"/>
<stop offset="1" stop-color="#FF928E"/>
</linearGradient>
</defs>
</svg>
