<svg width="141" height="142" viewBox="0 0 141 142" fill="none" xmlns="http://www.w3.org/2000/svg">
<path d="M122.357 121.872C118.737 125.658 115.497 127.884 113.017 129.564C88.8278 145.951 61.1769 141.228 52.6279 139.613C38.8351 137.009 27.1922 135.171 17.1887 126.002C-5.542 105.166 -4.43642 61.701 12.9326 34.7763C14.9921 31.5838 32.3348 5.50156 60.0456 1.82632C60.7234 1.73645 61.2291 1.68523 61.672 1.63766C65.9588 1.17716 92.5232 -1.25323 114.184 17.1587C117.284 19.7943 122.274 24.5482 126.901 31.7987C143.82 58.3097 143.874 99.3694 122.357 121.872Z" fill="#F3E0C8"/>
<path d="M61.4113 0.505968C58.1108 0.797164 55.5803 3.60168 55.5709 6.96298C55.5134 27.5188 55.4186 98.4212 56.7392 123.517C56.8791 126.175 59.0274 128.264 61.6514 128.293C74.6299 128.434 111.962 128.695 133.155 127.319C137.57 127.033 141.005 123.324 140.999 118.836C140.974 97.2617 140.634 36.5881 137.721 8.8549C137.372 5.53204 134.739 2.93834 131.456 2.67875C117.301 1.55976 79.712 -1.10883 61.4113 0.505968Z" fill="#1A1A1A"/>
<path d="M60.7804 12.3496C60.5255 29.9332 59.7999 88.4268 61.0666 110.016C61.2518 113.171 63.6677 115.662 66.6508 115.768C78.933 116.202 110.429 117.043 128.376 115.039C131.607 114.678 134.077 111.836 134.163 108.395C134.612 90.451 135.825 35.971 134.594 14.6235C134.397 11.218 131.833 8.5006 128.618 8.28086C115.319 7.3717 81.1699 5.27501 65.9085 6.56445C63.0436 6.80652 60.8246 9.30544 60.7804 12.3496Z" fill="#FF914C"/>
<path d="M90.4565 3.56317C90.467 4.04897 90.8488 4.4413 91.3275 4.45606C93.6908 4.52893 100.348 4.73568 103.324 4.84448C103.911 4.86592 104.359 4.32129 104.235 3.739C104.225 3.72064 104.149 2.97411 103.397 2.92111C101.384 2.77909 95.3117 2.39625 91.2986 2.63117C90.4746 2.67936 90.4298 3.6302 90.4565 3.56317Z" fill="#1F5AA9"/>
<path opacity="0.24" d="M123.213 110.301H68.7746C66.0546 110.301 63.8496 106.589 63.8496 102.011V18.679C63.8496 14.6403 65.7946 11.3662 68.1939 11.3662H125.687C128.451 11.3662 130.691 15.1374 130.691 19.7893V97.7133C130.691 104.665 127.343 110.301 123.213 110.301Z" fill="white"/>
<g opacity="0.67">
<path d="M126.828 26.1237L106.487 25.8086C106.148 25.8034 105.876 25.5182 105.881 25.1749L105.928 22.0376C105.933 21.6943 106.214 21.4177 106.553 21.4229L126.894 21.738C127.232 21.7432 127.505 22.0284 127.5 22.3717L127.453 25.509C127.447 25.8523 127.166 26.129 126.828 26.1237Z" fill="#FFFCF9"/>
<path d="M126.699 35.1071L106.358 34.792C106.02 34.7868 105.747 34.5016 105.752 34.1583L105.799 31.021C105.804 30.6777 106.085 30.4011 106.424 30.4063L126.765 30.7214C127.103 30.7266 127.376 31.0118 127.371 31.3551L127.324 34.4924C127.318 34.8358 127.037 35.1124 126.699 35.1071Z" fill="#FFFCF9"/>
<path d="M126.556 44.0905L106.215 43.7754C105.877 43.7702 105.604 43.485 105.609 43.1417L105.657 40.0044C105.662 39.6611 105.943 39.3845 106.281 39.3897L126.622 39.7048C126.961 39.71 127.233 39.9952 127.228 40.3385L127.181 43.4758C127.176 43.8191 126.895 44.0957 126.556 44.0905Z" fill="#FFFCF9"/>
</g>
<g opacity="0.58">
<path d="M126.311 69.8847H76.4375C76.0551 69.8847 75.7422 69.5672 75.7422 69.1792V65.1654C75.7422 64.7774 76.0551 64.46 76.4375 64.46H126.311C126.693 64.46 127.006 64.7774 127.006 65.1654V69.1792C127.006 69.5672 126.693 69.8847 126.311 69.8847Z" fill="#FFFCF9"/>
<path d="M69.1682 70.4446C70.8101 70.4446 72.1411 68.9722 72.1411 67.1559C72.1411 65.3396 70.8101 63.8672 69.1682 63.8672C67.5263 63.8672 66.1953 65.3396 66.1953 67.1559C66.1953 68.9722 67.5263 70.4446 69.1682 70.4446Z" fill="#FFFCF9"/>
<path d="M126.311 80.0643H76.4375C76.0551 80.0643 75.7422 79.7469 75.7422 79.3589V75.3451C75.7422 74.9571 76.0551 74.6396 76.4375 74.6396H126.311C126.693 74.6396 127.006 74.9571 127.006 75.3451V79.3589C127.006 79.7469 126.693 80.0643 126.311 80.0643Z" fill="#FFFCF9"/>
<path d="M69.1682 80.6243C70.8101 80.6243 72.1411 79.1519 72.1411 77.3356C72.1411 75.5193 70.8101 74.0469 69.1682 74.0469C67.5263 74.0469 66.1953 75.5193 66.1953 77.3356C66.1953 79.1519 67.5263 80.6243 69.1682 80.6243Z" fill="#FFFCF9"/>
<path d="M126.311 90.2449H76.4375C76.0551 90.2449 75.7422 89.9275 75.7422 89.5395V85.5257C75.7422 85.1377 76.0551 84.8203 76.4375 84.8203H126.311C126.693 84.8203 127.006 85.1377 127.006 85.5257V89.5395C127.006 89.9275 126.693 90.2449 126.311 90.2449Z" fill="#FFFCF9"/>
<path d="M69.1682 90.8049C70.8101 90.8049 72.1411 89.3325 72.1411 87.5162C72.1411 85.6999 70.8101 84.2275 69.1682 84.2275C67.5263 84.2275 66.1953 85.6999 66.1953 87.5162C66.1953 89.3325 67.5263 90.8049 69.1682 90.8049Z" fill="#FFFCF9"/>
<path d="M126.313 100.423H76.4394C76.057 100.423 75.7441 100.105 75.7441 99.7173V95.7035C75.7441 95.3155 76.057 94.998 76.4394 94.998H126.313C126.695 94.998 127.008 95.3155 127.008 95.7035V99.7173C127.008 100.105 126.695 100.423 126.313 100.423Z" fill="#FFFCF9"/>
<path d="M69.1682 100.983C70.8101 100.983 72.1411 99.5103 72.1411 97.694C72.1411 95.8777 70.8101 94.4053 69.1682 94.4053C67.5263 94.4053 66.1953 95.8777 66.1953 97.694C66.1953 99.5103 67.5263 100.983 69.1682 100.983Z" fill="#FFFCF9"/>
</g>
<path d="M92.6827 80.6103L89.9009 81.5823L85.5335 68.7166C83.8181 63.6634 85.6278 58.2541 89.7431 56.134L95.1584 53.3444C97.4891 52.1438 100.254 52.1735 102.745 53.4263C105.235 54.6792 107.221 57.0392 108.192 59.9015L111.641 70.0601C111.842 70.6529 111.591 71.2781 111.08 71.4566L109.223 72.1054L105.41 60.8735C104.752 58.9347 103.407 57.3361 101.721 56.4875C100.034 55.6389 98.1605 55.6187 96.582 56.4321L91.1666 59.2217C88.3758 60.6593 87.1519 64.3174 88.3152 67.7444L92.6827 80.6103Z" fill="#FFFCF9"/>
<path d="M85.9511 77.6674L111.741 76.2177C112.789 76.1589 113.67 77.0048 113.67 78.0691V98.7984C113.67 99.8224 112.852 100.653 111.842 100.653H86.6718C85.6857 100.653 84.8774 99.8588 84.8452 98.8588L84.2256 79.5793C84.1933 78.5721 84.9595 77.7231 85.9511 77.6674Z" fill="#FFFCF9"/>
<path d="M103.152 94.7152L101.591 90.162C101.404 89.6145 101.532 89.0025 101.933 88.59C102.733 87.7676 103.21 86.6209 103.153 85.3615C103.053 83.1404 101.265 81.3396 99.0754 81.2542C96.6521 81.1598 94.6582 83.1249 94.6582 85.5626C94.6582 86.915 95.2721 88.1214 96.2325 88.9116C96.7305 89.3215 96.9353 89.9951 96.7246 90.6097L95.3171 94.7151C94.9749 95.7136 95.7055 96.7563 96.7475 96.7563H101.722C102.764 96.7564 103.495 95.7137 103.152 94.7152Z" fill="#1A1A1A"/>
<path opacity="0.34" d="M73.4261 25.4677C26.0278 13.7377 -8.87735 46.2386 16.3368 91.2048H47.4752C25.7664 68.1473 50.579 43.881 72.1416 31.3878L73.4261 25.4677Z" fill="white"/>
<path d="M55.5489 39.47C58.6051 36.3692 58.6051 31.3417 55.5489 28.2409C52.4926 25.1401 47.5374 25.1401 44.4811 28.2409C41.4249 31.3417 41.4249 36.3692 44.4811 39.47C47.5374 42.5709 52.4926 42.5709 55.5489 39.47Z" fill="#1A1A1A"/>
<g opacity="0.9">
<path d="M50.1241 39.0599C47.2976 39.0599 44.998 36.7268 44.998 33.8591C44.998 30.9913 47.2976 28.6582 50.1241 28.6582C52.9507 28.6582 55.2502 30.9913 55.2502 33.8591C55.2502 36.7268 52.9507 39.0599 50.1241 39.0599ZM50.1241 29.5298C47.7712 29.5298 45.8571 31.4719 45.8571 33.8591C45.8571 36.2463 47.7713 38.1884 50.1241 38.1884C52.477 38.1884 54.3912 36.2463 54.3912 33.8591C54.3912 31.4719 52.477 29.5298 50.1241 29.5298Z" fill="#F3E0C8"/>
<path fill-rule="evenodd" clip-rule="evenodd" d="M48.5176 35.8627V32.1237C48.5176 31.7241 48.9462 31.4765 49.2848 31.6804L52.3902 33.5499C52.7219 33.7496 52.7219 34.2367 52.3902 34.4364L49.2848 36.3059C48.9462 36.5098 48.5176 36.2622 48.5176 35.8627Z" fill="#F3E0C8"/>
</g>
<path d="M23.2282 70.0518C27.2045 66.0175 27.2045 59.4766 23.2282 55.4423C19.2519 51.408 12.805 51.408 8.82868 55.4423C4.85236 59.4766 4.85234 66.0175 8.82865 70.0518C12.805 74.0861 19.2518 74.0861 23.2282 70.0518Z" fill="#1A1A1A"/>
<path d="M22.71 68.4616C22.71 68.667 22.5458 68.8335 22.3434 68.8335H9.67714C9.47469 68.8335 9.31055 68.667 9.31055 68.4616V57.6756C9.31055 57.4702 9.47469 57.3037 9.67714 57.3037H22.3434C22.5458 57.3037 22.71 57.4702 22.71 57.6756V68.4616ZM10.1586 67.801H22.0315V57.9921H10.1586V67.801Z" fill="#F3E0C8"/>
<path d="M19.3897 61.0679C19.2891 60.9355 19.1297 60.8575 18.965 60.8565C18.8003 60.8554 18.6421 60.9314 18.5399 61.0623L15.8419 64.5187C15.749 64.6376 15.6108 64.7117 15.4617 64.723C15.3126 64.7343 15.1653 64.6818 15.0561 64.5781L12.9989 62.6257C12.7956 62.4327 12.4524 62.4302 12.2461 62.6199L9.65039 64.9808V68.3176H22.3714V64.9808L19.3897 61.0679Z" fill="#F3E0C8"/>
<path d="M14.0609 60.8758C14.5679 60.3614 14.5679 59.5273 14.0609 59.0129C13.5538 58.4984 12.7317 58.4984 12.2247 59.0129C11.7177 59.5273 11.7177 60.3614 12.2247 60.8758C12.7318 61.3902 13.5538 61.3902 14.0609 60.8758Z" fill="#F3E0C8"/>
<path d="M37.6856 53.6981C41.0968 50.2372 41.0968 44.626 37.6856 41.1651C34.2745 37.7042 28.7439 37.7042 25.3327 41.1651C21.9216 44.626 21.9215 50.2373 25.3327 53.6982C28.7438 57.159 34.2744 57.159 37.6856 53.6981Z" fill="#1A1A1A"/>
<path d="M31.5412 54.5068C30.9621 54.5068 30.4372 54.2067 30.1373 53.7039C28.4468 50.8703 26.4316 47.1382 26.4316 45.4504C26.4316 42.8128 28.7238 40.667 31.5412 40.667C34.3586 40.667 36.6508 42.8128 36.6508 45.4504C36.6508 47.1384 34.6356 50.8704 32.9451 53.704C32.6451 54.2067 32.1202 54.5068 31.5412 54.5068ZM31.5412 41.3304C29.0843 41.3304 27.0855 43.1787 27.0855 45.4504C27.0855 46.6305 28.4018 49.5137 30.6968 53.3605C30.8772 53.6629 31.1928 53.8434 31.5412 53.8434C31.8895 53.8434 32.2052 53.6629 32.3857 53.3605C34.6806 49.5138 35.9969 46.6307 35.9969 45.4505C35.9969 43.1787 33.998 41.3304 31.5412 41.3304Z" fill="#F3E0C8"/>
<path d="M31.1446 48.7897C29.3977 48.7897 27.9766 47.3479 27.9766 45.5755C27.9766 45.3923 28.123 45.2439 28.3035 45.2439C28.4841 45.2439 28.6305 45.3923 28.6305 45.5755C28.6305 46.9821 29.7583 48.1263 31.1446 48.1263C32.5308 48.1263 33.6587 46.9821 33.6587 45.5755C33.6587 44.1691 32.5309 43.0247 31.1446 43.0247C30.3429 43.0247 29.6079 43.3992 29.1279 44.0521C29.02 44.199 28.8151 44.2292 28.6704 44.1197C28.5256 44.0101 28.4958 43.8023 28.6038 43.6554C29.1995 42.845 30.1494 42.3613 31.1446 42.3613C32.8914 42.3613 34.3126 43.8032 34.3126 45.5755C34.3126 47.3479 32.8915 48.7897 31.1446 48.7897Z" fill="#F3E0C8"/>
<path d="M34.1399 113.173H32.0195V136.437H34.1399V113.173Z" fill="#FFFCF9"/>
<path d="M23.7949 136.886H42.3659V136.035C42.3659 135.731 42.1233 135.485 41.8241 135.485H24.3789C24.0564 135.485 23.7949 135.751 23.7949 136.078V136.886Z" fill="#FFFCF9"/>
<path d="M20.2832 112.315C20.2832 113.667 21.3737 114.773 22.7065 114.773H42.6747C44.0075 114.773 45.098 113.667 45.098 112.315V110.091C45.098 108.739 44.0075 107.633 42.6747 107.633H22.7065C21.3737 107.633 20.2833 108.739 20.2833 110.091L20.2832 112.315Z" fill="#FFFCF9"/>
<path d="M44.8898 132.316C44.8898 132.316 50.9445 136.744 49.8932 139.719C49.8932 139.719 43.2686 136.819 42.4682 134.534C41.6679 132.25 42.6036 131.241 42.6036 131.241L44.8898 132.316Z" fill="#1A1A1A"/>
<path d="M43.9806 128.605L42.9906 131.509C42.8412 131.948 42.9906 132.447 43.377 132.694C43.5704 132.818 43.8349 132.933 44.1963 133.016C44.7063 133.133 45.2328 132.894 45.478 132.426L46.6623 130.163L43.9806 128.605Z" fill="url(#paint0_linear_1727_21551)"/>
<path d="M34.3454 102.468C34.3454 102.468 46.7815 104.655 52.1162 109.654C57.4508 114.654 47.2197 130.603 47.2197 130.603C47.2197 130.603 45.5434 130.593 43.5121 128.826C43.5121 128.826 49.5783 116.831 44.3504 113.333C38.4728 109.401 31.6992 108.515 31.6992 108.515L34.2251 102.853L34.3454 102.468Z" fill="#1A1A1A"/>
<path d="M48.841 138.073C47.5092 137.448 43.7391 134.77 43.1036 134.652C42.468 134.534 41.3657 135.292 41.3657 135.292C41.3657 135.292 41.0977 135.781 41.3844 136.634C42.2693 137.721 44.2341 139.792 46.8755 140.563C48.8186 141.131 50.1776 140.602 51.024 139.983C50.5584 139.263 49.7279 138.49 48.841 138.073Z" fill="#1A1A1A"/>
<path d="M46.8759 140.564C44.2345 139.792 42.2697 137.721 41.3848 136.635C41.5786 137.211 42.0254 137.954 42.9804 138.825C45.3487 140.985 49.8718 141.763 50.8348 141.613C51.6066 141.493 51.5338 140.77 51.0244 139.983C50.1779 140.602 48.8189 141.131 46.8759 140.564Z" fill="#1A1A1A"/>
<path d="M40.2363 133.402C40.2513 133.775 41.0012 135.051 41.4394 135.768C41.6477 136.108 42.0126 136.316 42.4075 136.317C42.658 136.318 42.9459 136.296 43.2073 136.22C43.5998 136.105 43.8202 135.681 43.7054 135.283L42.849 132.316L40.2363 133.402Z" fill="url(#paint1_linear_1727_21551)"/>
<path d="M22.3759 98.6807C22.3759 98.6807 19.6141 106.173 22.3759 108.452C25.1378 110.73 31.7264 113.296 33.1982 117.834C34.6701 122.373 37.1677 131.193 40.5102 134.316C40.5102 134.316 42.8587 134.085 43.7376 133.136C43.7376 133.136 41.8339 119.969 40.5784 116.59C39.4911 113.665 37.8891 109.442 34.8191 107.081C33.9403 106.406 34.0933 105.335 34.5009 104.296L35.2429 102.403L22.3759 98.6807Z" fill="#1A1A1A"/>
<path d="M51.1797 92.8075C46.5489 93.0908 47.9919 85.5847 48.0753 85.2861L41.0469 90.3229C41.0469 90.3229 41.419 94.337 47.2625 96.4426C48.7409 96.9752 50.0922 96.9988 51.2868 96.7383C50.7774 95.231 50.881 93.8785 51.1797 92.8075Z" fill="#1A1A1A"/>
<path d="M60.1334 90.5481C58.4077 89.3303 56.4528 90.5481 56.4528 90.5481C54.1454 92.0791 52.4384 92.7303 51.1792 92.8072C50.8805 93.8782 50.7769 95.2307 51.2863 96.7381C53.8711 96.1743 55.7204 94.2764 56.5239 93.3025C56.8133 92.9519 57.3255 92.891 57.6793 93.1743C58.0386 93.4621 58.3875 93.8562 58.3243 94.2712C58.1995 95.0894 59.1352 95.3494 59.2058 95.0528C59.2763 94.756 58.8857 92.997 58.8857 92.997C58.8857 92.997 60.7572 94.9064 61.4877 95.6401C62.2183 96.3739 63.137 95.6401 63.137 95.6401C63.137 95.6401 61.8591 91.766 60.1334 90.5481Z" fill="url(#paint2_linear_1727_21551)"/>
<path d="M29.5878 73.6943C29.5878 73.6943 36.3248 70.9575 48.8627 81.4596C48.8627 81.4596 49.91 83.6589 48.7675 85.6166C47.625 87.5741 36.7392 97.1126 35.243 102.402C35.243 102.402 28.7577 104.54 22.0508 99.4704C22.0508 99.4704 22.6426 84.7487 29.5878 73.6943Z" fill="#1A1A1A"/>
<path d="M43.58 70.3955L39.5893 75.3312C39.26 75.7362 39.1875 76.2996 39.4152 76.771C39.8756 77.7238 40.9678 79.1107 43.3902 78.9189C44.1108 78.8618 44.7489 78.4207 45.0637 77.7606L47.3826 72.8969L43.58 70.3955Z" fill="url(#paint3_linear_1727_21551)"/>
<path d="M24.3708 91.1658C23.5887 87.9341 31.5107 80.7295 31.5107 80.7295L29.5868 73.6953C29.5868 73.6953 12.4808 85.249 16.8401 94.5402C17.465 95.8721 18.295 96.8051 19.2573 97.429C20.6347 93.6673 22.8298 91.9421 24.3708 91.1658Z" fill="#1A1A1A"/>
<path d="M24.365 90.6938C24.2809 90.6938 24.2044 90.6359 24.1834 90.5491C23.3837 87.245 31.0534 80.2237 31.3801 79.9263C31.4569 79.8567 31.5751 79.8628 31.6445 79.9409C31.7135 80.019 31.7069 80.1392 31.6301 80.2092C31.5517 80.2804 23.8003 87.3741 24.5469 90.4586C24.5716 90.5605 24.5101 90.6633 24.4097 90.6883C24.395 90.692 24.3799 90.6938 24.365 90.6938Z" fill="#1A1A1A"/>
<path d="M36.3701 90.887C36.3701 90.887 26.9777 94.5868 24.6851 91.8039C24.5296 91.6152 24.4283 91.4003 24.3714 91.1651C22.8303 91.9414 20.6352 93.6666 19.2578 97.4284C24.1977 100.631 32.6413 95.6468 34.9244 94.1774C35.3 93.9357 35.7505 93.8509 36.186 93.9425C37.0666 94.1278 38.5878 94.4002 39.4082 94.272C40.6085 94.0844 42.3324 98.3799 44.2778 97.055C44.2778 97.055 42.612 89.5885 36.3701 90.887Z" fill="url(#paint4_linear_1727_21551)"/>
<path d="M50.1221 65.2604C50.1555 65.3915 49.3447 74.3085 49.3447 74.3085L44.3363 73.7305L43.8672 65.1632C43.8672 65.1632 49.5635 63.0649 50.1221 65.2604Z" fill="url(#paint5_linear_1727_21551)"/>
<path d="M45.1713 66.939L45.0701 71.4686C45.0689 71.5267 45.075 71.5833 45.0893 71.6395C45.1764 71.984 45.5619 73.1468 46.7104 72.6741C47.7526 72.2452 48.71 71.8696 49.4141 72.0051C49.7302 72.066 49.9488 72.3597 49.9191 72.6848C49.8453 73.4949 49.6455 75.3174 49.2339 76.874C49.1503 77.1898 48.8406 77.3853 48.5232 77.3285C47.5667 77.1576 45.5592 76.7398 44.0219 76.0198C43.8136 75.9223 43.6738 75.7197 43.6585 75.4874C43.5834 74.3551 43.3427 70.9145 43.1295 69.9663C42.9294 69.0764 41.7805 68.6577 41.2858 68.5169C41.1236 68.4707 40.9884 68.3601 40.9093 68.2092C40.6296 67.6758 40.1875 66.4188 41.7335 65.7114C42.057 65.5633 42.1942 65.1766 42.0385 64.853C41.7285 64.2087 41.5176 63.1963 42.6969 62.4943C43.8955 61.7807 44.9107 62.3577 45.479 62.8552C45.7087 63.0563 46.0423 63.0538 46.2796 62.8619C46.4148 62.7527 46.5985 62.7013 46.8399 62.819C47.1653 62.9776 47.5543 62.8014 47.6761 62.4567C47.91 61.7944 48.4523 61.0525 49.7097 61.1296C51.9408 61.2662 52.4552 63.7007 52.0335 65.2078C51.6119 66.715 49.2012 66.4273 47.9431 65.8312C46.9865 65.3781 45.8859 66.0873 45.4133 66.4532C45.2636 66.5691 45.1756 66.748 45.1713 66.939Z" fill="#1A1A1A"/>
<path d="M43.3341 71.6798C43.3341 71.6798 43.7341 68.9583 42.7413 68.4349C41.7487 67.9114 40.4138 68.3893 40.9159 70.2086C41.5405 72.4717 43.3341 71.6798 43.3341 71.6798Z" fill="url(#paint6_linear_1727_21551)"/>
<path d="M49.9785 65.7339C50.1847 65.6899 50.3814 65.6264 50.5706 65.5545C50.7584 65.479 50.9376 65.388 51.0951 65.2691C51.2576 65.1557 51.3844 65.0017 51.4887 64.8329C51.5982 64.6637 51.6537 64.4647 51.7145 64.2588C51.7234 64.4694 51.7124 64.6974 51.613 64.8984C51.5241 65.1009 51.3816 65.2856 51.2018 65.4152C50.843 65.6758 50.3976 65.7817 49.9785 65.7339Z" fill="white"/>
<path d="M41.1815 98.1818C41.1966 98.1826 41.2117 98.1829 41.2269 98.1828L60.9335 98.161C61.4206 98.1606 61.8151 97.7595 61.8146 97.2652C61.8141 96.7708 61.4174 96.3624 60.9315 96.3712L41.2249 96.393C40.7377 96.3935 40.3432 96.7946 40.3438 97.2888C40.3443 97.7677 40.7154 98.1584 41.1815 98.1818Z" fill="#1A1A1A"/>
<path d="M78.6483 80.0283H62.2366C61.0259 80.0283 59.9239 80.7373 59.4075 81.8483L51.8203 98.1709H72.2158C72.996 98.1709 73.697 97.6873 73.9837 96.9511L79.8672 81.8468C80.2072 80.9741 79.5733 80.0283 78.6483 80.0283Z" fill="#1A1A1A"/>
<path d="M75.9895 141.065C76.0987 141.065 76.2096 141.044 76.3163 140.999C76.7364 140.821 76.9306 140.343 76.7498 139.93L59.382 100.272C59.2014 99.8598 58.7146 99.6693 58.294 99.8465C57.8739 100.024 57.6799 100.503 57.8606 100.915L75.2283 140.573C75.3632 140.881 75.6686 141.065 75.9895 141.065Z" fill="#1A1A1A"/>
<path d="M56.4216 141.065C56.7426 141.065 57.0479 140.881 57.1827 140.573L74.5505 100.915C74.7313 100.503 74.5371 100.024 74.1171 99.8467C73.6972 99.6692 73.21 99.8597 73.0291 100.272L55.6614 139.93C55.4806 140.343 55.6747 140.821 56.0948 140.999C56.2014 141.044 56.3124 141.065 56.4216 141.065Z" fill="#1A1A1A"/>
<path d="M22.2277 141.065C22.3369 141.065 22.4478 141.044 22.5546 140.999C22.9747 140.821 23.1688 140.343 22.9881 139.93L5.6203 100.272C5.43954 99.8598 4.95297 99.6693 4.5323 99.8465C4.11219 100.024 3.91812 100.503 4.09887 100.915L21.4666 140.573C21.6014 140.881 21.9069 141.065 22.2277 141.065Z" fill="#1A1A1A"/>
<path d="M2.66198 141.065C2.98292 141.065 3.28828 140.881 3.42307 140.573L20.7908 100.915C20.9715 100.503 20.7774 100.024 20.3574 99.8467C19.9375 99.6692 19.4502 99.8597 19.2694 100.272L1.9016 139.93C1.72085 140.343 1.91497 140.821 2.33507 140.999C2.4418 141.044 2.55279 141.065 2.66198 141.065Z" fill="#1A1A1A"/>
<path d="M0.625566 99.0484C0.581253 98.7883 0.641555 98.5193 0.790021 98.3149C0.938436 98.1106 1.15949 97.9922 1.39273 97.9922H80.4034C80.7101 97.9922 80.9957 98.1698 81.1609 98.4633C81.3262 98.7568 81.3484 99.1258 81.2198 99.4421L80.3635 101.547C80.1675 102.029 79.7426 102.338 79.2752 102.338H1.93488C1.50007 102.338 1.12623 101.987 1.04367 101.502L0.625566 99.0484Z" fill="#1A1A1A"/>
<path d="M41.384 78.7021C41.384 78.7021 40.2977 74.5705 40.6869 73.8348C41.0762 73.0992 41.384 72.9774 41.384 72.9774C41.384 72.9774 38.2435 70.5596 36.0433 71.7736C33.8431 72.9876 34.2281 73.7131 34.7781 74.5501C35.3282 75.3873 40.6192 78.9196 41.384 78.7021Z" fill="#1A1A1A"/>
<path d="M41.3848 78.7027C41.3848 78.7027 44.5148 79.6178 45.5049 78.7027C46.495 77.7876 45.3444 76.9248 45.3444 76.9248C45.3444 76.9248 42.6785 79.1504 41.3848 78.7027Z" fill="#1A1A1A"/>
<path d="M72.0413 88.3536H67.1633C66.8363 87.056 65.6765 86.0967 64.2957 86.0967C62.6611 86.0967 61.3359 87.4412 61.3359 89.0997C61.3359 90.7582 62.661 92.1026 64.2957 92.1026C65.7418 92.1026 66.9449 91.0501 67.2034 89.6592H68.5975V90.4146C68.5975 90.6979 68.8239 90.9275 69.1031 90.9275H69.1215C69.4007 90.9275 69.627 90.6979 69.627 90.4146V89.6592H70.9139V90.8249C70.9139 91.1082 71.1403 91.3378 71.4195 91.3378H71.4378C71.717 91.3378 71.9433 91.1082 71.9433 90.8249V89.6592H72.0414C72.3934 89.6592 72.6787 89.3697 72.6787 89.0126V89.0002C72.6786 88.6431 72.3933 88.3536 72.0413 88.3536ZM64.2957 90.9524C63.2872 90.9524 62.4696 90.1229 62.4696 89.0997C62.4696 88.0764 63.2872 87.2469 64.2957 87.2469C65.3043 87.2469 66.1218 88.0764 66.1218 89.0997C66.1218 90.1229 65.3043 90.9524 64.2957 90.9524Z" fill="white"/>
<path d="M83.4081 49.4025C93.2144 49.4025 101.164 41.337 101.164 31.3878C101.164 21.4385 93.2144 13.373 83.4081 13.373C73.6019 13.373 65.6523 21.4385 65.6523 31.3878C65.6523 41.337 73.6019 49.4025 83.4081 49.4025Z" fill="white"/>
<mask id="mask0_1727_21551" style="mask-type:luminance" maskUnits="userSpaceOnUse" x="67" y="15" width="33" height="33">
<path d="M83.4106 47.4328C92.1438 47.4328 99.2235 40.2498 99.2235 31.3892C99.2235 22.5286 92.1438 15.3457 83.4106 15.3457C74.6774 15.3457 67.5977 22.5286 67.5977 31.3892C67.5977 40.2498 74.6774 47.4328 83.4106 47.4328Z" fill="white"/>
</mask>
<g mask="url(#mask0_1727_21551)">
<path d="M79.6778 20.8977C79.6778 20.8977 79.1299 23.2375 77.6544 21.9465C76.1788 20.6555 74.3542 18.7458 72.291 20.3863C70.2277 22.0267 72.6751 23.3851 72.6751 23.3851C72.6751 23.3851 71.7347 22.8968 71.0268 23.6677C70.8234 23.8893 70.4983 23.9301 70.256 23.7533C70.0275 23.5865 69.7118 23.4972 69.3307 23.7479C69.0309 23.9452 68.1966 25.8654 68.9593 29.2703C69.4135 31.298 70.7342 37.1386 75.2552 38.2483C78.2071 38.9729 80.7278 37.239 80.9493 37.0816C83.4253 35.3218 83.897 32.63 83.9741 32.1399C83.8359 31.5998 83.1849 28.8407 84.7627 26.5998C85.1215 26.0903 86.167 24.775 87.7796 24.5306C88.1265 24.478 88.4879 24.5476 88.991 24.7129C88.991 24.7129 89.415 27.12 90.9833 27.0305C90.9833 27.0305 90.8287 26.4254 91.4384 26.0713C92.0227 25.732 93.4186 23.993 91.0493 22.4559C90.8612 22.3338 90.7628 22.1125 90.7827 21.8869C90.8468 21.159 90.6853 19.4923 88.2623 18.1237C85.1831 16.3845 83.0496 16.7307 81.9091 18.4586C81.8264 18.5839 81.6963 18.6687 81.5508 18.6997C81.0616 18.8044 79.9418 19.2254 79.6778 20.8977Z" fill="#1A1A1A"/>
<path d="M82.5215 33.1278L83.6021 38.7119L89.0758 38.2135L88.0164 32.333L82.5215 33.1278Z" fill="#F3E0C8"/>
<path d="M90.8298 24.5654C90.8298 24.5654 91.9988 24.5654 92.1937 26.3446C92.3885 28.1238 90.2452 28.9145 90.2452 28.9145L89.0762 28.7169L89.6607 24.9608L90.8298 24.5654Z" fill="#1A1A1A"/>
<path d="M80.5352 28.4854C80.5352 28.4854 81.3036 34.483 84.7495 35.5142C88.1956 36.5454 89.7334 31.1038 89.9543 30.7228C89.9543 30.7228 90.7053 31.1711 90.9528 30.3956C91.2003 29.6202 92.3049 27.7152 90.5553 27.5941C90.5553 27.5941 91.0768 25.6487 90.5599 24.6222C90.0431 23.5957 89.0359 21.1482 86.469 21.5648C83.9021 21.9816 80.7342 25.5271 80.5352 28.4854Z" fill="#F3E0C8"/>
<path d="M90.2966 21.9474C90.1027 21.8352 89.9933 21.6192 90.0019 21.3928C90.0295 20.6626 89.7848 19.0063 87.2964 17.7643C84.1341 16.186 82.0207 16.6417 80.9682 18.4262C80.8918 18.5555 80.7661 18.6469 80.6224 18.6855C80.1392 18.8153 79.0418 19.2934 78.8619 20.9772C78.8619 20.9772 78.6669 22.0446 78.0723 22.3767C79.4954 23.5769 80.1269 27.786 80.1557 27.8424C80.6014 27.9522 82.2445 28.1893 84.2255 26.4099C86.6005 24.2767 86.8021 23.8848 88.3538 24.3076C88.3538 24.3076 89.4736 26.6806 91.0356 26.5103C91.0356 26.5103 90.624 26.0201 91.2153 25.6351C91.7819 25.2661 92.7398 23.3603 90.2966 21.9474Z" fill="#1A1A1A"/>
<path d="M80.91 28.7099C80.91 28.7099 80.9896 27.5265 80.0044 27.6565C79.0192 27.7864 80.0018 30.7465 80.9087 30.2549L80.91 28.7099Z" fill="#F3E0C8"/>
<path d="M83.2058 36.6631L79.5586 38.0471L84.0722 43.0719L92.1917 37.8297C91.5514 37.5871 91.1477 37.1147 90.5325 36.9472C89.9265 36.7823 89.3334 36.6264 88.7539 36.4258L83.2058 36.6631Z" fill="#F3E0C8"/>
<path d="M77.2012 50.7255C77.6681 49.412 78.028 48.6802 78.028 48.6802L74.8711 40.5186C74.8711 40.5186 73.3736 43.6287 72.1438 47.7805C71.7093 49.2477 72.7899 50.7255 74.2999 50.7255L77.2012 50.7255Z" fill="#1A1A1A"/>
<path d="M99.0574 47.9005C98.3368 43.677 97.1888 40.7314 97.1888 40.7314L92.9551 46.89C93.5409 48.2152 93.9823 49.5063 94.303 50.726H96.718C98.1935 50.726 99.309 49.3756 99.0574 47.9005Z" fill="#F3E0C8"/>
<path d="M94.2072 50.7262L97.1743 40.9943C97.5311 40.431 94.7479 38.0288 90.0833 36.7393C89.577 39.2399 81.7772 39.1091 81.7005 37.2371C78.1172 38.543 74.8871 39.5402 74.625 41.0532C74.754 43.9405 75.4842 47.161 76.4452 50.7262L94.2072 50.7262Z" fill="#1A1A1A"/>
</g>
<defs>
<linearGradient id="paint0_linear_1727_21551" x1="42.9336" y1="130.826" x2="46.6622" y2="130.826" gradientUnits="userSpaceOnUse">
<stop stop-color="#FEBBBA"/>
<stop offset="1" stop-color="#FF928E"/>
</linearGradient>
<linearGradient id="paint1_linear_1727_21551" x1="40.2363" y1="134.317" x2="43.7358" y2="134.317" gradientUnits="userSpaceOnUse">
<stop stop-color="#FEBBBA"/>
<stop offset="1" stop-color="#FF928E"/>
</linearGradient>
<linearGradient id="paint2_linear_1727_21551" x1="50.9297" y1="93.3724" x2="63.137" y2="93.3724" gradientUnits="userSpaceOnUse">
<stop stop-color="#FEBBBA"/>
<stop offset="1" stop-color="#FF928E"/>
</linearGradient>
<linearGradient id="paint3_linear_1727_21551" x1="39.2832" y1="74.6662" x2="47.3826" y2="74.6662" gradientUnits="userSpaceOnUse">
<stop stop-color="#FEBBBA"/>
<stop offset="1" stop-color="#FF928E"/>
</linearGradient>
<linearGradient id="paint4_linear_1727_21551" x1="33.76" y1="93.5223" x2="2.07171" y2="147.796" gradientUnits="userSpaceOnUse">
<stop stop-color="#FEBBBA"/>
<stop offset="1" stop-color="#FF928E"/>
</linearGradient>
<linearGradient id="paint5_linear_1727_21551" x1="48.2129" y1="65.8218" x2="41.5951" y2="81.4804" gradientUnits="userSpaceOnUse">
<stop stop-color="#FEBBBA"/>
<stop offset="1" stop-color="#FF928E"/>
</linearGradient>
<linearGradient id="paint6_linear_1727_21551" x1="36.6354" y1="80.004" x2="42.5147" y2="69.8832" gradientUnits="userSpaceOnUse">
<stop stop-color="#FEBBBA"/>
<stop offset="1" stop-color="#FF928E"/>
</linearGradient>
</defs>
</svg>
