<svg width="517" height="512" viewBox="0 0 517 512" fill="none" xmlns="http://www.w3.org/2000/svg">
<path d="M448.639 440.436C435.364 454.119 423.486 462.163 414.392 468.235C325.699 527.456 224.313 510.387 192.967 504.553C142.394 495.14 99.7038 488.5 63.0249 455.362C-20.3205 380.063 -16.2667 222.983 47.4193 125.679C54.9705 114.141 118.56 19.882 220.165 6.59994C222.651 6.27517 224.505 6.09007 226.129 5.91816C241.847 4.25394 339.249 -4.52933 418.671 62.0101C430.039 71.5349 448.335 88.7152 465.301 114.918C527.337 210.727 527.534 359.114 448.639 440.436Z" fill="#F3E0C8"/>
<path d="M225.179 1.82854C213.077 2.8809 203.799 13.0162 203.764 25.1638C203.554 99.451 203.206 355.688 208.048 446.381C208.561 455.989 216.438 463.537 226.06 463.641C273.647 464.153 410.53 465.094 488.239 460.124C504.424 459.088 517.019 445.683 517 429.464C516.905 351.497 515.66 132.227 504.979 32.001C503.7 19.9924 494.047 10.619 482.007 9.68083C430.105 5.63687 292.281 -4.00725 225.179 1.82854Z" fill="#1A1A1A"/>
<path d="M222.867 44.6323C221.932 108.178 219.272 319.57 223.917 397.591C224.596 408.995 233.454 417.998 244.392 418.379C289.426 419.949 404.91 422.986 470.714 415.745C482.564 414.441 491.62 404.171 491.935 391.734C493.581 326.885 498.028 129.998 493.513 52.85C492.793 40.5427 483.39 30.7223 471.604 29.9282C422.842 26.6426 297.628 19.0653 241.67 23.7252C231.165 24.6 223.029 33.631 222.867 44.6323Z" fill="#FF914C"/>
<path d="M331.675 12.8778C331.713 14.6334 333.113 16.0513 334.869 16.1046C343.534 16.3679 367.945 17.1151 378.855 17.5083C381.007 17.5858 382.65 15.6176 382.197 13.5132C382.159 13.4469 381.88 10.7489 379.124 10.5574C371.744 10.0441 349.477 8.66059 334.763 9.50957C331.741 9.68374 331.577 13.12 331.675 12.8778Z" fill="#1F5AA9"/>
<path opacity="0.24" d="M451.779 398.623H252.173C242.199 398.623 234.114 385.209 234.114 368.661V67.5062C234.114 52.9105 241.246 41.0781 250.043 41.0781H460.851C470.984 41.0781 479.198 54.7068 479.198 71.5186V353.131C479.198 378.255 466.922 398.623 451.779 398.623Z" fill="white"/>
<g opacity="0.67">
<path d="M465.034 94.4084L390.45 93.2697C389.209 93.2509 388.21 92.2202 388.229 90.9795L388.402 79.6416C388.421 78.4009 389.451 77.4013 390.692 77.4202L465.276 78.5589C466.516 78.5777 467.516 79.6084 467.497 80.8491L467.324 92.187C467.305 93.4277 466.274 94.4275 465.034 94.4084Z" fill="#FFFCF9"/>
<path d="M464.565 126.873L389.981 125.735C388.741 125.716 387.741 124.685 387.76 123.444L387.933 112.106C387.952 110.866 388.983 109.866 390.223 109.885L464.807 111.024C466.048 111.043 467.047 112.073 467.028 113.314L466.855 124.652C466.836 125.893 465.806 126.892 464.565 126.873Z" fill="#FFFCF9"/>
<path d="M464.042 159.338L389.458 158.199C388.217 158.181 387.218 157.15 387.237 155.909L387.41 144.571C387.429 143.331 388.459 142.331 389.7 142.35L464.283 143.489C465.524 143.507 466.524 144.538 466.505 145.779L466.332 157.117C466.313 158.357 465.282 159.357 464.042 159.338Z" fill="#FFFCF9"/>
</g>
<g opacity="0.58">
<path d="M463.142 252.564H280.275C278.873 252.564 277.726 251.416 277.726 250.014V235.508C277.726 234.106 278.873 232.959 280.275 232.959H463.142C464.544 232.959 465.691 234.106 465.691 235.508V250.014C465.692 251.416 464.544 252.564 463.142 252.564Z" fill="#FFFCF9"/>
<path d="M253.615 254.587C259.635 254.587 264.516 249.266 264.516 242.702C264.516 236.138 259.635 230.816 253.615 230.816C247.595 230.816 242.715 236.138 242.715 242.702C242.715 249.266 247.595 254.587 253.615 254.587Z" fill="#FFFCF9"/>
<path d="M463.142 289.35H280.275C278.873 289.35 277.726 288.203 277.726 286.801V272.295C277.726 270.893 278.873 269.746 280.275 269.746H463.142C464.544 269.746 465.691 270.893 465.691 272.295V286.801C465.692 288.203 464.544 289.35 463.142 289.35Z" fill="#FFFCF9"/>
<path d="M253.615 291.374C259.635 291.374 264.516 286.053 264.516 279.489C264.516 272.925 259.635 267.604 253.615 267.604C247.595 267.604 242.715 272.925 242.715 279.489C242.715 286.053 247.595 291.374 253.615 291.374Z" fill="#FFFCF9"/>
<path d="M463.142 326.138H280.275C278.873 326.138 277.726 324.991 277.726 323.589V309.083C277.726 307.681 278.873 306.534 280.275 306.534H463.142C464.544 306.534 465.691 307.681 465.691 309.083V323.589C465.692 324.991 464.544 326.138 463.142 326.138Z" fill="#FFFCF9"/>
<path d="M253.615 328.162C259.635 328.162 264.516 322.841 264.516 316.277C264.516 309.713 259.635 304.392 253.615 304.392C247.595 304.392 242.715 309.713 242.715 316.277C242.715 322.841 247.595 328.162 253.615 328.162Z" fill="#FFFCF9"/>
<path d="M463.142 362.926H280.275C278.873 362.926 277.726 361.778 277.726 360.376V345.871C277.726 344.469 278.873 343.321 280.275 343.321H463.142C464.544 343.321 465.691 344.468 465.691 345.871V360.376C465.692 361.779 464.544 362.926 463.142 362.926Z" fill="#FFFCF9"/>
<path d="M253.615 364.949C259.635 364.949 264.516 359.628 264.516 353.064C264.516 346.5 259.635 341.179 253.615 341.179C247.595 341.179 242.715 346.5 242.715 353.064C242.715 359.628 247.595 364.949 253.615 364.949Z" fill="#FFFCF9"/>
</g>
<path d="M339.831 291.321L329.631 294.834L313.617 248.338C307.328 230.076 313.963 210.527 329.052 202.866L348.908 192.784C357.454 188.445 367.593 188.553 376.725 193.08C385.856 197.608 393.136 206.137 396.698 216.481L409.343 253.193C410.081 255.336 409.161 257.595 407.288 258.24L400.479 260.585L386.499 219.994C384.086 212.987 379.154 207.21 372.969 204.143C366.784 201.076 359.916 201.003 354.128 203.943L334.272 214.024C324.039 219.22 319.551 232.44 323.817 244.825L339.831 291.321Z" fill="#FFFCF9"/>
<path d="M315.15 280.69L409.713 275.451C413.554 275.238 416.785 278.295 416.785 282.142V357.056C416.785 360.757 413.785 363.757 410.084 363.757H317.792C314.177 363.757 311.213 360.888 311.095 357.274L308.823 287.599C308.704 283.959 311.514 280.891 315.15 280.69Z" fill="#FFFCF9"/>
<path d="M378.218 342.296L372.494 325.841C371.806 323.862 372.275 321.65 373.746 320.159C376.679 317.187 378.427 313.043 378.22 308.492C377.855 300.465 371.298 293.957 363.268 293.649C354.383 293.307 347.072 300.409 347.072 309.219C347.072 314.106 349.323 318.466 352.845 321.322C354.671 322.803 355.421 325.238 354.649 327.459L349.488 342.295C348.233 345.904 350.912 349.672 354.733 349.672H372.973C376.793 349.672 379.473 345.904 378.218 342.296Z" fill="#1A1A1A"/>
<path opacity="0.34" d="M269.226 92.0387C95.4334 49.6475 -32.5511 167.103 59.8999 329.608H174.073C94.4749 246.28 185.454 158.583 264.516 113.434L269.226 92.0387Z" fill="white"/>
<path d="M203.678 142.64C214.884 131.434 214.884 113.265 203.678 102.059C192.471 90.8527 174.303 90.8527 163.096 102.059C151.89 113.265 151.89 131.434 163.096 142.64C174.303 153.847 192.471 153.847 203.678 142.64Z" fill="#1A1A1A"/>
<g opacity="0.9">
<path d="M183.786 141.16C173.422 141.16 164.99 132.729 164.99 122.365C164.99 112.001 173.422 103.569 183.786 103.569C194.15 103.569 202.581 112.001 202.581 122.365C202.581 132.729 194.15 141.16 183.786 141.16ZM183.786 106.719C175.159 106.719 168.14 113.738 168.14 122.365C168.14 130.992 175.159 138.011 183.786 138.011C192.413 138.011 199.432 130.992 199.432 122.365C199.432 113.738 192.413 106.719 183.786 106.719Z" fill="#F3E0C8"/>
<path fill-rule="evenodd" clip-rule="evenodd" d="M177.896 129.603V116.09C177.896 114.646 179.468 113.751 180.71 114.488L192.096 121.244C193.312 121.966 193.312 123.727 192.096 124.448L180.71 131.205C179.468 131.942 177.896 131.047 177.896 129.603Z" fill="#F3E0C8"/>
</g>
<path d="M85.1742 253.168C99.7539 238.588 99.754 214.95 85.1743 200.37C70.5946 185.791 46.9562 185.791 32.3765 200.371C17.7968 214.95 17.7967 238.589 32.3764 253.168C46.956 267.748 70.5944 267.748 85.1742 253.168Z" fill="#1A1A1A"/>
<path d="M83.2744 247.417C83.2744 248.159 82.6725 248.761 81.9302 248.761H35.4877C34.7454 248.761 34.1436 248.159 34.1436 247.417V208.437C34.1436 207.695 34.7454 207.093 35.4877 207.093H81.9302C82.6725 207.093 83.2744 207.695 83.2744 208.437V247.417ZM37.253 245.029H80.7867V209.581H37.253V245.029Z" fill="#F3E0C8"/>
<path d="M71.0981 220.695C70.7294 220.216 70.1449 219.934 69.541 219.931C68.937 219.927 68.357 220.201 67.9823 220.675L58.0896 233.166C57.7491 233.596 57.2423 233.863 56.6957 233.904C56.1488 233.945 55.609 233.755 55.2084 233.381L47.6655 226.325C46.9202 225.627 45.6618 225.618 44.9053 226.304L35.3877 234.836V246.895H82.031V234.836L71.0981 220.695Z" fill="#F3E0C8"/>
<path d="M51.5567 219.999C53.4158 218.14 53.4158 215.126 51.5567 213.267C49.6976 211.407 46.6834 211.407 44.8242 213.267C42.9651 215.126 42.9651 218.14 44.8243 219.999C46.6834 221.858 49.6976 221.858 51.5567 219.999Z" fill="#F3E0C8"/>
<path d="M138.18 194.061C150.687 181.553 150.687 161.275 138.18 148.767C125.672 136.26 105.394 136.26 92.8861 148.767C80.3786 161.275 80.3786 181.553 92.886 194.061C105.393 206.568 125.672 206.568 138.18 194.061Z" fill="#1A1A1A"/>
<path d="M115.648 196.981C113.525 196.981 111.6 195.896 110.501 194.079C104.302 183.839 96.9131 170.351 96.9131 164.252C96.9131 154.72 105.318 146.965 115.648 146.965C125.979 146.965 134.383 154.72 134.383 164.252C134.383 170.352 126.994 183.839 120.796 194.08C119.696 195.896 117.771 196.981 115.648 196.981ZM115.648 149.363C106.64 149.363 99.3107 156.042 99.3107 164.252C99.3107 168.517 104.137 178.936 112.552 192.838C113.213 193.931 114.371 194.584 115.648 194.584C116.925 194.584 118.083 193.931 118.744 192.838C127.159 178.937 131.985 168.517 131.985 164.252C131.985 156.042 124.656 149.363 115.648 149.363Z" fill="#F3E0C8"/>
<path d="M114.195 176.321C107.79 176.321 102.579 171.111 102.579 164.706C102.579 164.044 103.116 163.507 103.778 163.507C104.44 163.507 104.977 164.044 104.977 164.706C104.977 169.789 109.112 173.924 114.195 173.924C119.278 173.924 123.413 169.789 123.413 164.706C123.413 159.623 119.278 155.487 114.195 155.487C111.256 155.487 108.561 156.84 106.801 159.2C106.405 159.731 105.654 159.84 105.123 159.444C104.592 159.048 104.483 158.297 104.879 157.767C107.063 154.838 110.546 153.09 114.195 153.09C120.6 153.09 125.811 158.301 125.811 164.706C125.811 171.111 120.6 176.321 114.195 176.321Z" fill="#F3E0C8"/>
<path d="M125.182 408.998H117.407V493.074H125.182V408.998Z" fill="#FFFCF9"/>
<path d="M87.248 494.695H155.341V491.622C155.341 490.524 154.452 489.635 153.354 489.635H89.3893C88.2067 489.635 87.248 490.593 87.248 491.776V494.695Z" fill="#FFFCF9"/>
<path d="M74.3711 405.897C74.3711 410.784 78.3694 414.783 83.2563 414.783H156.472C161.359 414.783 165.358 410.784 165.358 405.897V397.863C165.358 392.976 161.359 388.978 156.472 388.978H83.2565C78.3696 388.978 74.3713 392.976 74.3713 397.863L74.3711 405.897Z" fill="#FFFCF9"/>
<path d="M164.596 478.179C164.596 478.179 186.797 494.181 182.942 504.932C182.942 504.932 158.652 494.452 155.717 486.196C152.783 477.941 156.214 474.295 156.214 474.295L164.596 478.179Z" fill="#1A1A1A"/>
<path d="M161.261 464.769L157.631 475.263C157.083 476.847 157.631 478.65 159.048 479.545C159.757 479.993 160.727 480.408 162.052 480.708C163.922 481.132 165.852 480.268 166.751 478.575L171.094 470.398L161.261 464.769Z" fill="url(#paint0_linear_848_4336)"/>
<path d="M125.934 370.312C125.934 370.312 171.533 378.214 191.093 396.284C210.653 414.353 173.14 471.991 173.14 471.991C173.14 471.991 166.993 471.954 159.545 465.569C159.545 465.569 181.788 422.22 162.619 409.578C141.068 395.366 116.231 392.165 116.231 392.165L125.493 371.705L125.934 370.312Z" fill="#1A1A1A"/>
<path d="M179.085 498.986C174.202 496.726 160.378 487.051 158.048 486.623C155.718 486.197 151.676 488.935 151.676 488.935C151.676 488.935 150.693 490.703 151.744 493.787C154.989 497.713 162.193 505.197 171.878 507.986C179.003 510.037 183.986 508.125 187.089 505.887C185.382 503.287 182.337 500.492 179.085 498.986Z" fill="#1A1A1A"/>
<path d="M171.878 507.986C162.193 505.197 154.989 497.713 151.744 493.787C152.455 495.871 154.093 498.555 157.595 501.702C166.278 509.507 182.863 512.32 186.394 511.778C189.224 511.344 188.957 508.732 187.089 505.887C183.986 508.125 179.002 510.038 171.878 507.986Z" fill="#1A1A1A"/>
<path d="M147.535 482.105C147.59 483.45 150.34 488.064 151.947 490.652C152.71 491.882 154.048 492.634 155.496 492.638C156.414 492.64 157.47 492.56 158.429 492.285C159.868 491.872 160.676 490.339 160.255 488.902L157.115 478.18L147.535 482.105Z" fill="url(#paint1_linear_848_4336)"/>
<path d="M82.0408 356.624C82.0408 356.624 71.9141 383.702 82.0408 391.937C92.1674 400.171 116.325 409.442 121.722 425.843C127.119 442.245 136.277 474.12 148.533 485.409C148.533 485.409 157.144 484.575 160.366 481.144C160.366 481.144 153.386 433.559 148.782 421.349C144.796 410.775 138.922 395.513 127.665 386.983C124.443 384.541 125.004 380.673 126.498 376.916L129.219 370.075L82.0408 356.624Z" fill="#1A1A1A"/>
<path d="M187.656 335.402C170.677 336.425 175.968 309.299 176.274 308.22L150.503 326.422C150.503 326.422 151.867 340.929 173.293 348.538C178.714 350.463 183.669 350.548 188.049 349.607C186.181 344.16 186.561 339.272 187.656 335.402Z" fill="#1A1A1A"/>
<path d="M220.489 327.237C214.161 322.836 206.993 327.237 206.993 327.237C198.533 332.77 192.274 335.124 187.657 335.402C186.562 339.272 186.182 344.16 188.05 349.607C197.527 347.57 204.308 340.711 207.254 337.192C208.315 335.924 210.193 335.704 211.49 336.728C212.808 337.768 214.087 339.193 213.856 340.692C213.398 343.649 216.829 344.589 217.088 343.517C217.346 342.444 215.914 336.087 215.914 336.087C215.914 336.087 222.776 342.988 225.455 345.64C228.133 348.291 231.502 345.64 231.502 345.64C231.502 345.64 226.816 331.639 220.489 327.237Z" fill="url(#paint2_linear_848_4336)"/>
<path d="M108.484 266.327C108.484 266.327 133.186 256.437 179.158 294.39C179.158 294.39 182.998 302.338 178.809 309.413C174.62 316.488 134.706 350.959 129.22 370.076C129.22 370.076 105.441 377.803 80.8486 359.48C80.8486 359.48 83.0188 306.277 108.484 266.327Z" fill="#1A1A1A"/>
<path d="M159.79 254.404L145.157 272.242C143.95 273.705 143.684 275.741 144.519 277.445C146.207 280.888 150.212 285.9 159.094 285.207C161.736 285.001 164.076 283.407 165.23 281.021L173.733 263.444L159.79 254.404Z" fill="url(#paint3_linear_848_4336)"/>
<path d="M89.3589 329.463C86.4911 317.784 115.538 291.747 115.538 291.747L108.484 266.326C108.484 266.326 45.7624 308.08 61.7463 341.658C64.0377 346.472 67.0809 349.843 70.6093 352.098C75.6596 338.503 83.7084 332.269 89.3589 329.463Z" fill="#1A1A1A"/>
<path d="M89.338 327.763C89.0298 327.763 88.7491 327.554 88.6722 327.241C85.7398 315.3 113.862 289.926 115.06 288.851C115.341 288.599 115.775 288.621 116.029 288.903C116.282 289.186 116.258 289.62 115.977 289.873C115.689 290.13 87.2676 315.767 90.0051 326.914C90.0954 327.282 89.8701 327.654 89.502 327.744C89.4479 327.757 89.3925 327.763 89.338 327.763Z" fill="#1A1A1A"/>
<path d="M133.354 328.458C133.354 328.458 98.9156 341.829 90.5093 331.772C89.9393 331.09 89.5676 330.313 89.3589 329.463C83.7084 332.269 75.6597 338.504 70.6094 352.098C88.722 363.672 119.682 345.66 128.053 340.349C129.43 339.476 131.082 339.17 132.679 339.501C135.908 340.17 141.485 341.155 144.494 340.691C148.895 340.013 155.216 355.537 162.348 350.749C162.348 350.749 156.241 323.765 133.354 328.458Z" fill="url(#paint4_linear_848_4336)"/>
<path d="M183.777 235.847C183.9 236.321 180.927 268.546 180.927 268.546L162.563 266.458L160.843 235.496C160.843 235.496 181.729 227.913 183.777 235.847Z" fill="url(#paint5_linear_848_4336)"/>
<path d="M165.625 241.913L165.254 258.282C165.249 258.492 165.272 258.696 165.324 258.9C165.644 260.145 167.057 264.347 171.268 262.639C175.09 261.089 178.6 259.731 181.182 260.221C182.341 260.441 183.142 261.503 183.034 262.677C182.763 265.605 182.03 272.192 180.521 277.817C180.215 278.958 179.079 279.665 177.915 279.459C174.408 278.842 167.047 277.332 161.411 274.73C160.647 274.377 160.134 273.645 160.078 272.806C159.803 268.714 158.92 256.28 158.138 252.853C157.405 249.637 153.192 248.124 151.378 247.615C150.784 247.448 150.288 247.048 149.998 246.503C148.972 244.575 147.351 240.032 153.02 237.476C154.206 236.941 154.709 235.543 154.138 234.374C153.001 232.045 152.228 228.387 156.552 225.849C160.947 223.271 164.67 225.356 166.753 227.154C167.596 227.881 168.819 227.871 169.689 227.178C170.184 226.783 170.858 226.598 171.743 227.023C172.936 227.596 174.363 226.959 174.809 225.714C175.667 223.32 177.655 220.639 182.266 220.917C190.446 221.411 192.332 230.21 190.786 235.656C189.24 241.103 180.401 240.063 175.788 237.909C172.281 236.271 168.245 238.834 166.512 240.157C165.963 240.576 165.641 241.222 165.625 241.913Z" fill="#1A1A1A"/>
<path d="M158.884 259.044C158.884 259.044 160.35 249.209 156.71 247.317C153.07 245.425 148.176 247.152 150.017 253.727C152.307 261.906 158.884 259.044 158.884 259.044Z" fill="url(#paint6_linear_848_4336)"/>
<path d="M183.249 237.559C184.005 237.399 184.726 237.17 185.42 236.91C186.109 236.637 186.766 236.308 187.343 235.879C187.939 235.469 188.404 234.912 188.786 234.302C189.188 233.691 189.391 232.972 189.614 232.228C189.647 232.989 189.606 233.813 189.242 234.539C188.916 235.271 188.394 235.938 187.734 236.407C186.419 237.349 184.786 237.731 183.249 237.559Z" fill="white"/>
<path d="M150.997 354.826C151.052 354.829 151.107 354.83 151.163 354.83L223.42 354.751C225.206 354.749 226.652 353.3 226.651 351.514C226.649 349.727 225.194 348.251 223.413 348.283L151.156 348.362C149.369 348.363 147.923 349.813 147.925 351.599C147.927 353.329 149.288 354.742 150.997 354.826Z" fill="#1A1A1A"/>
<path d="M288.376 289.221H228.201C223.761 289.221 219.721 291.783 217.827 295.798L190.008 354.787H264.79C267.651 354.787 270.222 353.039 271.273 350.378L292.846 295.793C294.092 292.639 291.768 289.221 288.376 289.221Z" fill="#1A1A1A"/>
<path d="M278.621 509.803C279.022 509.803 279.428 509.726 279.82 509.563C281.36 508.921 282.072 507.192 281.409 505.701L217.728 362.381C217.066 360.89 215.281 360.202 213.739 360.842C212.198 361.484 211.487 363.213 212.149 364.704L275.83 508.024C276.325 509.137 277.445 509.803 278.621 509.803Z" fill="#1A1A1A"/>
<path d="M206.881 509.803C208.058 509.803 209.178 509.137 209.672 508.024L273.353 364.704C274.016 363.212 273.304 361.483 271.764 360.842C270.225 360.2 268.438 360.889 267.775 362.38L204.094 505.7C203.431 507.192 204.143 508.921 205.683 509.563C206.074 509.725 206.481 509.803 206.881 509.803Z" fill="#1A1A1A"/>
<path d="M81.4992 509.803C81.8996 509.803 82.3061 509.726 82.6976 509.563C84.238 508.921 84.9498 507.192 84.287 505.701L20.6057 362.381C19.943 360.89 18.1589 360.202 16.6165 360.842C15.0761 361.484 14.3645 363.213 15.0273 364.704L78.7084 508.024C79.2028 509.137 80.3226 509.803 81.4992 509.803Z" fill="#1A1A1A"/>
<path d="M9.75958 509.803C10.9364 509.803 12.056 509.137 12.5502 508.024L76.2313 364.704C76.8941 363.212 76.1823 361.483 74.6421 360.842C73.1027 360.2 71.316 360.889 70.6528 362.38L6.97156 505.7C6.30881 507.192 7.02057 508.921 8.56094 509.563C8.95226 509.725 9.35922 509.803 9.75958 509.803Z" fill="#1A1A1A"/>
<path d="M2.29146 357.956C2.12898 357.016 2.35009 356.044 2.89446 355.305C3.43864 354.567 4.24917 354.139 5.10437 354.139H294.808C295.932 354.139 296.98 354.78 297.585 355.841C298.191 356.902 298.273 358.235 297.801 359.378L294.662 366.986C293.943 368.728 292.385 369.843 290.671 369.843H7.09223C5.49794 369.843 4.12722 368.577 3.82449 366.825L2.29146 357.956Z" fill="#1A1A1A"/>
<path d="M151.744 284.427C151.744 284.427 147.76 269.495 149.188 266.837C150.615 264.178 151.744 263.738 151.744 263.738C151.744 263.738 140.228 255 132.161 259.388C124.094 263.775 125.505 266.397 127.522 269.422C129.539 272.447 148.939 285.213 151.744 284.427Z" fill="#1A1A1A"/>
<path d="M151.743 284.426C151.743 284.426 163.22 287.733 166.85 284.426C170.48 281.119 166.262 278.001 166.262 278.001C166.262 278.001 156.487 286.044 151.743 284.426Z" fill="#1A1A1A"/>
<path d="M264.15 319.306H246.264C245.065 314.616 240.813 311.149 235.75 311.149C229.756 311.149 224.897 316.008 224.897 322.002C224.897 327.996 229.756 332.854 235.75 332.854C241.052 332.854 245.463 329.051 246.411 324.024H251.523V326.754C251.523 327.778 252.353 328.608 253.377 328.608H253.444C254.468 328.608 255.298 327.778 255.298 326.754V324.024H260.016V328.237C260.016 329.261 260.846 330.091 261.87 330.091H261.937C262.961 330.091 263.791 329.261 263.791 328.237V324.024H264.15C265.441 324.024 266.487 322.978 266.487 321.687V321.643C266.487 320.352 265.441 319.306 264.15 319.306ZM235.75 328.698C232.052 328.698 229.054 325.7 229.054 322.002C229.054 318.304 232.052 315.306 235.75 315.306C239.448 315.306 242.446 318.304 242.446 322.002C242.446 325.7 239.448 328.698 235.75 328.698Z" fill="white"/>
<path d="M305.833 178.538C341.789 178.538 370.937 149.39 370.937 113.434C370.937 77.4782 341.789 48.3301 305.833 48.3301C269.877 48.3301 240.729 77.4782 240.729 113.434C240.729 149.39 269.877 178.538 305.833 178.538Z" fill="white"/>
<mask id="mask0_848_4336" style="mask-type:luminance" maskUnits="userSpaceOnUse" x="247" y="55" width="117" height="117">
<path d="M305.835 171.415C337.856 171.415 363.815 145.456 363.815 113.434C363.815 81.4128 337.856 55.4541 305.835 55.4541C273.813 55.4541 247.854 81.4128 247.854 113.434C247.854 145.456 273.813 171.415 305.835 171.415Z" fill="white"/>
</mask>
<g mask="url(#mask0_848_4336)">
<path d="M292.151 75.5193C292.151 75.5193 290.142 83.9751 284.732 79.3095C279.321 74.6437 272.631 67.7424 265.066 73.6709C257.501 79.5994 266.475 84.5084 266.475 84.5084C266.475 84.5084 263.027 82.7437 260.431 85.5298C259.685 86.3306 258.493 86.478 257.605 85.839C256.767 85.2362 255.609 84.9136 254.212 85.8197C253.113 86.5326 250.053 93.4722 252.85 105.777C254.515 113.105 259.358 134.213 275.935 138.223C286.758 140.842 296.001 134.575 296.813 134.007C305.892 127.647 307.621 117.919 307.904 116.148C307.397 114.196 305.01 104.225 310.796 96.126C312.111 94.2848 315.944 89.5314 321.857 88.6481C323.129 88.4581 324.454 88.7097 326.299 89.3071C326.299 89.3071 327.854 98.0063 333.604 97.6826C333.604 97.6826 333.037 95.4957 335.273 94.2162C337.415 92.9899 342.533 86.7053 333.846 81.1504C333.156 80.7093 332.796 79.9093 332.868 79.0941C333.104 76.4636 332.511 70.4401 323.627 65.494C312.337 59.2087 304.514 60.4599 300.332 66.7043C300.029 67.1571 299.552 67.4636 299.019 67.5757C297.225 67.9542 293.119 69.4756 292.151 75.5193Z" fill="#1A1A1A"/>
<path d="M302.578 119.721L306.54 139.901L326.61 138.1L322.726 116.849L302.578 119.721Z" fill="#F3E0C8"/>
<path d="M333.04 88.7754C333.04 88.7754 337.327 88.7754 338.041 95.2053C338.755 101.635 330.897 104.493 330.897 104.493L326.61 103.778L328.754 90.2044L333.04 88.7754Z" fill="#1A1A1A"/>
<path d="M295.292 102.945C295.292 102.945 298.109 124.62 310.745 128.347C323.38 132.073 329.019 112.408 329.828 111.031C329.828 111.031 332.582 112.651 333.49 109.848C334.397 107.046 338.447 100.162 332.032 99.7237C332.032 99.7237 333.944 92.6932 332.049 88.9835C330.154 85.2737 326.461 76.4286 317.049 77.9345C307.637 79.4406 296.022 92.2536 295.292 102.945Z" fill="#F3E0C8"/>
<path d="M331.087 79.3159C330.376 78.9104 329.975 78.1299 330.006 77.3118C330.107 74.6727 329.21 68.687 320.086 64.1986C308.491 58.4948 300.742 60.1417 296.883 66.5904C296.603 67.0579 296.142 67.3883 295.615 67.5276C293.843 67.9968 289.82 69.7247 289.16 75.8097C289.16 75.8097 288.445 79.6674 286.265 80.8675C291.483 85.2048 293.798 100.416 293.904 100.62C295.538 101.017 301.563 101.874 308.826 95.4431C317.535 87.734 318.274 86.3177 323.963 87.8454C323.963 87.8454 328.069 96.4213 333.796 95.8061C333.796 95.8061 332.287 94.0344 334.455 92.6432C336.533 91.3094 340.045 84.4222 331.087 79.3159Z" fill="#1A1A1A"/>
<path d="M296.668 103.755C296.668 103.755 296.96 99.4784 293.347 99.9482C289.735 100.418 293.338 111.115 296.663 109.339L296.668 103.755Z" fill="#F3E0C8"/>
<path d="M305.087 132.498L291.714 137.5L308.263 155.659L338.035 136.714C335.687 135.837 334.207 134.13 331.951 133.525C329.729 132.929 327.554 132.366 325.43 131.641L305.087 132.498Z" fill="#F3E0C8"/>
<path d="M283.067 183.32C284.779 178.573 286.099 175.928 286.099 175.928L274.523 146.433C274.523 146.433 269.033 157.672 264.523 172.677C262.93 177.979 266.892 183.32 272.429 183.32L283.067 183.32Z" fill="#1A1A1A"/>
<path d="M363.206 173.109C360.564 157.845 356.355 147.2 356.355 147.2L340.831 169.457C342.979 174.246 344.598 178.912 345.774 183.32H354.628C360.038 183.32 364.129 178.44 363.206 173.109Z" fill="#F3E0C8"/>
<path d="M345.423 183.319L356.302 148.149C357.61 146.113 347.405 137.432 330.302 132.771C328.446 141.808 299.847 141.336 299.566 134.571C286.427 139.29 274.583 142.894 273.622 148.362C274.095 158.796 276.773 170.435 280.296 183.319L345.423 183.319Z" fill="#1A1A1A"/>
</g>
<defs>
<linearGradient id="paint0_linear_848_4336" x1="157.422" y1="472.792" x2="171.093" y2="472.792" gradientUnits="userSpaceOnUse">
<stop stop-color="#FEBBBA"/>
<stop offset="1" stop-color="#FF928E"/>
</linearGradient>
<linearGradient id="paint1_linear_848_4336" x1="147.535" y1="485.409" x2="160.366" y2="485.409" gradientUnits="userSpaceOnUse">
<stop stop-color="#FEBBBA"/>
<stop offset="1" stop-color="#FF928E"/>
</linearGradient>
<linearGradient id="paint2_linear_848_4336" x1="186.742" y1="337.444" x2="231.502" y2="337.444" gradientUnits="userSpaceOnUse">
<stop stop-color="#FEBBBA"/>
<stop offset="1" stop-color="#FF928E"/>
</linearGradient>
<linearGradient id="paint3_linear_848_4336" x1="144.035" y1="269.838" x2="173.733" y2="269.838" gradientUnits="userSpaceOnUse">
<stop stop-color="#FEBBBA"/>
<stop offset="1" stop-color="#FF928E"/>
</linearGradient>
<linearGradient id="paint4_linear_848_4336" x1="123.783" y1="337.982" x2="10.0853" y2="535.556" gradientUnits="userSpaceOnUse">
<stop stop-color="#FEBBBA"/>
<stop offset="1" stop-color="#FF928E"/>
</linearGradient>
<linearGradient id="paint5_linear_848_4336" x1="176.777" y1="237.876" x2="153.102" y2="294.711" gradientUnits="userSpaceOnUse">
<stop stop-color="#FEBBBA"/>
<stop offset="1" stop-color="#FF928E"/>
</linearGradient>
<linearGradient id="paint6_linear_848_4336" x1="134.322" y1="289.127" x2="155.416" y2="252.286" gradientUnits="userSpaceOnUse">
<stop stop-color="#FEBBBA"/>
<stop offset="1" stop-color="#FF928E"/>
</linearGradient>
</defs>
</svg>
