<svg width="515" height="455" viewBox="0 0 515 455" fill="none" xmlns="http://www.w3.org/2000/svg">
<path d="M254.234 454.295C394.644 454.295 508.468 447.093 508.468 438.21C508.468 429.326 394.644 422.124 254.234 422.124C113.824 422.124 0 429.326 0 438.21C0 447.093 113.824 454.295 254.234 454.295Z" fill="#F3E0C8"/>
<path d="M155.952 48.1438C155.952 49.3457 155.463 50.4408 154.665 51.2336C153.877 52.0311 152.782 52.5217 151.58 52.5217H57.9963C55.5925 52.5217 53.623 50.5522 53.623 48.1438C53.623 46.9419 54.1125 45.8469 54.9111 45.054C55.6982 44.2554 56.7944 43.7659 57.9963 43.7659H62.4191C64.1656 39.7063 68.1999 36.8693 72.8961 36.8693C76.0572 36.8693 78.9149 38.1562 80.9855 40.2314C83.7421 35.5559 88.8266 32.4156 94.6489 32.4156C96.2495 32.4156 97.7892 32.658 99.2439 33.097C102.289 27.3712 108.308 23.4736 115.246 23.4736C123.577 23.4736 130.586 29.0983 132.701 36.7533C134.236 35.9857 135.968 35.5467 137.806 35.5467C143.002 35.5467 147.385 39.0157 148.764 43.7671H151.581C153.983 43.7659 155.952 45.7354 155.952 48.1438Z" fill="white"/>
<path d="M514.999 106.297C514.999 107.498 514.51 108.593 513.711 109.386C512.923 110.184 511.828 110.674 510.626 110.674H417.042C414.638 110.674 412.669 108.705 412.669 106.297C412.669 105.095 413.158 104 413.957 103.207C414.744 102.409 415.84 101.919 417.042 101.919H421.465C423.212 97.859 427.246 95.0209 431.942 95.0209C435.103 95.0209 437.961 96.3078 440.031 98.383C442.788 93.7075 447.873 90.5671 453.695 90.5671C455.295 90.5671 456.835 90.8096 458.29 91.2485C461.335 85.5228 467.354 81.624 474.292 81.624C482.623 81.624 489.631 87.2486 491.747 94.9036C493.282 94.1361 495.014 93.6971 496.852 93.6971C502.048 93.6971 506.431 97.1661 507.81 101.917H510.627C513.03 101.919 514.999 103.888 514.999 106.297Z" fill="white"/>
<path d="M343.122 59.1359C343.122 60.3378 342.632 61.434 341.834 62.2257C341.046 63.0243 339.951 63.5138 338.749 63.5138H245.165C242.761 63.5138 240.793 61.5443 240.793 59.1359C240.793 57.934 241.282 56.8389 242.081 56.0461C242.868 55.2475 243.964 54.758 245.166 54.758H249.59C251.337 50.6984 255.371 47.8602 260.067 47.8602C263.228 47.8602 266.086 49.1471 268.157 51.2223C270.913 46.5468 275.998 43.4065 281.82 43.4065C283.421 43.4065 284.96 43.6489 286.415 44.0879C289.46 38.3621 295.479 34.4634 302.417 34.4634C310.749 34.4634 317.757 40.0891 319.872 47.743C321.407 46.9754 323.139 46.5365 324.977 46.5365C330.173 46.5365 334.556 50.0055 335.935 54.7568H338.752C341.153 54.758 343.122 56.7275 343.122 59.1359Z" fill="white"/>
<path d="M43.5315 162.248C47.3268 175.006 60.0687 174.608 59.7975 184.966C59.5263 195.321 66.0346 203.184 74.9788 201.287C83.9265 199.388 90.4037 197.491 94.4863 207.793C98.5655 218.096 111.58 223.246 116.73 215.111C118.013 213.088 119.399 210.894 120.754 208.741C121.124 208.153 121.494 207.568 121.857 206.991C121.942 206.858 122.027 206.725 122.11 206.591C127.563 197.933 125.762 186.46 117.723 180.131C114.467 177.57 110.574 176.13 106.158 177.429C92.3318 181.495 97.3141 167.589 89.0766 161.706C79.5888 154.926 71.4501 162.6 64.9499 156.825C55.9068 148.794 39.7373 149.49 43.5315 162.248Z" fill="#FFFCF9"/>
<path d="M60.0263 167.764L120.753 208.742C121.123 208.154 121.493 207.569 121.856 206.992L61.1845 166.05C60.7111 165.731 60.0677 165.855 59.7494 166.328C59.4288 166.801 59.5529 167.444 60.0263 167.764Z" fill="#FFFCF9"/>
<path d="M343.945 100.793C358.243 94.8367 370.684 86.5612 363.781 81.6031C356.873 76.6391 335.735 91.285 325.952 108.538L321.22 113.611C328.57 101.162 330.721 83.1761 324.363 79.7611C318.045 76.3668 317.701 88.4687 319.229 99.5754C320.393 108.029 319.216 113.831 318.328 116.712L295.981 140.674C307.563 120.926 310.929 92.534 300.869 87.13C290.845 81.7444 290.298 100.947 292.723 118.569C294.555 131.887 292.729 141.061 291.324 145.666L286.868 150.444C287.575 151.346 288.287 152.245 289.005 153.139L315.591 124.632C318.773 123.826 323.37 123.164 329.359 123.567C340.545 124.318 352.593 123.131 348.768 117.065C345.448 111.801 331.759 113.603 320.418 119.456L329.612 109.597C332.977 107.034 337.774 103.364 343.945 100.793Z" fill="white"/>
<path d="M59.5961 110.751C58.1011 123.089 69.1619 127.486 65.0782 136.256C60.9956 145.023 63.6442 154.177 72.0104 155.878C80.379 157.579 86.6322 158.362 86.2966 168.703C85.9588 179.043 95.188 188.293 102.624 183.242C104.476 181.986 106.477 180.622 108.439 179.283C108.974 178.917 109.509 178.553 110.034 178.194C110.157 178.111 110.279 178.028 110.399 177.946C118.289 172.559 121.013 162.063 116.481 153.653C114.646 150.25 111.847 147.568 107.583 147.039C94.2297 145.38 103.668 135.323 98.8018 127.222C93.1978 117.889 83.3746 121.433 79.955 114.07C75.1968 103.83 61.0898 98.4138 59.5961 110.751Z" fill="white"/>
<path d="M71.6725 121.609L108.44 179.284C108.975 178.918 109.51 178.555 110.035 178.195L73.3019 120.572C73.0158 120.123 72.4183 119.99 71.969 120.277C71.5186 120.562 71.3864 121.16 71.6725 121.609Z" fill="#FFFCF9"/>
<path d="M355.951 359.549C352.064 372.617 339.011 372.211 339.29 382.821C339.568 393.428 332.901 401.483 323.738 399.538C314.573 397.593 307.938 395.649 303.756 406.202C299.577 416.755 286.248 422.03 280.972 413.698C279.656 411.625 278.238 409.378 276.849 407.174C276.47 406.572 276.092 405.972 275.719 405.381C275.632 405.245 275.545 405.108 275.461 404.972C269.875 396.104 271.719 384.35 279.955 377.868C283.289 375.245 287.276 373.77 291.799 375.102C305.962 379.267 300.858 365.021 309.296 358.995C319.013 352.052 327.35 359.911 334.01 353.995C343.274 345.767 359.838 346.48 355.951 359.549Z" fill="#FFFCF9"/>
<path d="M339.055 365.198L276.851 407.173C276.472 406.571 276.094 405.971 275.722 405.38L337.868 363.443C338.353 363.116 339.012 363.243 339.339 363.728C339.667 364.212 339.54 364.872 339.055 365.198Z" fill="#FFFCF9"/>
<path d="M333.388 311.294C334.919 323.932 323.59 328.436 327.773 337.419C331.955 346.4 329.241 355.777 320.672 357.519C312.1 359.261 305.694 360.064 306.037 370.656C306.383 381.248 296.929 390.722 289.313 385.549C287.416 384.263 285.365 382.866 283.356 381.494C282.808 381.119 282.26 380.746 281.722 380.378C281.597 380.293 281.472 380.209 281.348 380.124C273.266 374.606 270.475 363.856 275.117 355.241C276.997 351.755 279.864 349.008 284.232 348.466C297.909 346.767 288.241 336.466 293.227 328.167C298.967 318.607 309.028 322.237 312.532 314.696C317.408 304.206 331.858 298.657 333.388 311.294Z" fill="white"/>
<path d="M321.02 322.416L283.359 381.495C282.81 381.12 282.262 380.747 281.725 380.379L319.352 321.354C319.645 320.894 320.257 320.758 320.717 321.051C321.177 321.344 321.314 321.955 321.02 322.416Z" fill="#FFFCF9"/>
<path d="M506.206 276.2C509.67 276.2 512.487 279.017 512.487 282.48C512.487 285.944 509.67 288.761 506.206 288.761C502.743 288.761 499.926 285.944 499.926 282.48C499.926 279.017 502.743 276.2 506.206 276.2ZM506.206 278.169C503.83 278.169 501.896 280.103 501.896 282.479C501.896 284.856 503.83 286.789 506.206 286.789C508.584 286.789 510.517 284.856 510.517 282.479C510.518 280.103 508.584 278.169 506.206 278.169Z" fill="#FF914C"/>
<path d="M499.816 244.277C503.279 244.277 506.097 247.094 506.097 250.558C506.097 254.021 503.279 256.838 499.816 256.838C496.353 256.838 493.535 254.021 493.535 250.558C493.534 247.095 496.353 244.277 499.816 244.277ZM499.816 246.247C497.438 246.247 495.506 248.181 495.506 250.558C495.506 252.934 497.44 254.868 499.816 254.868C502.193 254.868 504.126 252.934 504.126 250.558C504.126 248.181 502.192 246.247 499.816 246.247Z" fill="#FF914C"/>
<path d="M480.713 235.433C480.713 235.976 481.154 236.417 481.698 236.417H486.042C486.587 236.417 487.027 235.976 487.027 235.433C487.027 234.889 486.586 234.448 486.042 234.448H481.698C481.153 234.447 480.713 234.888 480.713 235.433Z" fill="#1A1A1A"/>
<path d="M473.109 235.433C473.109 235.976 473.551 236.417 474.094 236.417H478.439C478.983 236.417 479.423 235.976 479.423 235.433C479.423 234.889 478.982 234.448 478.439 234.448H474.094C473.551 234.447 473.109 234.888 473.109 235.433Z" fill="#1A1A1A"/>
<path d="M479.083 229.333V233.237C479.083 233.781 479.524 234.223 480.069 234.223C480.614 234.223 481.054 233.781 481.054 233.237V229.333C481.054 228.79 480.612 228.349 480.069 228.349C479.524 228.349 479.083 228.79 479.083 229.333Z" fill="#1A1A1A"/>
<path d="M479.083 237.628V241.532C479.083 242.075 479.524 242.516 480.069 242.516C480.614 242.516 481.054 242.075 481.054 241.532V237.628C481.054 237.084 480.612 236.644 480.069 236.644C479.524 236.642 479.083 237.084 479.083 237.628Z" fill="#1A1A1A"/>
<path d="M487.795 268.979C487.795 269.523 488.236 269.964 488.78 269.964H493.124C493.669 269.964 494.109 269.523 494.109 268.979C494.109 268.434 493.668 267.993 493.124 267.993H488.78C488.236 267.993 487.795 268.434 487.795 268.979Z" fill="#FF914C"/>
<path d="M480.191 268.979C480.191 269.523 480.633 269.964 481.177 269.964H485.522C486.067 269.964 486.508 269.523 486.508 268.979C486.508 268.434 486.067 267.993 485.522 267.993H481.177C480.633 267.993 480.191 268.434 480.191 268.979Z" fill="#FF914C"/>
<path d="M486.169 262.88V266.783C486.169 267.327 486.61 267.768 487.154 267.768C487.698 267.768 488.138 267.327 488.138 266.783V262.88C488.138 262.336 487.697 261.895 487.154 261.895C486.61 261.895 486.169 262.336 486.169 262.88Z" fill="#FF914C"/>
<path d="M486.169 271.174V275.077C486.169 275.621 486.61 276.062 487.154 276.062C487.698 276.062 488.138 275.621 488.138 275.077V271.174C488.138 270.63 487.697 270.189 487.154 270.189C486.61 270.189 486.169 270.63 486.169 271.174Z" fill="#FF914C"/>
<path d="M30.0624 124.224C30.0624 127.687 27.245 130.504 23.7817 130.504C20.3185 130.504 17.501 127.687 17.501 124.224C17.501 120.76 20.3185 117.943 23.7817 117.943C27.245 117.943 30.0624 120.76 30.0624 124.224ZM19.4716 124.224C19.4716 126.6 21.4055 128.534 23.7817 128.534C26.1591 128.534 28.0918 126.6 28.0918 124.224C28.0918 121.847 26.158 119.913 23.7817 119.913C21.4055 119.913 19.4716 121.846 19.4716 124.224Z" fill="#FF914C"/>
<path d="M36.4521 92.3017C36.4521 95.765 33.6346 98.5824 30.1714 98.5824C26.7081 98.5824 23.8906 95.765 23.8906 92.3017C23.8906 88.8385 26.7081 86.021 30.1714 86.021C33.6346 86.021 36.4521 88.8385 36.4521 92.3017ZM25.8613 92.3017C25.8613 94.678 27.7951 96.6118 30.1714 96.6118C32.5487 96.6118 34.4815 94.678 34.4815 92.3017C34.4815 89.9255 32.5476 87.9916 30.1714 87.9916C27.7951 87.9905 25.8613 89.9243 25.8613 92.3017Z" fill="#1A1A1A"/>
<path d="M49.275 77.1757C49.275 77.7192 48.8338 78.1604 48.2903 78.1604H43.9457C43.4022 78.1604 42.9609 77.7192 42.9609 77.1757C42.9609 76.631 43.4022 76.1909 43.9457 76.1909H48.2903C48.8338 76.1909 49.275 76.6322 49.275 77.1757Z" fill="#FF914C"/>
<path d="M56.8785 77.1757C56.8785 77.7192 56.4373 78.1604 55.8938 78.1604H51.5492C51.0045 78.1604 50.5645 77.7192 50.5645 77.1757C50.5645 76.631 51.0057 76.1909 51.5492 76.1909H55.8938C56.4373 76.1909 56.8785 76.6322 56.8785 77.1757Z" fill="#FF914C"/>
<path d="M50.908 71.0775V74.9809C50.908 75.5255 50.4667 75.9667 49.9232 75.9667C49.3786 75.9667 48.9385 75.5255 48.9385 74.9809V71.0775C48.9385 70.534 49.3797 70.0928 49.9232 70.0928C50.4667 70.0916 50.908 70.5329 50.908 71.0775Z" fill="#FF914C"/>
<path d="M50.908 79.3715V83.2748C50.908 83.8183 50.4667 84.2595 49.9232 84.2595C49.3786 84.2595 48.9385 83.8183 48.9385 83.2748V79.3715C48.9385 78.8268 49.3797 78.3867 49.9232 78.3867C50.4667 78.3867 50.908 78.8268 50.908 79.3715Z" fill="#FF914C"/>
<path d="M42.192 110.722C42.192 111.266 41.7507 111.707 41.2072 111.707H36.8627C36.318 111.707 35.8779 111.266 35.8779 110.722C35.8779 110.177 36.3192 109.737 36.8627 109.737H41.2072C41.7507 109.736 42.192 110.177 42.192 110.722Z" fill="#FF914C"/>
<path d="M49.7958 110.722C49.7958 111.266 49.3546 111.707 48.81 111.707H44.4654C43.9207 111.707 43.4795 111.266 43.4795 110.722C43.4795 110.177 43.9207 109.737 44.4654 109.737H48.81C49.3546 109.736 49.7958 110.177 49.7958 110.722Z" fill="#FF914C"/>
<path d="M43.821 104.623V108.526C43.821 109.07 43.3798 109.511 42.8363 109.511C42.2917 109.511 41.8516 109.07 41.8516 108.526V104.623C41.8516 104.079 42.2928 103.638 42.8363 103.638C43.3798 103.638 43.821 104.079 43.821 104.623Z" fill="#FF914C"/>
<path d="M43.821 112.918V116.821C43.821 117.365 43.3798 117.806 42.8363 117.806C42.2917 117.806 41.8516 117.365 41.8516 116.821V112.918C41.8516 112.374 42.2928 111.933 42.8363 111.933C43.3798 111.932 43.821 112.373 43.821 112.918Z" fill="#FF914C"/>
<path d="M414.498 126.221V142.074C414.498 144.17 416.199 145.869 418.293 145.869H447.079L455.77 148.988C456.663 149.309 457.516 148.431 457.174 147.548L453.886 139.059V126.221C453.886 124.125 452.186 122.425 450.089 122.425H418.293C416.198 122.425 414.498 124.125 414.498 126.221Z" fill="#FF914C"/>
<g opacity="0.5">
<path d="M439.507 134.598C439.507 136.115 440.736 137.345 442.253 137.345C443.77 137.345 444.999 136.115 444.999 134.598C444.999 133.082 443.77 131.852 442.253 131.852C440.736 131.853 439.507 133.082 439.507 134.598Z" fill="#FF914C"/>
<path d="M430.814 134.598C430.814 136.115 432.044 137.345 433.561 137.345C435.077 137.345 436.307 136.115 436.307 134.598C436.307 133.082 435.077 131.852 433.561 131.852C432.044 131.853 430.814 133.082 430.814 134.598Z" fill="#FF914C"/>
<path d="M422.123 134.598C422.123 136.115 423.353 137.345 424.869 137.345C426.386 137.345 427.616 136.115 427.616 134.598C427.616 133.082 426.386 131.852 424.869 131.852C423.353 131.852 422.123 133.082 422.123 134.598Z" fill="#FF914C"/>
</g>
<path d="M104.469 123.525V419.884C104.469 429.174 111.997 436.702 121.287 436.702H268.867C273.535 436.702 277.754 434.803 280.804 431.736C283.821 428.693 285.686 424.507 285.686 419.884V123.525C285.686 114.235 278.158 106.707 268.867 106.707H121.287C118.541 106.707 115.949 107.364 113.659 108.532C108.202 111.312 104.469 116.981 104.469 123.525Z" fill="#1A1A1A"/>
<path d="M110.735 123.525V419.884C110.735 429.174 118.264 436.702 127.554 436.702H275.134C279.801 436.702 284.021 434.803 287.069 431.736C290.087 428.693 291.953 424.507 291.953 419.884V123.525C291.953 114.235 284.424 106.707 275.134 106.707H127.554C124.808 106.707 122.216 107.364 119.925 108.532C114.469 111.312 110.735 116.981 110.735 123.525Z" fill="#1A1A1A"/>
<path d="M107.546 179.594H105.636C103.235 179.594 101.288 177.647 101.288 175.245V157.177C101.288 154.775 103.235 152.829 105.636 152.829H107.546V179.594Z" fill="#1A1A1A"/>
<path d="M107.546 214.597H105.636C103.235 214.597 101.288 212.65 101.288 210.249V192.18C101.288 189.779 103.235 187.832 105.636 187.832H107.546V214.597Z" fill="#1A1A1A"/>
<path d="M291.953 179.594H293.449C295.331 179.594 296.856 178.068 296.856 176.187V156.236C296.856 154.355 295.331 152.829 293.449 152.829H291.953V179.594Z" fill="#1A1A1A"/>
<path d="M283.563 122.506V420.898C283.563 421.927 283.354 422.906 282.974 423.796C281.843 426.454 279.217 428.306 276.155 428.306H126.539C122.452 428.306 119.131 424.997 119.131 420.897V122.506C119.131 122.092 119.162 121.685 119.231 121.288C119.648 118.768 121.345 116.675 123.628 115.686C124.105 115.485 124.601 115.33 125.12 115.233C125.577 115.141 126.054 115.095 126.539 115.095H276.155C280.245 115.095 283.563 118.415 283.563 122.506Z" fill="white"/>
<path d="M283.561 122.506V137.806H119.129V122.506C119.129 122.092 119.16 121.685 119.229 121.288C119.646 118.768 121.343 116.675 123.626 115.686C124.103 115.485 124.6 115.33 125.118 115.233C125.575 115.141 126.052 115.095 126.537 115.095H276.153C280.244 115.095 283.561 118.415 283.561 122.506Z" fill="white"/>
<path d="M257.6 115.086L249.97 126.695C247.842 129.933 244.227 131.884 240.352 131.884H166.616C162.74 131.884 159.125 129.934 156.997 126.695L149.367 115.086C149.367 113.883 150.351 112.897 151.557 112.897H255.411C256.614 112.897 257.6 113.884 257.6 115.086Z" fill="#1A1A1A"/>
<path opacity="0.3" d="M229.644 123.479H165.63C164.576 123.479 163.713 122.616 163.713 121.563V120.727C163.713 119.673 164.576 118.811 165.63 118.811H229.644C230.698 118.811 231.561 119.673 231.561 120.727V121.563C231.562 122.617 230.699 123.479 229.644 123.479Z" fill="white"/>
<path opacity="0.3" d="M243.946 120.99C243.946 122.537 242.692 123.792 241.144 123.792C239.596 123.792 238.343 122.538 238.343 120.99C238.343 119.444 239.596 118.189 241.144 118.189C242.692 118.189 243.946 119.443 243.946 120.99Z" fill="white"/>
<path d="M133.188 321.592C133.188 322.96 134.295 324.067 135.663 324.067H194.817C196.183 324.067 197.292 322.96 197.292 321.592C197.292 320.226 196.184 319.117 194.817 319.117H135.663C134.295 319.118 133.188 320.226 133.188 321.592Z" fill="#F3E0C8"/>
<path d="M208.22 321.592C208.22 322.96 209.327 324.067 210.695 324.067H269.85C271.217 324.067 272.325 322.96 272.325 321.592C272.325 320.226 271.218 319.117 269.85 319.117H210.695C209.327 319.118 208.22 320.226 208.22 321.592Z" fill="#F3E0C8"/>
<path d="M133.188 335.39C133.188 336.758 134.295 337.865 135.663 337.865H194.817C196.183 337.865 197.292 336.758 197.292 335.39C197.292 334.024 196.184 332.915 194.817 332.915H135.663C134.295 332.916 133.188 334.024 133.188 335.39Z" fill="#F3E0C8"/>
<path d="M208.22 335.39C208.22 336.758 209.327 337.865 210.695 337.865H269.85C271.217 337.865 272.325 336.758 272.325 335.39C272.325 334.024 271.218 332.915 269.85 332.915H210.695C209.327 332.916 208.22 334.024 208.22 335.39Z" fill="#F3E0C8"/>
<path d="M133.188 349.188C133.188 350.554 134.295 351.663 135.663 351.663H194.817C196.183 351.663 197.292 350.555 197.292 349.188C197.292 347.822 196.184 346.713 194.817 346.713H135.663C134.295 346.714 133.188 347.822 133.188 349.188Z" fill="#F3E0C8"/>
<path d="M208.22 349.188C208.22 350.554 209.327 351.663 210.695 351.663H269.85C271.217 351.663 272.325 350.555 272.325 349.188C272.325 347.822 271.218 346.713 269.85 346.713H210.695C209.327 346.714 208.22 347.822 208.22 349.188Z" fill="#F3E0C8"/>
<path d="M133.188 362.986C133.188 364.352 134.295 365.461 135.663 365.461H194.817C196.183 365.461 197.292 364.353 197.292 362.986C197.292 361.62 196.184 360.511 194.817 360.511H135.663C134.295 360.511 133.188 361.62 133.188 362.986Z" fill="#F3E0C8"/>
<path d="M208.22 362.986C208.22 364.352 209.327 365.461 210.695 365.461H269.85C271.217 365.461 272.325 364.353 272.325 362.986C272.325 361.62 271.218 360.511 269.85 360.511H210.695C209.327 360.511 208.22 361.62 208.22 362.986Z" fill="#F3E0C8"/>
<path d="M171.034 395.158H137.414C135.092 395.158 133.211 393.276 133.211 390.955V386.845C133.211 384.523 135.093 382.641 137.414 382.641H171.033C173.355 382.641 175.238 384.523 175.238 386.845V390.955C175.238 393.276 173.355 395.158 171.034 395.158Z" fill="#F3E0C8"/>
<path d="M219.952 395.158H186.333C184.011 395.158 182.129 393.276 182.129 390.955V386.845C182.129 384.523 184.011 382.641 186.333 382.641H219.952C222.275 382.641 224.156 384.523 224.156 386.845V390.955C224.157 393.276 222.275 395.158 219.952 395.158Z" fill="#F3E0C8"/>
<path d="M268.118 395.158H234.498C232.177 395.158 230.295 393.276 230.295 390.955V386.845C230.295 384.523 232.177 382.641 234.498 382.641H268.118C270.439 382.641 272.322 384.523 272.322 386.845V390.955C272.322 393.276 270.439 395.158 268.118 395.158Z" fill="#F3E0C8"/>
<path d="M283.565 182.291V294.969H142.036V182.291H148.544L148.485 182.228L148.556 182.291H283.565Z" fill="white"/>
<path d="M313.046 173.585H149.925V286.264H313.046V173.585Z" fill="#1A1A1A"/>
<path d="M319.577 173.585H156.456V286.264H319.577V173.585Z" fill="#FF914C"/>
<path d="M156.372 173.521L231.903 252.142C235.216 255.591 240.732 255.591 244.045 252.142L319.576 173.521L243.572 241.166C240.381 244.006 235.568 244.006 232.377 241.166L156.372 173.521Z" fill="#1A1A1A"/>
<path d="M222.301 231.898L161.181 286.264H156.456V283.391L218.788 227.95L222.301 231.898Z" fill="#1A1A1A"/>
<path d="M319.577 283.772V286.264H314.424L253.303 231.898L256.817 227.95L319.577 283.772Z" fill="#1A1A1A"/>
<path d="M156.451 173.583L232.636 241.34C235.701 244.066 240.323 244.066 243.389 241.34L319.573 173.583H156.451Z" fill="#FF914C"/>
<g opacity="0.5">
<path d="M236.041 184.133H179.58C177.701 184.133 176.179 182.611 176.179 180.732C176.179 178.854 177.701 177.331 179.58 177.331H236.041C237.92 177.331 239.442 178.854 239.442 180.732C239.442 182.611 237.92 184.133 236.041 184.133Z" fill="#FF914C"/>
</g>
<g opacity="0.5">
<path d="M253.32 184.133H247.605C245.727 184.133 244.204 182.611 244.204 180.732C244.204 178.854 245.727 177.331 247.605 177.331H253.32C255.198 177.331 256.721 178.854 256.721 180.732C256.721 182.611 255.198 184.133 253.32 184.133Z" fill="#FF914C"/>
</g>
<path d="M293.983 183.075H276.772C272.21 183.075 268.513 179.378 268.513 174.816V157.605C268.513 153.045 272.21 149.347 276.771 149.347H293.983C298.544 149.347 302.241 153.045 302.241 157.605V174.816C302.241 179.379 298.543 183.075 293.983 183.075Z" fill="#1A1A1A"/>
<path d="M296.965 183.075H279.755C275.193 183.075 271.495 179.378 271.495 174.816V157.605C271.495 153.045 275.193 149.347 279.753 149.347H296.964C301.526 149.347 305.223 153.045 305.223 157.605V174.816C305.223 179.379 301.526 183.075 296.965 183.075Z" fill="#FF914C"/>
<path d="M285.659 165.723L284.587 155.43H291.02L289.948 165.723H285.659ZM287.803 172.348C286.882 172.348 286.128 172.07 285.54 171.514C284.952 170.942 284.658 170.267 284.658 169.488C284.658 168.694 284.952 168.027 285.54 167.487C286.128 166.947 286.882 166.677 287.803 166.677C288.741 166.677 289.495 166.947 290.067 167.487C290.655 168.027 290.949 168.694 290.949 169.488C290.949 170.267 290.655 170.942 290.067 171.514C289.495 172.07 288.741 172.348 287.803 172.348Z" fill="white"/>
<path d="M351.405 417.601L350.762 429.196L360.169 429.402L361.319 417.221L351.405 417.601Z" fill="#F3E0C8"/>
<path d="M354.493 427.567C354.493 427.567 359.337 426.469 360.661 426.545C361.986 426.622 370.49 436.889 373.458 437.588C378.841 438.854 378.527 447.321 375.211 447.617C365.62 448.47 349.446 443.819 349.446 443.819C349.446 443.819 348.353 432.897 349.136 429.512C349.918 426.129 351.788 428.469 354.493 427.567Z" fill="#FF914C"/>
<path d="M362.046 437.142C361.874 437.173 361.691 437.136 361.538 437.026C361.243 436.811 361.179 436.397 361.394 436.102C361.465 436.003 363.178 433.674 365.216 432.918C367.928 431.909 369.768 433.584 369.845 433.656C370.113 433.904 370.126 434.323 369.877 434.591C369.629 434.858 369.209 434.873 368.942 434.623C368.892 434.578 367.608 433.443 365.676 434.158C364.016 434.774 362.478 436.859 362.463 436.881C362.359 437.024 362.207 437.112 362.046 437.142Z" fill="white"/>
<path d="M360.293 435.071C360.122 435.102 359.938 435.066 359.785 434.955C359.49 434.74 359.424 434.327 359.64 434.031C359.711 433.933 361.425 431.603 363.463 430.847C366.177 429.838 368.014 431.513 368.091 431.586C368.359 431.834 368.373 432.254 368.124 432.52C367.875 432.788 367.456 432.803 367.188 432.553C367.138 432.508 365.853 431.372 363.923 432.087C362.254 432.707 360.725 434.789 360.71 434.81C360.605 434.953 360.454 435.041 360.293 435.071Z" fill="white"/>
<path d="M364.533 438.941C364.362 438.972 364.178 438.937 364.025 438.825C363.73 438.61 363.664 438.197 363.88 437.9C363.952 437.802 365.665 435.472 367.703 434.716C370.417 433.706 372.255 435.383 372.332 435.454C372.599 435.703 372.613 436.122 372.364 436.389C372.116 436.657 371.696 436.672 371.428 436.422C371.378 436.377 370.093 435.241 368.163 435.956C366.494 436.576 364.965 438.658 364.95 438.678C364.846 438.823 364.695 438.913 364.533 438.941Z" fill="white"/>
<path d="M385.999 276.306C385.999 276.306 385.804 279.029 385.448 283.545C385.356 284.74 385.252 286.061 385.137 287.497C383.919 302.653 381.564 330.058 378.99 349.5C375.382 376.756 364.018 421.546 364.018 421.546L352.286 421.144L351.125 421.098L348.345 421.006C348.345 421.006 350.298 392.67 352.792 368.069C354.435 351.844 355.411 313.454 355.883 289.209C356.124 276.708 356.239 267.963 356.239 267.963L385.999 276.306Z" fill="#1A1A1A"/>
<path d="M386.001 276.306C386.001 276.306 385.806 279.029 385.45 283.545C385.358 284.74 385.255 286.061 385.14 287.497C379.728 288.508 364.847 289.209 355.885 289.209C356.126 276.708 356.241 267.963 356.241 267.963L386.001 276.306Z" fill="#1A1A1A"/>
<path d="M362.56 283.347C362.549 284.278 361.468 372.605 352.288 421.142L351.127 421.096C360.319 372.709 361.4 284.255 361.411 283.335L362.56 283.347Z" fill="#1A1A1A"/>
<path d="M424.983 419.828L424.598 430.288L415.035 429.783L414.819 418.675L424.983 419.828Z" fill="#F3E0C8"/>
<path d="M422.159 429.808C422.159 429.808 424.242 427.094 425.863 427.235C427.484 427.377 439.854 437.514 444.13 438.398C448.407 439.283 447.526 442.429 446.716 444.031C445.906 445.633 412.517 442.918 412.517 442.918C412.517 442.918 411.746 432.955 412.884 429.929C414.021 426.901 418.794 430.479 422.159 429.808Z" fill="#FF914C"/>
<path d="M428.973 436.855C428.821 436.898 428.652 436.882 428.505 436.794C428.218 436.625 428.124 436.258 428.292 435.971C428.348 435.876 429.692 433.62 431.468 432.759C433.83 431.608 435.639 432.962 435.715 433.02C435.978 433.221 436.029 433.599 435.826 433.862C435.625 434.125 435.248 434.175 434.984 433.973C434.935 433.936 433.675 433.024 431.992 433.84C430.545 434.542 429.339 436.562 429.327 436.583C429.246 436.721 429.117 436.814 428.973 436.855Z" fill="white"/>
<path d="M427.207 435.137C427.056 435.18 426.886 435.164 426.738 435.078C426.452 434.909 426.357 434.541 426.526 434.255C426.582 434.159 427.925 431.904 429.701 431.042C432.066 429.892 433.873 431.244 433.949 431.303C434.212 431.504 434.262 431.882 434.06 432.145C433.859 432.408 433.481 432.459 433.218 432.257C433.169 432.22 431.908 431.306 430.226 432.123C428.772 432.829 427.573 434.845 427.561 434.866C427.48 435.003 427.351 435.096 427.207 435.137Z" fill="white"/>
<path d="M431.379 438.264C431.226 438.307 431.057 438.29 430.91 438.204C430.624 438.035 430.529 437.667 430.698 437.381C430.754 437.286 432.097 435.03 433.874 434.169C436.239 433.018 438.046 434.371 438.122 434.429C438.385 434.63 438.434 435.009 438.233 435.272C438.032 435.535 437.654 435.585 437.391 435.383C437.342 435.346 436.08 434.434 434.399 435.25C432.945 435.955 431.746 437.972 431.734 437.993C431.652 438.129 431.523 438.224 431.379 438.264Z" fill="white"/>
<path d="M426.725 422.557L417.005 421.835L415.847 421.754L413.485 421.577C413.485 421.577 407.515 364.75 405.658 349.612C404.044 336.461 396.506 306.914 391.611 288.529C390.224 283.31 389.048 278.991 388.274 276.2C387.683 274.005 387.334 272.757 387.334 272.757L419.828 269.611C419.828 269.611 419.919 270.325 420.068 271.61C420.384 274.239 420.992 279.276 421.726 285.607C423.756 302.841 426.842 329.66 428.038 343.312C431.105 378.467 426.725 422.557 426.725 422.557Z" fill="#1A1A1A"/>
<path d="M421.726 285.609L391.61 288.53C390.223 283.311 389.048 278.991 388.273 276.2L420.068 271.611C420.384 274.24 420.992 279.277 421.726 285.609Z" fill="#1A1A1A"/>
<path d="M417.006 421.833L415.848 421.753C415.284 404.18 413.559 360.291 410.038 341.685C405.613 318.232 395.439 284.081 395.334 283.736L396.441 283.408C396.545 283.754 406.737 317.963 411.168 341.475C414.712 360.198 416.451 404.296 417.006 421.833Z" fill="#1A1A1A"/>
<path d="M421.44 189.503C421.946 193.933 422.482 198.182 422.953 201.743C423.713 207.486 424.3 211.432 424.3 211.432L428.956 226.433C430.549 231.565 436.353 234.047 441.167 231.659C441.248 231.621 441.333 231.577 441.417 231.536C449.727 227.275 444.544 210.875 444.544 210.875L442.944 210.801C442.239 209.01 440.336 204.442 437.917 198.706C437.624 198.002 437.318 197.277 437.011 196.543C436.496 195.323 435.964 194.063 435.421 192.775C434.65 190.949 433.854 189.067 433.05 187.171C427.125 173.165 420.815 158.342 420.815 158.342C418.56 159.501 419.836 175.403 421.44 189.503Z" fill="#F3E0C8"/>
<path d="M421.439 189.503C421.946 193.933 422.482 198.182 422.953 201.743C429.117 199.668 433.158 195.672 435.421 192.775C434.65 190.949 433.854 189.067 433.05 187.171L421.439 189.503Z" fill="#FD857D"/>
<path d="M434.427 216.505C434.462 216.509 434.493 216.509 434.529 216.508C434.853 216.5 435.131 216.257 435.173 215.927C436.154 208.043 437.209 202.208 437.92 198.706C437.627 198.003 437.319 197.278 437.012 196.544C436.34 199.631 435.04 206.205 433.849 215.762C433.804 216.125 434.061 216.457 434.427 216.505Z" fill="#FD857D"/>
<path d="M439.796 186.561C439.796 186.561 438.458 188.233 436.095 190.09C433.236 192.35 427.941 195.173 422.644 195.353C421.525 176.533 420.442 158.514 418.953 153.876C421.471 156.828 434.233 173.21 439.796 186.561Z" fill="#FF914C"/>
<path d="M435.646 216.85C435.646 216.85 436.201 197.96 440.095 193.821C443.988 189.682 447.612 188.034 451.389 188.049C455.166 188.064 458.729 188.418 458.547 189.977C458.547 189.977 467.171 188.388 471.113 190.51C475.056 192.631 459.788 195.09 455.241 195.356C450.694 195.62 448.372 198.241 448.275 200.96C448.178 203.678 446.13 221.729 446.13 221.729L435.646 216.85Z" fill="#F3E0C8"/>
<path d="M425.782 276.553C400.387 283.677 374.821 284.309 349.048 278.506C348.783 271.198 348.266 246.643 348.14 221.306C348.14 219.973 348.128 218.629 348.128 217.285V215.354C348.117 214.688 348.117 214.01 348.117 213.343C348.117 212.665 348.117 211.999 348.105 211.332C348.117 210.666 348.105 210 348.117 209.322C348.105 208.678 348.117 208.035 348.105 207.391C348.105 206.725 348.105 206.047 348.117 205.392C348.117 204.725 348.128 204.047 348.128 203.381C348.128 202.703 348.128 202.037 348.14 201.37C348.14 200.727 348.14 200.083 348.151 199.44C348.151 198.164 348.163 196.877 348.174 195.625V195.43C348.186 194.568 348.186 193.706 348.209 192.856C348.427 173.092 349.105 157.212 350.622 155.006C354.287 149.686 371.454 141.504 376.694 137.632L376.705 138.471C376.705 138.471 380.153 142.791 383.899 142.366C387.3 141.999 389.816 137.977 390.23 137.253C392.93 139.057 399.123 141.918 405.145 144.986C411.154 148.054 416.98 151.306 418.956 153.88C420.634 156.086 422.024 172.897 423.104 193.522V193.58C423.127 193.97 423.139 194.349 423.162 194.74V194.798C423.173 195.085 423.196 195.384 423.208 195.694C423.242 196.303 423.277 196.912 423.3 197.532C423.334 198.164 423.369 198.808 423.392 199.451C423.426 200.118 423.449 200.784 423.495 201.462C423.518 202.129 423.541 202.795 423.587 203.473C423.61 204.128 423.644 204.794 423.667 205.472C423.702 206.104 423.725 206.748 423.748 207.391C423.782 208.069 423.805 208.736 423.84 209.414C423.863 210.069 423.897 210.735 423.92 211.413C423.943 212.079 423.978 212.757 424.001 213.424C424.035 214.056 424.058 214.699 424.081 215.343C424.127 216.687 424.184 218.02 424.23 219.364C425.173 244.609 425.69 269.176 425.782 276.553Z" fill="#FF914C"/>
<path d="M372.897 156.949C372.64 156.897 372.44 156.679 372.423 156.405C372.402 156.079 372.651 155.796 372.977 155.776C387.978 154.81 393.127 143.489 393.177 143.375C393.309 143.075 393.66 142.938 393.959 143.07C394.259 143.201 394.395 143.551 394.264 143.851C394.21 143.975 392.893 146.935 389.614 150.045C386.596 152.907 381.272 156.43 373.054 156.959C372.999 156.962 372.946 156.959 372.897 156.949Z" fill="#FF914C"/>
<path d="M423.587 203.47L348.115 205.392C348.12 204.72 348.124 204.049 348.13 203.377C348.135 202.704 348.129 202.033 348.145 201.373L423.398 199.456C423.425 200.116 423.454 200.787 423.493 201.458C423.52 202.129 423.548 202.799 423.587 203.47Z" fill="#FF914C"/>
<path d="M423.922 211.411L348.12 213.341C348.114 212.67 348.119 211.998 348.113 211.337C348.118 210.665 348.112 209.994 348.117 209.322L423.754 207.395C423.783 208.066 423.811 208.737 423.838 209.408C423.866 210.069 423.893 210.74 423.922 211.411Z" fill="#FF914C"/>
<path d="M424.236 219.363L348.148 221.302C348.146 219.97 348.135 218.627 348.134 217.284L424.079 215.349C424.135 216.691 424.191 218.021 424.236 219.363Z" fill="#FF914C"/>
<path d="M415.121 183.023C417.395 185.939 420.777 192.591 422.298 195.666C422.506 196.088 422.677 196.443 422.808 196.712C422.98 197.064 423.076 197.269 423.084 197.284C423.133 197.388 423.208 197.472 423.3 197.53C423.271 196.914 423.24 196.301 423.209 195.691C423.196 195.389 423.178 195.087 423.163 194.789L423.162 194.74C422.85 194.114 422.483 193.377 422.071 192.569C420.347 189.193 417.891 184.645 416.057 182.293C415.856 182.035 415.483 181.99 415.224 182.191C414.964 182.392 414.922 182.767 415.121 183.023Z" fill="#FF914C"/>
<path d="M402.249 257.23C402.559 257.222 402.813 256.975 402.826 256.662C402.838 256.334 402.584 256.058 402.257 256.045C385.536 255.376 375.363 247.169 369.773 240.405C363.696 233.049 361.555 225.748 361.534 225.675C361.443 225.36 361.116 225.178 360.801 225.268C360.486 225.358 360.304 225.687 360.394 226.002C360.482 226.307 362.607 233.578 368.827 241.122C374.573 248.091 385.028 256.542 402.21 257.23C402.222 257.232 402.236 257.232 402.249 257.23Z" fill="#FF914C"/>
<path d="M393.015 246.859C393.277 246.852 393.511 246.672 393.576 246.405C393.653 246.087 393.457 245.766 393.139 245.688C378.533 242.136 375.425 230.093 375.395 229.971C375.317 229.653 374.995 229.458 374.678 229.536C374.36 229.613 374.165 229.933 374.243 230.252C374.275 230.384 375.057 233.526 377.749 237.16C380.225 240.502 384.857 244.895 392.859 246.842C392.911 246.854 392.963 246.86 393.015 246.859Z" fill="#FF914C"/>
<path d="M355.933 180.952C353.727 183.928 350.521 190.661 349.073 193.775C348.878 194.2 348.717 194.568 348.59 194.832C348.43 195.188 348.338 195.395 348.338 195.418C348.303 195.499 348.246 195.568 348.177 195.625V195.43C348.188 194.568 348.188 193.706 348.211 192.856C348.487 192.224 348.843 191.477 349.222 190.673C350.866 187.26 353.21 182.652 354.979 180.251C355.175 179.986 355.542 179.929 355.806 180.124C356.071 180.32 356.128 180.699 355.933 180.952Z" fill="#FF914C"/>
<path d="M429 192.141L480.453 190.83C481.921 190.792 483.08 189.573 483.043 188.105L483.004 186.585C482.966 185.118 481.747 183.959 480.279 183.995L428.825 185.307C427.358 185.344 426.198 186.564 426.235 188.032L426.274 189.551C426.312 191.02 427.533 192.179 429 192.141Z" fill="#1A1A1A"/>
<path d="M483.099 190.763L492.752 150.53C493.294 148.27 491.547 146.111 489.223 146.171L465.744 146.768C464.159 146.808 462.795 147.898 462.406 149.434L451.722 191.562L483.099 190.763Z" fill="#1A1A1A"/>
<path d="M462.405 149.434L451.81 191.215L449.127 191.282L459.722 149.502C460.115 147.965 461.476 146.875 463.062 146.834L465.745 146.765C464.16 146.807 462.798 147.898 462.405 149.434Z" fill="#1A1A1A"/>
<g opacity="0.5">
<path d="M468.987 170.694C468.444 173.346 470.14 175.44 472.776 175.373C475.412 175.306 477.988 173.102 478.532 170.45C479.074 167.799 477.378 165.704 474.742 165.771C472.106 165.839 469.53 168.043 468.987 170.694Z" fill="#1A1A1A"/>
</g>
<path d="M366.294 110.265C366.294 110.265 364.734 111.067 364.287 108.005C363.84 104.943 365.08 104.395 364.158 102.943C363.237 101.492 362.598 99.5904 364.039 98.2264C365.479 96.8614 362.429 93.5096 364.095 91.7711C365.762 90.0325 368.519 89.6028 369.575 87.6574C370.632 85.7132 372.286 82.0006 377.517 81.942C382.746 81.8823 384.529 86.0511 387.264 84.8744C390 83.6989 392.017 83.0566 395.281 85.2605C398.546 87.4644 395.23 90.6461 398.255 92.1181C401.279 93.59 399.018 98.1472 402.491 100.714C405.108 102.649 402.633 110.52 397.406 109.473C392.179 108.425 366.294 110.265 366.294 110.265Z" fill="#1A1A1A"/>
<path d="M367.62 111.485C367.62 111.485 364.647 107.726 362.591 110.95C360.534 114.174 363.795 123.458 368.97 121.04L367.62 111.485Z" fill="#FD857D"/>
<path d="M367.753 118.175C367.56 118.18 367.379 118.057 367.318 117.862C366.434 114.993 363.409 113.897 363.379 113.887C363.15 113.805 363.028 113.553 363.109 113.322C363.19 113.091 363.443 112.971 363.672 113.051C363.814 113.101 367.146 114.297 368.165 117.602C368.238 117.835 368.107 118.083 367.872 118.154C367.833 118.168 367.793 118.174 367.753 118.175Z" fill="#A97C50"/>
<path d="M367.753 118.175C367.56 118.18 367.379 118.057 367.318 117.862C366.434 114.993 363.409 113.897 363.379 113.887C363.15 113.805 363.028 113.553 363.109 113.322C363.19 113.091 363.443 112.971 363.672 113.051C363.814 113.101 367.146 114.297 368.165 117.602C368.238 117.835 368.107 118.083 367.872 118.154C367.833 118.168 367.793 118.174 367.753 118.175Z" fill="black" fill-opacity="0.2"/>
<path d="M364.693 116.796C364.61 116.798 364.528 116.778 364.452 116.732C364.243 116.604 364.177 116.333 364.304 116.124C364.324 116.089 364.833 115.268 365.929 114.744C366.149 114.638 366.414 114.731 366.519 114.952C366.625 115.172 366.532 115.436 366.311 115.541C365.464 115.947 365.063 116.578 365.06 116.583C364.978 116.718 364.838 116.793 364.693 116.796Z" fill="#A97C50"/>
<path d="M364.693 116.796C364.61 116.798 364.528 116.778 364.452 116.732C364.243 116.604 364.177 116.333 364.304 116.124C364.324 116.089 364.833 115.268 365.929 114.744C366.149 114.638 366.414 114.731 366.519 114.952C366.625 115.172 366.532 115.436 366.311 115.541C365.464 115.947 365.063 116.578 365.06 116.583C364.978 116.718 364.838 116.793 364.693 116.796Z" fill="black" fill-opacity="0.2"/>
<path d="M397.247 110.73C397.247 110.73 400.025 106.824 402.243 109.939C404.462 113.054 401.678 122.492 396.387 120.341L397.247 110.73Z" fill="#FD857D"/>
<path d="M397.456 117.419C397.649 117.415 397.823 117.283 397.873 117.086C398.61 114.176 401.575 112.928 401.605 112.915C401.831 112.822 401.939 112.563 401.846 112.338C401.754 112.112 401.496 112.004 401.27 112.096C401.131 112.152 397.865 113.517 397.015 116.869C396.956 117.106 397.099 117.346 397.336 117.407C397.376 117.416 397.417 117.42 397.456 117.419Z" fill="#A97C50"/>
<path d="M397.456 117.419C397.649 117.415 397.823 117.283 397.873 117.086C398.61 114.176 401.575 112.928 401.605 112.915C401.831 112.822 401.939 112.563 401.846 112.338C401.754 112.112 401.496 112.004 401.27 112.096C401.131 112.152 397.865 113.517 397.015 116.869C396.956 117.106 397.099 117.346 397.336 117.407C397.376 117.416 397.417 117.42 397.456 117.419Z" fill="black" fill-opacity="0.2"/>
<path d="M400.439 115.886C400.522 115.884 400.604 115.86 400.676 115.809C400.878 115.672 400.93 115.397 400.793 115.195C400.77 115.161 400.22 114.366 399.1 113.899C398.875 113.804 398.615 113.911 398.522 114.136C398.427 114.362 398.534 114.621 398.759 114.714C399.626 115.076 400.059 115.685 400.062 115.691C400.15 115.822 400.295 115.89 400.439 115.886Z" fill="#A97C50"/>
<path d="M400.439 115.886C400.522 115.884 400.604 115.86 400.676 115.809C400.878 115.672 400.93 115.397 400.793 115.195C400.77 115.161 400.22 114.366 399.1 113.899C398.875 113.804 398.615 113.911 398.522 114.136C398.427 114.362 398.534 114.621 398.759 114.714C399.626 115.076 400.059 115.685 400.062 115.691C400.15 115.822 400.295 115.89 400.439 115.886Z" fill="black" fill-opacity="0.2"/>
<path d="M389.959 128.45L390.195 137.76C390.195 137.76 387.54 142.572 383.793 142.99C380.05 143.413 376.604 139.088 376.604 139.088L376.358 129.451L389.959 128.45Z" fill="#F3E0C8"/>
<path d="M389.958 128.45L390.064 132.581C387.615 135.441 383.159 136.253 376.513 135.444L376.36 129.452L389.958 128.45Z" fill="#FD857D"/>
<path d="M399.164 104.291C399.084 107.913 398.854 112.446 398.256 116.082C398.107 116.988 397.933 117.842 397.737 118.608C395.952 125.518 391.352 137.407 377.508 132.857C371.394 130.848 368.413 124.171 366.987 117.339C366.02 112.699 365.771 107.992 365.747 104.624C365.727 101.186 367.521 97.9988 370.468 96.2281C378.449 91.4308 387.037 92.9246 392.718 94.9447C396.66 96.3442 399.257 100.115 399.164 104.291Z" fill="#F3E0C8"/>
<path d="M377.009 112.462C377.035 113.456 376.543 114.274 375.911 114.29C375.279 114.306 374.747 113.513 374.722 112.519C374.696 111.525 375.188 110.707 375.82 110.691C376.451 110.675 376.984 111.468 377.009 112.462Z" fill="#1A1A1A"/>
<path d="M390.75 112.112C390.775 113.106 390.283 113.924 389.651 113.94C389.019 113.956 388.487 113.163 388.462 112.169C388.437 111.175 388.928 110.357 389.56 110.341C390.191 110.325 390.724 111.118 390.75 112.112Z" fill="#1A1A1A"/>
<path d="M393.465 106.113C393.465 106.113 388.691 104.366 385.091 106.031L385.507 108.046C385.507 108.046 390.837 107.458 393.557 108.48C393.778 107.694 393.793 106.906 393.465 106.113Z" fill="#1A1A1A"/>
<path d="M370.987 106.695C370.987 106.695 375.702 104.692 379.408 106.182L379.094 108.231C379.094 108.231 373.7 107.913 371.017 109.08C370.754 108.302 370.699 107.509 370.987 106.695Z" fill="#1A1A1A"/>
<path d="M383.173 119.639C382.434 119.741 381.661 119.556 381.54 119.525C381.304 119.464 381.161 119.224 381.222 118.987C381.282 118.751 381.523 118.607 381.76 118.668C382.178 118.774 383.163 118.894 383.541 118.59C383.613 118.531 383.709 118.422 383.699 118.152C383.645 116.6 382.515 111.529 382.503 111.477C382.45 111.239 382.6 111.002 382.839 110.948C383.078 110.894 383.313 111.045 383.367 111.284C383.414 111.495 384.527 116.487 384.584 118.121C384.606 118.736 384.33 119.091 384.096 119.279C383.837 119.486 383.509 119.593 383.173 119.639Z" fill="#FD857D"/>
<path d="M376.831 122.259C377.239 124.069 378.526 127.384 382.573 127.28C386.63 127.177 387.69 124.091 388.027 121.974L376.831 122.259Z" fill="white"/>
<path d="M382.589 130.023C383.734 129.994 384.69 129.39 384.73 129.363C384.936 129.231 384.995 128.958 384.863 128.752C384.731 128.547 384.458 128.487 384.252 128.618C384.245 128.622 383.458 129.115 382.566 129.137C381.748 129.158 380.953 128.709 380.945 128.704C380.733 128.581 380.463 128.652 380.34 128.864C380.218 129.075 380.289 129.345 380.5 129.468C380.54 129.493 381.509 130.051 382.589 130.023Z" fill="#FD857D"/>
<path d="M399.163 104.291C399.083 107.913 398.853 112.446 398.255 116.082L396.274 115.992C396.274 115.992 396.675 112.925 396.845 110.929C397.015 108.933 397.297 105.203 395.587 104.783C393.882 104.366 394.768 100.097 392.363 98.3171C389.959 96.5327 384.68 95.0435 381.26 97.2726C377.838 99.4972 373.854 98.4171 372.263 98.8296C370.667 99.2375 368.547 101.505 369.188 103.555C369.832 105.601 368.096 106.902 367.721 109.048C367.347 111.195 368.865 116.91 368.865 116.91L366.986 117.339C366.019 112.699 365.77 107.992 365.746 104.624C365.726 101.186 367.52 97.9988 370.467 96.2281C378.448 91.4308 387.036 92.9246 392.717 94.9447C396.659 96.3442 399.256 100.115 399.163 104.291Z" fill="#1A1A1A"/>
<path d="M351.71 266.651L346.987 273.098C346.987 273.098 344.252 271.386 340.541 268.409C340.529 268.398 340.529 268.398 340.518 268.386C334.865 263.871 328 255.485 323.707 246.859C317.005 233.39 320.042 223.727 320.042 223.727C320.708 217.247 324.339 208.268 327.798 198.49C329.062 194.939 330.211 191.848 331.015 189.676L341.575 192.101L346.091 194.881L344.356 199.466C341.368 209.363 337.99 219.096 333.469 228.349C334.491 237.415 338.323 248.358 342.747 255.069C347.32 262.032 351.71 266.651 351.71 266.651Z" fill="#F3E0C8"/>
<path d="M351.71 266.651L346.987 273.098C346.987 273.098 344.253 271.385 340.541 268.409C340.53 268.398 340.53 268.398 340.518 268.386C339.702 263.514 340.197 256.632 342.747 255.069C347.321 262.032 351.71 266.651 351.71 266.651Z" fill="#FD857D"/>
<path d="M349.187 259.213C350.137 259.275 355.205 259.527 354.657 257.793C354.052 255.881 349.079 253.642 349.079 253.642C349.079 253.642 349.05 253.544 349.099 253.415L349.045 253.006L348.825 248.896C347.865 248.903 346.982 249.09 346.504 249.238C344.324 249.913 344.623 254.899 344.623 254.899C344.623 254.899 341.875 255.881 341.975 257.893C342.076 259.906 344.29 260.208 344.29 260.208C344.29 260.208 341.266 261.718 341.972 263.429C342.679 265.14 344.971 265.643 344.971 265.643C344.971 265.643 342.377 267.354 343.283 268.562C344.189 269.77 346.303 270.374 346.303 270.374C346.303 270.374 344.493 272.824 346.333 274.159C348.171 275.494 350.876 275.205 352.616 274.6C354.356 273.996 354.053 271.782 350.632 270.172C350.632 270.172 353.651 270.474 355.16 267.958C356.419 265.86 353.208 264.953 350.468 264.592C352.621 264.737 356.334 264.676 356.972 262.623C357.807 259.932 350.351 259.296 349.187 259.213Z" fill="#F3E0C8"/>
<path d="M346.092 194.881L344.357 199.466C340.852 199.685 334.578 199.788 327.799 198.49C329.063 194.939 330.212 191.848 331.016 189.676L341.576 192.101L346.092 194.881Z" fill="#FD857D"/>
<path d="M350.617 155.01C350.617 155.01 334.689 170.5 325.305 192.99C332.66 195.368 339.623 197.052 346.088 197.856C346.852 195.768 350.873 187.125 354.433 181.024L350.617 155.01Z" fill="#FF914C"/>
<path d="M221.801 33.2692L221.819 33.2198C222.085 32.6303 222.329 32.0328 222.547 31.4365C225.756 22.6784 226.072 4.70141 206.115 0.448764C206.115 0.448764 189.666 -3.39368 182.35 11.4084C182.35 11.4084 179.055 18.266 176.715 23.2471C176.715 23.2471 174.751 33.7139 164.875 34.6377C154.999 35.5616 149.491 39.3534 150.441 46.6683C151.39 53.9832 149.871 52.8192 143.034 59.0046C136.197 65.1899 131.427 76.7575 137.325 84.3711C143.223 91.9847 165.291 73.971 179.422 82.0201C193.553 90.0693 217.282 87.716 220.041 76.2622C222.8 64.8096 211.747 57.2615 212.336 51.4438C212.925 45.6273 220.01 38.8352 221.801 33.2692Z" fill="#1A1A1A"/>
<path d="M227.166 106.695L213.067 106.707L206.253 93.4579L205.483 91.9412L202.576 86.2993C202.576 86.2993 203.16 62.2841 209.319 59.0093L227.166 106.695Z" fill="#FF914C"/>
<path d="M206.251 93.4579L205.481 91.9412C206.837 89.1949 209.181 82.8751 207.32 74.7398C207.24 74.3607 207.469 73.993 207.837 73.9125C208.205 73.8321 208.584 74.0619 208.664 74.4296C210.871 84.0817 207.561 91.1713 206.251 93.4579Z" fill="#FF914C"/>
<path d="M230.628 105.028C230.628 105.028 231.842 110.264 233.912 111.706C235.981 113.148 235.459 105.826 235.459 105.826C235.459 105.826 236.155 114.663 238.297 114.899C240.439 115.136 240.008 106.533 240.008 106.533C240.008 106.533 241.391 112.448 243.014 112.793C244.637 113.139 244.58 106.837 244.58 106.837C244.58 106.837 246.152 111.414 247.352 111.812C248.554 112.209 249.136 106.893 248.461 104.184C247.786 101.476 244.414 103.12 244.414 103.12C244.414 103.12 241.228 102.2 240.123 103.297C240.123 103.297 237.266 102.056 235.667 102.859C235.667 102.862 231.001 101.515 230.628 105.028Z" fill="#F3E0C8"/>
<path d="M206.894 70.4997C207.434 75.1304 208.905 79.8071 206.94 87.1725C206.319 89.5051 205.354 91.3666 203.539 94.5609V94.5724C203.527 94.5724 203.527 94.5724 203.527 94.5724C203.447 94.7563 203.343 94.9286 203.229 95.1125C203.194 95.4457 203.148 95.7674 203.114 96.0892C201.93 104.293 202.24 99.9385 202.378 106.706H159.909L160.219 89.8958L160.288 86.3107L160.897 53.3099L174.307 52.1264H174.318L176.628 51.9195L176.766 51.8966L180.374 51.5863C180.696 51.5518 181.006 51.5288 181.328 51.5059C186.188 51.2071 191.06 51.9655 195.622 53.7235L195.771 53.781L197.782 54.5509V54.5624L197.908 54.6083L199.873 55.3667L209.319 59.0092C208.836 61.1349 207.331 68.3625 206.894 70.4997Z" fill="#FF914C"/>
<path d="M165.574 77.6814L160.22 89.8958L160.289 86.3108L164.31 77.1298C164.46 76.7851 164.873 76.6242 165.218 76.7736C165.563 76.923 165.724 77.3367 165.574 77.6814Z" fill="#FF914C"/>
<path d="M174.315 52.1193C178.696 60.9464 189.42 70.8099 194.915 67.766C198.295 65.8976 199.676 59.7594 199.875 55.3608L197.906 54.6047L197.786 54.5599V54.5565L195.776 53.782L195.622 53.7223C191.066 51.9665 186.193 51.2104 181.33 51.5103C181.165 51.5333 180.997 51.5552 180.832 51.5781C180.679 51.5965 180.528 51.616 180.379 51.6344L176.766 51.9045L176.627 51.916L174.315 52.1193Z" fill="#F3E0C8"/>
<path d="M203.236 95.1181C203.196 95.4444 203.151 95.7684 203.117 96.0913C200.79 96.5877 193.487 97.6138 181.071 94.6412C179.461 94.2551 177.764 93.8024 175.982 93.2704C175.615 93.1635 175.41 92.7786 175.516 92.412C175.627 92.0512 176.013 91.841 176.374 91.9513C194.284 97.2714 203.427 94.601 203.519 94.5757C203.529 94.5734 203.535 94.57 203.544 94.5677C203.443 94.7458 203.343 94.9296 203.236 95.1181Z" fill="#FF914C"/>
<path d="M214.969 31.9732C214.969 31.9732 218.92 29.4981 219.926 33.0705C220.931 36.6441 215.063 44.0405 210.844 40.2153L214.969 31.9732Z" fill="#FD857D"/>
<path d="M213.27 40.4222C213.092 40.9221 213.352 41.4713 213.851 41.6506C214.351 41.8287 214.901 41.569 215.08 41.0691C215.258 40.5693 214.998 40.0189 214.498 39.8408C213.999 39.6627 213.448 39.9224 213.27 40.4222Z" fill="white"/>
<path d="M212.857 38.001C213.04 38.0665 213.249 38.0113 213.364 37.8539C215.06 35.5294 218.27 35.488 218.302 35.488C218.546 35.4868 218.737 35.2961 218.727 35.0617C218.719 34.8273 218.515 34.6377 218.271 34.6377C218.122 34.6377 214.587 34.6745 212.634 37.3518C212.496 37.5414 212.548 37.8068 212.749 37.9458C212.782 37.9688 212.819 37.9872 212.857 38.001Z" fill="#A97C50"/>
<path d="M212.857 38.001C213.04 38.0665 213.249 38.0113 213.364 37.8539C215.06 35.5294 218.27 35.488 218.302 35.488C218.546 35.4868 218.737 35.2961 218.727 35.0617C218.719 34.8273 218.515 34.6377 218.271 34.6377C218.122 34.6377 214.587 34.6745 212.634 37.3518C212.496 37.5414 212.548 37.8068 212.749 37.9458C212.782 37.9688 212.819 37.9872 212.857 38.001Z" fill="black" fill-opacity="0.2"/>
<path d="M216.183 37.7138C216.261 37.7413 216.346 37.7494 216.433 37.731C216.669 37.6816 216.813 37.4552 216.754 37.2254C216.745 37.1875 216.503 36.2809 215.613 35.4616C215.435 35.2962 215.155 35.2973 214.988 35.4651C214.822 35.6317 214.833 35.9006 215.011 36.066C215.698 36.7003 215.894 37.3989 215.896 37.4058C215.934 37.5518 216.045 37.6644 216.183 37.7138Z" fill="#A97C50"/>
<path d="M216.183 37.7138C216.261 37.7413 216.346 37.7494 216.433 37.731C216.669 37.6816 216.813 37.4552 216.754 37.2254C216.745 37.1875 216.503 36.2809 215.613 35.4616C215.435 35.2962 215.155 35.2973 214.988 35.4651C214.822 35.6317 214.833 35.9006 215.011 36.066C215.698 36.7003 215.894 37.3989 215.896 37.4058C215.934 37.5518 216.045 37.6644 216.183 37.7138Z" fill="black" fill-opacity="0.2"/>
<path d="M187.705 42.0918L184.017 52.4195C184.017 52.4195 187.494 57.8373 191.123 59.4977C194.748 61.1604 197.618 57.2076 197.618 57.2076L201.051 47.5958L187.705 42.0918Z" fill="#F3E0C8"/>
<path d="M187.345 43.103L185.873 47.2224C187.39 50.9086 191.498 53.4893 198.449 54.8739L200.69 48.6058L187.345 43.103Z" fill="#FD857D"/>
<path d="M215.202 36.4834C214.726 37.4383 214.223 38.4024 213.683 39.3492C210.098 45.6403 203.259 51.3775 197.461 50.6789C184.939 49.1702 183.38 38.3553 183.925 30.9829C183.987 30.1636 184.675 29.4478 184.828 28.5067C185.191 26.2787 185.194 23.6002 185.84 21.1895C186.288 19.5188 186.766 17.8837 187.214 16.4118C188.484 12.2637 192.188 9.35772 196.406 9.21179C202.487 8.99577 211.17 10.2069 217.224 17.4344C219.46 20.1037 220.138 23.8094 219.001 27.1933C218.131 29.7776 216.867 33.1133 215.202 36.4834Z" fill="#F3E0C8"/>
<path d="M199.211 36.6303C198.995 36.5533 198.861 36.3293 198.902 36.0972C198.949 35.8375 199.196 35.664 199.456 35.7111L201.093 36.0029L200.99 29.574C200.985 29.3109 201.196 29.0925 201.46 29.0879C201.723 29.0845 201.941 29.2936 201.945 29.5579L202.066 37.1463L199.287 36.6499C199.262 36.6464 199.235 36.6395 199.211 36.6303Z" fill="#FD857D"/>
<path d="M214.782 23.5772C218.572 27.2599 215.213 32.1239 215.778 35.3688C215.814 35.5791 215.907 35.648 216.047 35.5963C217.759 32.1664 219.05 28.7675 219.935 26.1327C221.092 22.6809 220.338 18.8833 217.96 16.1267C211.523 8.66476 202.39 7.32956 196.005 7.48353C191.577 7.5858 187.72 10.5182 186.432 14.749C185.977 16.2497 185.493 17.9181 185.04 19.6221C185.632 20.338 187.394 21.1975 187.039 22.4327C186.102 25.6995 185.477 27.9413 186.212 27.9896C187.452 28.0677 189.533 24.4482 189.14 21.4871C189.14 21.4871 190.776 20.1725 195.575 20.053C201.73 19.9002 208.041 18.6742 208.041 18.6742C208.041 18.6742 210.536 18.1709 211.807 17.1034C211.81 17.1046 211.896 20.7723 214.782 23.5772Z" fill="#1A1A1A"/>
<path d="M207.451 31.3459C207.097 32.3375 207.321 33.3234 207.951 33.5486C208.581 33.7738 209.379 33.1522 209.733 32.1617C210.087 31.1712 209.863 30.1853 209.233 29.9601C208.602 29.7337 207.805 30.3554 207.451 31.3459Z" fill="#1A1A1A"/>
<path d="M194.45 26.6943C194.096 27.686 194.32 28.6718 194.95 28.8971C195.58 29.1223 196.378 28.5006 196.732 27.5102C197.086 26.5185 196.862 25.5326 196.232 25.3086C195.603 25.0845 194.804 25.7027 194.45 26.6943Z" fill="#1A1A1A"/>
<path d="M213.054 27.3735C212.201 26.8668 210.452 25.9096 208.451 25.273C207.925 25.1053 207.369 25.3489 207.292 25.7878L207.29 25.7993C207.229 26.1498 207.503 26.4991 207.93 26.6163C209.313 26.9955 212.827 28.2755 214.292 29.3487C214.422 29.1281 214.354 28.819 214.201 28.5157C213.971 28.0561 213.553 27.6688 213.054 27.3735Z" fill="#1A1A1A"/>
<path d="M194.637 21.0376C195.62 21.1732 197.585 21.5133 199.547 22.2625C200.063 22.459 200.346 22.9956 200.133 23.3874L200.127 23.3966C199.956 23.7091 199.524 23.8102 199.117 23.6367C197.799 23.0726 194.253 21.8844 192.438 21.812C192.473 21.5581 192.719 21.3593 193.028 21.2168C193.495 21.0008 194.062 20.9583 194.637 21.0376Z" fill="#1A1A1A"/>
<path d="M203.242 41.091C202.346 42.5491 200.201 45.0552 196.467 43.7212C192.725 42.3848 192.623 39.3571 192.914 37.4014L203.242 41.091Z" fill="white"/>
<path d="M195.552 46.4513C196.63 46.8363 197.788 46.5961 197.837 46.5858C198.09 46.5318 198.251 46.2824 198.197 46.0296C198.143 45.7768 197.895 45.616 197.642 45.6688C197.633 45.6711 196.688 45.863 195.867 45.5689C194.977 45.2517 194.349 44.4956 194.343 44.4876C194.179 44.2877 193.885 44.2578 193.684 44.4221C193.484 44.5853 193.454 44.8794 193.617 45.0794C193.649 45.1196 194.411 46.0434 195.552 46.4513Z" fill="#FD857D"/>
<path d="M187.082 21.9801C187.082 21.9801 185.29 17.0116 182.434 19.112C179.579 21.2125 179.298 30.3303 184.581 29.9683L187.082 21.9801Z" fill="#F3E0C8"/>
<path d="M181.643 29.1248C181.465 29.6247 181.725 30.1739 182.224 30.3532C182.724 30.5313 183.275 30.2716 183.453 29.7717C183.631 29.2719 183.371 28.7215 182.871 28.5434C182.37 28.3642 181.821 28.625 181.643 29.1248Z" fill="white"/>
<path d="M184.486 27.0855C184.317 27.0258 184.202 26.858 184.215 26.6707C184.408 23.8934 182.159 21.9366 182.136 21.9171C181.965 21.77 181.944 21.5114 182.09 21.3391C182.238 21.1667 182.496 21.146 182.668 21.292C182.774 21.3816 185.256 23.5292 185.034 26.727C185.018 26.9534 184.823 27.1234 184.597 27.1073C184.557 27.105 184.521 27.097 184.486 27.0855Z" fill="#FD857D"/>
<path d="M182.297 24.8713C182.225 24.846 182.16 24.8001 182.109 24.7357C181.972 24.5565 182.005 24.2991 182.184 24.16C182.214 24.137 182.929 23.597 184.051 23.5097C184.277 23.4913 184.474 23.6613 184.491 23.8865C184.509 24.1118 184.34 24.3094 184.115 24.3278C183.247 24.3956 182.69 24.8069 182.684 24.8115C182.57 24.8977 182.424 24.9161 182.297 24.8713Z" fill="#FD857D"/>
<path d="M200.991 27.4716C201.088 27.2039 201.121 26.9258 201.098 26.6569C201.041 25.9192 200.571 25.247 199.834 24.9655L193.332 22.479C192.82 22.2836 192.28 22.3146 191.817 22.5215C191.563 22.6352 191.336 22.8007 191.149 23.0133C190.991 23.1879 190.864 23.3913 190.775 23.6211L190.457 24.4519C189.918 25.8606 189.956 27.4164 190.56 28.7264C191.165 30.0271 192.076 30.9325 193.273 31.4197L193.444 31.4852C194.836 32.0173 196.35 31.9782 197.717 31.3726C199.103 30.759 200.164 29.641 200.705 28.2242L200.974 27.521C200.981 27.5061 200.988 27.4877 200.991 27.4716ZM199.94 27.9312C199.477 29.1435 198.569 30.0972 197.387 30.6212C196.218 31.1382 194.925 31.1715 193.738 30.7177L193.582 30.6579C192.586 30.2512 191.821 29.4859 191.308 28.3816C190.795 27.274 190.765 25.9468 191.224 24.7449L191.543 23.9141C191.771 23.3155 192.44 23.0179 193.038 23.2465L199.54 25.7331C200.135 25.9606 200.437 26.6305 200.208 27.228L199.94 27.9312Z" fill="white"/>
<path d="M214.879 32.2703C214.909 31.991 214.873 31.7107 214.786 31.4487C214.601 30.9121 214.189 30.4559 213.619 30.2376L207.115 27.7499C206.361 27.4615 205.538 27.666 205.002 28.2083C204.821 28.3887 204.673 28.6071 204.575 28.8564C204.567 28.8679 204.564 28.8782 204.559 28.8909L204.241 29.7217C203.702 31.1304 203.742 32.6874 204.347 33.9973C204.949 35.2969 205.862 36.2035 207.057 36.6895L207.231 36.7562C208.622 37.2882 210.137 37.2491 211.503 36.6436C212.886 36.03 213.95 34.9119 214.492 33.4952L214.76 32.7919C214.826 32.623 214.866 32.4472 214.879 32.2703ZM213.724 33.2044C213.261 34.4167 212.353 35.3704 211.169 35.8932C210.003 36.4114 208.71 36.4448 207.524 35.9909L207.365 35.93C206.369 35.5221 205.604 34.758 205.091 33.6537C204.58 32.546 204.548 31.2189 205.007 30.017L205.326 29.1862C205.554 28.5875 206.225 28.2899 206.821 28.5186L213.325 31.0063C213.921 31.2338 214.222 31.9037 213.993 32.5012L213.724 33.2044Z" fill="white"/>
<path d="M191.816 22.5215C191.286 21.9435 189.839 20.6014 187.38 19.8706V20.737C189.409 21.3988 190.652 22.5019 191.148 23.0133C191.312 23.181 191.395 23.2867 191.399 23.2913L192.05 22.7926C192.035 22.772 191.958 22.672 191.816 22.5215Z" fill="white"/>
<path d="M200.706 27.4508L200.731 26.6304C200.783 26.6315 202.001 26.6729 203.183 27.1256C204.443 27.6071 205.106 28.3045 205.133 28.3333L204.535 28.8952C204.53 28.8906 203.962 28.3022 202.89 27.892C201.841 27.491 200.718 27.4508 200.706 27.4508Z" fill="white"/>
<path d="M217.434 31.6518C215.906 31.3438 214.521 31.4633 214.432 31.4714L214.506 32.2883C214.529 32.2872 215.951 32.1665 217.434 32.494V31.6518Z" fill="white"/>
<path d="M194.574 106.751C194.574 106.751 194.838 111.987 193.175 113.43C191.513 114.872 189.97 107.551 189.97 107.551C189.97 107.551 191.768 116.387 189.693 116.624C187.617 116.86 185.619 108.257 185.619 108.257C185.619 108.257 185.907 114.173 184.381 114.517C182.855 114.863 181.132 108.562 181.132 108.562C181.132 108.562 180.853 113.139 179.764 113.536C178.674 113.934 176.591 108.617 176.502 105.91C176.412 103.202 180.247 104.846 180.247 104.846C180.247 104.846 183.174 103.927 184.589 105.023C184.589 105.023 187.095 103.782 188.922 104.585C188.924 104.585 193.209 103.238 194.574 106.751Z" fill="#F3E0C8"/>
<path d="M171.189 106.695L141.027 106.707C141.004 106.695 140.935 106.442 140.935 106.431C140.406 98.4219 145.473 84.932 149.013 73.1427C151.357 65.3407 154.436 55.9529 160.905 53.3101C162.043 54.6545 164.146 60.1929 164.295 63.0196C164.64 69.845 163.778 77.061 162.514 80.8529C160.687 86.2994 158.4 92.9295 156.734 98.376C156.734 98.376 156.734 98.3875 156.723 98.4219C156.688 98.5713 156.573 99.1114 156.573 99.1228C156.619 99.1343 156.918 99.2952 157.447 99.594C159.412 100.686 164.548 103.57 171.189 106.695Z" fill="#FF914C"/>
<path d="M157.44 99.5939C154.28 101.065 149.81 104.167 149.764 104.202C149.638 104.294 149.5 104.328 149.374 104.328C149.155 104.328 148.937 104.225 148.799 104.029C148.581 103.719 148.661 103.294 148.971 103.076C149.167 102.938 153.476 99.9501 156.716 98.4219C156.682 98.5713 156.567 99.1113 156.567 99.1228C156.613 99.1343 156.911 99.2952 157.44 99.5939Z" fill="#FF914C"/>
<path d="M180.378 51.5815C180.378 51.5815 182.675 62.0368 190.902 62.6113C199.129 63.1858 199.875 54.8747 199.875 54.8747" stroke="white" stroke-width="1.2" stroke-miterlimit="10" stroke-linecap="round"/>
<path d="M470.748 394.131C470.748 394.131 469.811 395.048 467.889 395.189C467.309 395.236 466.643 395.21 465.874 395.054C465.058 394.906 464.134 394.615 463.109 394.131C463.109 394.131 463.554 375.239 455.915 362.226C448.276 349.213 438.162 331.238 446.253 322.021C454.343 312.804 467.377 325.615 471.645 347.189C475.92 368.766 470.748 394.131 470.748 394.131Z" fill="#FF914C"/>
<path d="M467.891 395.189C467.31 395.236 466.644 395.21 465.875 395.055C468.33 361.518 453.105 335.614 452.951 335.351C452.661 334.872 452.816 334.252 453.294 333.962C453.773 333.678 454.394 333.833 454.683 334.312C454.844 334.575 470.392 360.992 467.891 395.189Z" fill="#1A1A1A"/>
<path d="M496.945 363.641C479.072 392.539 480.306 399.221 480.306 399.221L477.959 398.802L475.963 398.452L473.117 397.946C471.533 385.129 481.377 330.954 498.927 330.954C516.795 330.954 503.034 353.804 496.945 363.641Z" fill="#FF914C"/>
<path d="M496.271 347.015C496.102 347.298 481.135 373.998 477.959 398.803L475.963 398.452C479.226 373.249 494.343 346.307 494.504 346.017C494.78 345.532 495.401 345.363 495.886 345.639C496.372 345.916 496.541 346.53 496.271 347.015Z" fill="#1A1A1A"/>
<path d="M462.946 396.693L460.89 397.246L458.921 397.779L457.741 398.096C457.815 397.84 456.919 395.628 444.344 378.826C439.153 371.882 425.303 353.206 438.001 350.07C449.644 347.198 463.283 387.017 462.946 396.693Z" fill="#FF914C"/>
<path d="M460.891 397.246L458.922 397.779C455.295 381.59 440.577 361.72 440.415 361.504C440.084 361.06 440.178 360.425 440.624 360.089C441.07 359.758 441.703 359.846 442.039 360.298C442.687 361.173 457.156 380.687 460.891 397.246Z" fill="#1A1A1A"/>
<path d="M487.847 439.442C487.847 442.677 447.87 442.677 447.87 439.442V391.908C447.87 391.416 448.269 391.018 448.761 391.018H486.955C487.447 391.018 487.846 391.416 487.846 391.908L487.847 439.442Z" fill="#1A1A1A"/>
<path d="M73.0236 440.63H44.2903C40.3824 440.63 36.9191 437.64 35.7115 433.224L23.5258 388.663C23.0271 386.839 24.0968 384.944 25.7055 384.796C47.8915 382.753 69.8614 382.751 91.6118 384.79C93.2182 384.941 94.2857 386.834 93.7881 388.656L81.6013 433.223C80.3948 437.64 76.9315 440.63 73.0236 440.63Z" fill="#1A1A1A"/>
<path d="M91.2373 388.032C91.2373 389.218 76.7386 390.178 58.8535 390.178C40.9685 390.178 26.4697 389.218 26.4697 388.032C26.4697 386.846 40.9685 385.885 58.8535 385.885C76.7386 385.885 91.2373 386.847 91.2373 388.032Z" fill="#1A1A1A"/>
<path d="M95.5276 327.808C83.8739 324.737 66.0682 348.926 60.6607 372.509V338.149C63.3794 333.329 68.5616 326.076 77.9712 318.413C92.6044 306.495 106.075 291.201 94.4004 288.126C83.4603 285.244 67.0977 306.388 60.6607 328.5V284.376C62.5463 281.449 65.635 277.609 70.5725 273.587C79.7948 266.076 88.284 256.437 80.9266 254.499C74.5413 252.817 65.2259 264.12 60.6607 276.868V262.566C61.4157 258.143 62.482 251.824 65.4086 245.364C72.1915 230.396 75.8558 214.975 66.9127 216.123C57.9616 217.271 52.1577 243.929 57.0527 264.393V271.753C53.7457 256.776 42.4022 241.266 34.9977 243.216C27.6403 245.155 36.1296 254.793 45.3519 262.305C52.3714 268.022 55.6566 273.373 57.0527 276.252V311.012C51.7498 287.31 33.8177 262.847 22.1019 265.933C10.4275 269.008 23.8979 284.303 38.5311 296.22C49.5884 305.226 54.8109 313.665 57.0527 318.255V359.938C51.3844 336.67 33.9107 313.188 22.419 316.216C10.7447 319.291 20.7564 330.469 37.2016 343.987C48.3773 353.175 54.3639 362.871 57.0527 368.142V387.775C58.3569 388.141 59.5783 388.139 60.6607 387.775V379.963C62.9485 375.336 68.1755 366.994 79.0996 358.098C93.7317 346.177 107.202 330.882 95.5276 327.808Z" fill="#FF914C"/>
</svg>
