<svg width="141" height="125" viewBox="0 0 141 125" fill="none" xmlns="http://www.w3.org/2000/svg">
<path d="M69.6058 124.38C108.048 124.38 139.212 122.409 139.212 119.976C139.212 117.544 108.048 115.572 69.6058 115.572C31.1636 115.572 0 117.544 0 119.976C0 122.409 31.1636 124.38 69.6058 124.38Z" fill="#F3E0C8"/>
<path d="M42.6979 13.1801C42.6979 13.5092 42.5639 13.809 42.3456 14.0261C42.1298 14.2444 41.83 14.3788 41.5009 14.3788H15.879C15.2209 14.3788 14.6816 13.8395 14.6816 13.1801C14.6816 12.8511 14.8157 12.5513 15.0343 12.3342C15.2498 12.1156 15.5499 11.9815 15.879 11.9815H17.0899C17.5681 10.8701 18.6726 10.0933 19.9583 10.0933C20.8238 10.0933 21.6062 10.4457 22.1731 11.0138C22.9278 9.73375 24.3199 8.87396 25.914 8.87396C26.3522 8.87396 26.7737 8.94034 27.172 9.06052C28.0057 7.49289 29.6536 6.42578 31.5531 6.42578C33.8342 6.42578 35.7529 7.96573 36.3321 10.0616C36.7524 9.85141 37.2265 9.73123 37.7298 9.73123C39.1524 9.73123 40.3523 10.681 40.7298 11.9818H41.5012C42.1587 11.9815 42.6979 12.5208 42.6979 13.1801Z" fill="white"/>
<path d="M140.999 29.1017C140.999 29.4307 140.865 29.7305 140.646 29.9476C140.431 30.1659 140.131 30.3003 139.802 30.3003H114.18C113.522 30.3003 112.982 29.7611 112.982 29.1017C112.982 28.7726 113.116 28.4728 113.335 28.2557C113.551 28.0374 113.851 27.9031 114.18 27.9031H115.391C115.869 26.7916 116.973 26.0145 118.259 26.0145C119.125 26.0145 119.907 26.3669 120.474 26.9351C121.229 25.655 122.621 24.7952 124.215 24.7952C124.653 24.7952 125.075 24.8616 125.473 24.9817C126.306 23.4141 127.954 22.3467 129.854 22.3467C132.135 22.3467 134.054 23.8866 134.633 25.9825C135.053 25.7723 135.527 25.6521 136.031 25.6521C137.453 25.6521 138.653 26.6019 139.031 27.9027H139.802C140.46 27.9031 140.999 28.4423 140.999 29.1017Z" fill="white"/>
<path d="M93.9421 16.1896C93.9421 16.5186 93.8081 16.8188 93.5894 17.0355C93.3736 17.2542 93.0738 17.3882 92.7447 17.3882H67.1228C66.4647 17.3882 65.9258 16.849 65.9258 16.1896C65.9258 15.8605 66.0598 15.5607 66.2784 15.3436C66.4939 15.125 66.7941 14.991 67.1231 14.991H68.3343C68.8125 13.8795 69.9171 13.1024 71.2028 13.1024C72.0683 13.1024 72.8507 13.4548 73.4176 14.0229C74.1723 12.7429 75.5644 11.8831 77.1584 11.8831C77.5966 11.8831 78.0182 11.9494 78.4165 12.0696C79.2502 10.502 80.898 9.43457 82.7975 9.43457C85.0787 9.43457 86.9974 10.9748 87.5765 13.0703C87.9968 12.8602 88.471 12.74 88.9743 12.74C90.3969 12.74 91.5968 13.6898 91.9743 14.9906H92.7457C93.4029 14.991 93.9421 15.5302 93.9421 16.1896Z" fill="white"/>
<path d="M11.9188 44.4215C12.9579 47.9144 16.4465 47.8056 16.3722 50.6413C16.298 53.4765 18.0799 55.6293 20.5287 55.1099C22.9784 54.5898 24.7518 54.0704 25.8696 56.8911C26.9864 59.7118 30.5495 61.1218 31.9595 58.8948C32.3109 58.3407 32.6903 57.7402 33.0612 57.1506C33.1625 56.9896 33.2638 56.8294 33.3632 56.6715C33.3865 56.635 33.4098 56.5985 33.4324 56.562C34.9255 54.1915 34.4325 51.0503 32.2313 49.3175C31.3401 48.6163 30.2742 48.2221 29.0652 48.5779C25.2797 49.6909 26.6438 45.8837 24.3884 44.273C21.7908 42.4169 19.5625 44.5177 17.7829 42.9366C15.307 40.7379 10.88 40.9285 11.9188 44.4215Z" fill="#FFFCF9"/>
<path d="M16.4351 45.9316L33.0612 57.1511C33.1625 56.99 33.2638 56.8299 33.3632 56.6719L16.7522 45.4626C16.6226 45.3751 16.4464 45.4091 16.3593 45.5387C16.2715 45.668 16.3055 45.8442 16.4351 45.9316Z" fill="#FFFCF9"/>
<path d="M94.1679 27.5963C98.0824 25.9654 101.489 23.6997 99.5988 22.3422C97.7074 20.9831 91.9201 24.993 89.2417 29.7166L87.9462 31.1056C89.9583 27.6972 90.5472 22.7729 88.8066 21.8379C87.0769 20.9086 86.9826 24.2219 87.401 27.2628C87.7197 29.5773 87.3975 31.1656 87.1543 31.9547L81.0361 38.5149C84.2069 33.1083 85.1286 25.3349 82.3744 23.8554C79.6298 22.3809 79.4801 27.6384 80.1439 32.463C80.6457 36.1092 80.1458 38.6209 79.761 39.8818L78.541 41.1899C78.7345 41.4369 78.9295 41.6829 79.1262 41.9276L86.405 34.1229C87.2761 33.9023 88.5348 33.7211 90.1744 33.8312C93.237 34.037 96.5356 33.712 95.4883 32.0512C94.5794 30.6101 90.8316 31.1034 87.7266 32.7059L90.2437 30.0067C91.1651 29.3048 92.4782 28.3 94.1679 27.5963Z" fill="white"/>
<path d="M16.3157 30.3224C15.9064 33.7003 18.9347 34.9042 17.8166 37.3052C16.6989 39.7056 17.424 42.2119 19.7146 42.6775C22.0058 43.1432 23.7178 43.3577 23.6259 46.1887C23.5334 49.0198 26.0603 51.5523 28.096 50.1693C28.6031 49.8255 29.1512 49.452 29.6882 49.0855C29.8348 48.9852 29.9811 48.8858 30.1248 48.7873C30.1585 48.7647 30.1919 48.742 30.2249 48.7194C32.3849 47.2445 33.1308 44.371 31.89 42.0685C31.3876 41.1367 30.6213 40.4024 29.4538 40.2577C25.7979 39.8034 28.382 37.0498 27.0497 34.8319C25.5154 32.2767 22.8259 33.2469 21.8897 31.231C20.5869 28.4276 16.7246 26.9446 16.3157 30.3224Z" fill="white"/>
<path d="M19.6214 33.2948L29.6879 49.0856C29.8345 48.9852 29.9808 48.8858 30.1245 48.7874L20.0675 33.011C19.9892 32.888 19.8256 32.8515 19.7026 32.9302C19.5793 33.0082 19.5431 33.1718 19.6214 33.2948Z" fill="#FFFCF9"/>
<path d="M97.4561 98.4399C96.3918 102.018 92.8183 101.906 92.8945 104.811C92.9706 107.715 91.1453 109.921 88.6367 109.388C86.1275 108.856 84.3107 108.324 83.1659 111.213C82.0217 114.102 78.3724 115.546 76.9278 113.265C76.5676 112.698 76.1794 112.082 75.799 111.479C75.6952 111.314 75.5917 111.15 75.4898 110.988C75.4659 110.951 75.442 110.913 75.419 110.876C73.8897 108.448 74.3947 105.23 76.6494 103.456C77.5623 102.737 78.654 102.333 79.8922 102.698C83.7699 103.838 82.3725 99.938 84.6826 98.2883C87.3431 96.3872 89.6255 98.539 91.4489 96.9192C93.9855 94.6667 98.5204 94.8617 97.4561 98.4399Z" fill="#FFFCF9"/>
<path d="M92.8301 99.9871L75.7995 111.479C75.6957 111.314 75.5922 111.15 75.4902 110.989L92.5051 99.5068C92.6379 99.4171 92.8181 99.452 92.9078 99.5848C92.9975 99.7172 92.9629 99.8978 92.8301 99.9871Z" fill="#FFFCF9"/>
<path d="M91.2772 85.2281C91.6963 88.688 88.5947 89.9212 89.7398 92.3807C90.885 94.8396 90.1419 97.4067 87.7956 97.8837C85.4487 98.3606 83.6949 98.5805 83.7889 101.48C83.8836 104.38 81.2951 106.974 79.21 105.558C78.6906 105.206 78.129 104.823 77.5791 104.448C77.4291 104.345 77.279 104.243 77.1318 104.142C77.0975 104.119 77.0632 104.096 77.0292 104.073C74.8167 102.562 74.0525 99.6186 75.3235 97.2601C75.8382 96.3056 76.6231 95.5534 77.8189 95.4053C81.5635 94.94 78.9165 92.1196 80.2815 89.8476C81.8532 87.2302 84.6078 88.224 85.567 86.1593C86.9022 83.2874 90.8582 81.7682 91.2772 85.2281Z" fill="white"/>
<path d="M87.8913 88.2725L77.5802 104.447C77.4301 104.345 77.28 104.243 77.1328 104.142L87.4346 87.9818C87.5148 87.8557 87.6825 87.8186 87.8083 87.8988C87.9344 87.979 87.9719 88.1464 87.8913 88.2725Z" fill="#FFFCF9"/>
<path d="M138.591 75.6191C139.539 75.6191 140.31 76.3905 140.31 77.3387C140.31 78.2869 139.539 79.0583 138.591 79.0583C137.642 79.0583 136.871 78.2869 136.871 77.3387C136.871 76.3905 137.642 75.6191 138.591 75.6191ZM138.591 76.1584C137.94 76.1584 137.411 76.6878 137.411 77.3384C137.411 77.989 137.94 78.5185 138.591 78.5185C139.242 78.5185 139.771 77.989 139.771 77.3384C139.771 76.6878 139.242 76.1584 138.591 76.1584Z" fill="#FF914C"/>
<path d="M136.843 66.8779C137.791 66.8779 138.562 67.6493 138.562 68.5975C138.562 69.5457 137.791 70.3171 136.843 70.3171C135.894 70.3171 135.123 69.5457 135.123 68.5975C135.123 67.6496 135.894 66.8779 136.843 66.8779ZM136.843 67.4175C136.192 67.4175 135.663 67.9469 135.663 68.5975C135.663 69.2481 136.192 69.7775 136.843 69.7775C137.494 69.7775 138.023 69.2481 138.023 68.5975C138.023 67.9469 137.493 67.4175 136.843 67.4175Z" fill="#FF914C"/>
<path d="M131.611 64.4581C131.611 64.6069 131.732 64.7277 131.881 64.7277H133.07C133.22 64.7277 133.34 64.6069 133.34 64.4581C133.34 64.3093 133.219 64.1885 133.07 64.1885H131.881C131.732 64.1882 131.611 64.309 131.611 64.4581Z" fill="#1A1A1A"/>
<path d="M129.529 64.4581C129.529 64.6069 129.65 64.7277 129.799 64.7277H130.988C131.138 64.7277 131.258 64.6069 131.258 64.4581C131.258 64.3093 131.137 64.1885 130.988 64.1885H129.799C129.65 64.1882 129.529 64.309 129.529 64.4581Z" fill="#1A1A1A"/>
<path d="M131.166 62.7862V63.8549C131.166 64.004 131.287 64.1248 131.436 64.1248C131.585 64.1248 131.706 64.004 131.706 63.8549V62.7862C131.706 62.6374 131.585 62.5166 131.436 62.5166C131.287 62.5166 131.166 62.6374 131.166 62.7862Z" fill="#1A1A1A"/>
<path d="M131.166 65.0577V66.1264C131.166 66.2752 131.287 66.396 131.436 66.396C131.585 66.396 131.706 66.2752 131.706 66.1264V65.0577C131.706 64.9086 131.585 64.7881 131.436 64.7881C131.287 64.7878 131.166 64.9086 131.166 65.0577Z" fill="#1A1A1A"/>
<path d="M133.549 73.6439C133.549 73.7928 133.67 73.9136 133.818 73.9136H135.008C135.157 73.9136 135.278 73.7928 135.278 73.6439C135.278 73.4948 135.157 73.374 135.008 73.374H133.818C133.67 73.374 133.549 73.4948 133.549 73.6439Z" fill="#FF914C"/>
<path d="M131.467 73.6439C131.467 73.7928 131.588 73.9136 131.737 73.9136H132.926C133.075 73.9136 133.196 73.7928 133.196 73.6439C133.196 73.4948 133.075 73.374 132.926 73.374H131.737C131.588 73.374 131.467 73.4948 131.467 73.6439Z" fill="#FF914C"/>
<path d="M133.104 71.9737V73.0424C133.104 73.1912 133.224 73.312 133.373 73.312C133.522 73.312 133.643 73.1912 133.643 73.0424V71.9737C133.643 71.8249 133.522 71.7041 133.373 71.7041C133.224 71.7041 133.104 71.8249 133.104 71.9737Z" fill="#FF914C"/>
<path d="M133.104 74.2452V75.3139C133.104 75.4627 133.224 75.5835 133.373 75.5835C133.522 75.5835 133.643 75.4627 133.643 75.3139V74.2452C133.643 74.0964 133.522 73.9756 133.373 73.9756C133.224 73.9756 133.104 74.0964 133.104 74.2452Z" fill="#FF914C"/>
<path d="M8.23017 34.0086C8.23017 34.9568 7.45879 35.7282 6.51059 35.7282C5.5624 35.7282 4.79102 34.9568 4.79102 34.0086C4.79102 33.0604 5.5624 32.2891 6.51059 32.2891C7.45879 32.2891 8.23017 33.0604 8.23017 34.0086ZM5.33055 34.0086C5.33055 34.6592 5.86001 35.1887 6.51059 35.1887C7.16149 35.1887 7.69064 34.6592 7.69064 34.0086C7.69064 33.3581 7.16118 32.8286 6.51059 32.8286C5.86001 32.8286 5.33055 33.3577 5.33055 34.0086Z" fill="#FF914C"/>
<path d="M9.98017 25.2704C9.98017 26.2186 9.20879 26.9899 8.26059 26.9899C7.3124 26.9899 6.54102 26.2186 6.54102 25.2704C6.54102 24.3222 7.3124 23.5508 8.26059 23.5508C9.20879 23.5508 9.98017 24.3222 9.98017 25.2704ZM7.08055 25.2704C7.08055 25.9209 7.61001 26.4504 8.26059 26.4504C8.91149 26.4504 9.44064 25.9209 9.44064 25.2704C9.44064 24.6198 8.91118 24.0903 8.26059 24.0903C7.61001 24.09 7.08055 24.6195 7.08055 25.2704Z" fill="#1A1A1A"/>
<path d="M13.4904 21.127C13.4904 21.2758 13.3696 21.3966 13.2208 21.3966H12.0313C11.8825 21.3966 11.7617 21.2758 11.7617 21.127C11.7617 20.9779 11.8825 20.8574 12.0313 20.8574H13.2208C13.3696 20.8574 13.4904 20.9782 13.4904 21.127Z" fill="#FF914C"/>
<path d="M15.5725 21.127C15.5725 21.2758 15.4516 21.3966 15.3028 21.3966H14.1134C13.9642 21.3966 13.8438 21.2758 13.8438 21.127C13.8438 20.9779 13.9646 20.8574 14.1134 20.8574H15.3028C15.4516 20.8574 15.5725 20.9782 15.5725 21.127Z" fill="#FF914C"/>
<path d="M13.9357 19.4571V20.5258C13.9357 20.6749 13.8149 20.7957 13.6661 20.7957C13.517 20.7957 13.3965 20.6749 13.3965 20.5258V19.4571C13.3965 19.3083 13.5173 19.1875 13.6661 19.1875C13.8149 19.1872 13.9357 19.308 13.9357 19.4571Z" fill="#FF914C"/>
<path d="M13.9357 21.7286V22.7973C13.9357 22.9461 13.8149 23.0669 13.6661 23.0669C13.517 23.0669 13.3965 22.9461 13.3965 22.7973V21.7286C13.3965 21.5795 13.5173 21.459 13.6661 21.459C13.8149 21.459 13.9357 21.5795 13.9357 21.7286Z" fill="#FF914C"/>
<path d="M11.551 30.3126C11.551 30.4614 11.4302 30.5822 11.2814 30.5822H10.0919C9.94276 30.5822 9.82227 30.4614 9.82227 30.3126C9.82227 30.1635 9.94307 30.043 10.0919 30.043H11.2814C11.4302 30.0427 11.551 30.1635 11.551 30.3126Z" fill="#FF914C"/>
<path d="M13.6317 30.3126C13.6317 30.4614 13.5109 30.5822 13.3618 30.5822H12.1723C12.0231 30.5822 11.9023 30.4614 11.9023 30.3126C11.9023 30.1635 12.0231 30.043 12.1723 30.043H13.3618C13.5109 30.0427 13.6317 30.1635 13.6317 30.3126Z" fill="#FF914C"/>
<path d="M11.9982 28.6417V29.7104C11.9982 29.8592 11.8774 29.98 11.7286 29.98C11.5795 29.98 11.459 29.8592 11.459 29.7104V28.6417C11.459 28.4929 11.5798 28.3721 11.7286 28.3721C11.8774 28.3721 11.9982 28.4929 11.9982 28.6417Z" fill="#FF914C"/>
<path d="M11.9982 30.9132V31.9818C11.9982 32.1306 11.8774 32.2515 11.7286 32.2515C11.5795 32.2515 11.459 32.1306 11.459 31.9818V30.9132C11.459 30.7644 11.5798 30.6436 11.7286 30.6436C11.8774 30.6432 11.9982 30.764 11.9982 30.9132Z" fill="#FF914C"/>
<path d="M113.484 34.5577V38.8981C113.484 39.472 113.95 39.9372 114.523 39.9372H122.405L124.784 40.7911C125.028 40.8788 125.262 40.6385 125.168 40.3969L124.268 38.0726V34.5577C124.268 33.9838 123.803 33.5186 123.229 33.5186H114.523C113.95 33.5186 113.484 33.9838 113.484 34.5577Z" fill="#FF914C"/>
<g opacity="0.5">
<path d="M120.33 36.8515C120.33 37.2668 120.667 37.6034 121.082 37.6034C121.497 37.6034 121.834 37.2668 121.834 36.8515C121.834 36.4362 121.497 36.0996 121.082 36.0996C120.667 36.0999 120.33 36.4362 120.33 36.8515Z" fill="#FF914C"/>
<path d="M117.949 36.8515C117.949 37.2668 118.286 37.6034 118.701 37.6034C119.116 37.6034 119.453 37.2668 119.453 36.8515C119.453 36.4362 119.116 36.0996 118.701 36.0996C118.286 36.0999 117.949 36.4362 117.949 36.8515Z" fill="#FF914C"/>
<path d="M115.57 36.8515C115.57 37.2668 115.907 37.6034 116.322 37.6034C116.737 37.6034 117.074 37.2668 117.074 36.8515C117.074 36.4362 116.737 36.0996 116.322 36.0996C115.907 36.0996 115.57 36.4362 115.57 36.8515Z" fill="#FF914C"/>
</g>
<path d="M28.6074 33.8166V114.956C28.6074 117.499 30.6686 119.56 33.2122 119.56H73.6175C74.8954 119.56 76.0506 119.04 76.8856 118.201C77.7117 117.368 78.2223 116.221 78.2223 114.956V33.8166C78.2223 31.2731 76.1611 29.2119 73.6175 29.2119H33.2122C32.4603 29.2119 31.7505 29.3919 31.1236 29.7118C29.6295 30.4728 28.6074 32.025 28.6074 33.8166Z" fill="#1A1A1A"/>
<path d="M30.3223 33.8166V114.956C30.3223 117.499 32.3835 119.56 34.927 119.56H75.3324C76.6103 119.56 77.7655 119.04 78.6001 118.201C79.4262 117.368 79.9371 116.221 79.9371 114.956V33.8166C79.9371 31.2731 77.8759 29.2119 75.3324 29.2119H34.927C34.1751 29.2119 33.4654 29.3919 32.8384 29.7118C31.3444 30.4728 30.3223 32.025 30.3223 33.8166Z" fill="#1A1A1A"/>
<path d="M29.4516 49.1677H28.9287C28.2712 49.1677 27.7383 48.6348 27.7383 47.9773V43.0303C27.7383 42.3728 28.2712 41.8398 28.9287 41.8398H29.4516V49.1677Z" fill="#1A1A1A"/>
<path d="M29.4516 58.7517H28.9287C28.2712 58.7517 27.7383 58.2188 27.7383 57.5613V52.6143C27.7383 51.9568 28.2712 51.4238 28.9287 51.4238H29.4516V58.7517Z" fill="#1A1A1A"/>
<path d="M79.9395 49.1677H80.3491C80.8644 49.1677 81.2818 48.7499 81.2818 48.2349V42.7726C81.2818 42.2576 80.8644 41.8398 80.3491 41.8398H79.9395V49.1677Z" fill="#1A1A1A"/>
<path d="M77.6384 33.5389V115.235C77.6384 115.516 77.5811 115.784 77.4773 116.028C77.1674 116.756 76.4486 117.263 75.6102 117.263H34.6473C33.5283 117.263 32.6191 116.357 32.6191 115.234V33.5389C32.6191 33.4257 32.6276 33.314 32.6465 33.2054C32.7607 32.5155 33.2254 31.9423 33.8505 31.6718C33.981 31.6167 34.1169 31.5743 34.2588 31.5475C34.384 31.5223 34.5146 31.5098 34.6473 31.5098H75.6102C76.7301 31.5098 77.6384 32.4189 77.6384 33.5389Z" fill="white"/>
<path d="M77.6403 33.5389V37.7277H32.6211V33.5389C32.6211 33.4257 32.6296 33.314 32.6485 33.2054C32.7627 32.5155 33.2273 31.9423 33.8524 31.6718C33.983 31.6167 34.1189 31.5743 34.2608 31.5475C34.386 31.5223 34.5165 31.5098 34.6493 31.5098H75.6121C76.7321 31.5098 77.6403 32.4189 77.6403 33.5389Z" fill="white"/>
<path d="M70.5331 31.5075L68.4442 34.6859C67.8615 35.5724 66.8718 36.1066 65.8107 36.1066H45.6228C44.5617 36.1066 43.5719 35.5727 42.9893 34.6859L40.9004 31.5075C40.9004 31.1781 41.1697 30.9082 41.5 30.9082H69.9338C70.2632 30.9082 70.5331 31.1784 70.5331 31.5075Z" fill="#1A1A1A"/>
<path opacity="0.3" d="M62.8793 33.8046H45.3529C45.0644 33.8046 44.8281 33.5683 44.8281 33.2798V33.0511C44.8281 32.7626 45.0644 32.5264 45.3529 32.5264H62.8793C63.1678 32.5264 63.404 32.7626 63.404 33.0511V33.2798C63.4044 33.5686 63.1681 33.8046 62.8793 33.8046Z" fill="white"/>
<path opacity="0.3" d="M66.7937 33.1234C66.7937 33.5469 66.4505 33.8904 66.0267 33.8904C65.603 33.8904 65.2598 33.5472 65.2598 33.1234C65.2598 32.7 65.603 32.3564 66.0267 32.3564C66.4505 32.3564 66.7937 32.6997 66.7937 33.1234Z" fill="white"/>
<path d="M36.4668 88.0487C36.4668 88.4231 36.7701 88.7264 37.1444 88.7264H53.3401C53.7142 88.7264 54.0178 88.4231 54.0178 88.0487C54.0178 87.6747 53.7145 87.3711 53.3401 87.3711H37.1444C36.7701 87.3714 36.4668 87.6747 36.4668 88.0487Z" fill="#F3E0C8"/>
<path d="M57.0098 88.0487C57.0098 88.4231 57.313 88.7264 57.6874 88.7264H73.8834C74.2575 88.7264 74.5611 88.4231 74.5611 88.0487C74.5611 87.6747 74.2578 87.3711 73.8834 87.3711H57.6874C57.313 87.3714 57.0098 87.6747 57.0098 88.0487Z" fill="#F3E0C8"/>
<path d="M36.4668 91.8271C36.4668 92.2014 36.7701 92.5047 37.1444 92.5047H53.3401C53.7142 92.5047 54.0178 92.2014 54.0178 91.8271C54.0178 91.453 53.7145 91.1494 53.3401 91.1494H37.1444C36.7701 91.1497 36.4668 91.453 36.4668 91.8271Z" fill="#F3E0C8"/>
<path d="M57.0098 91.8271C57.0098 92.2014 57.313 92.5047 57.6874 92.5047H73.8834C74.2575 92.5047 74.5611 92.2014 74.5611 91.8271C74.5611 91.453 74.2578 91.1494 73.8834 91.1494H57.6874C57.313 91.1497 57.0098 91.453 57.0098 91.8271Z" fill="#F3E0C8"/>
<path d="M36.4668 95.6034C36.4668 95.9775 36.7701 96.2811 37.1444 96.2811H53.3401C53.7142 96.2811 54.0178 95.9778 54.0178 95.6034C54.0178 95.2294 53.7145 94.9258 53.3401 94.9258H37.1444C36.7701 94.9261 36.4668 95.2294 36.4668 95.6034Z" fill="#F3E0C8"/>
<path d="M57.0098 95.6034C57.0098 95.9775 57.313 96.2811 57.6874 96.2811H73.8834C74.2575 96.2811 74.5611 95.9778 74.5611 95.6034C74.5611 95.2294 74.2578 94.9258 73.8834 94.9258H57.6874C57.313 94.9261 57.0098 95.2294 57.0098 95.6034Z" fill="#F3E0C8"/>
<path d="M36.4668 99.3817C36.4668 99.7558 36.7701 100.059 37.1444 100.059H53.3401C53.7142 100.059 54.0178 99.7561 54.0178 99.3817C54.0178 99.0077 53.7145 98.7041 53.3401 98.7041H37.1444C36.7701 98.7041 36.4668 99.0077 36.4668 99.3817Z" fill="#F3E0C8"/>
<path d="M57.0098 99.3817C57.0098 99.7558 57.313 100.059 57.6874 100.059H73.8834C74.2575 100.059 74.5611 99.7561 74.5611 99.3817C74.5611 99.0077 74.2578 98.7041 73.8834 98.7041H57.6874C57.313 98.7041 57.0098 99.0077 57.0098 99.3817Z" fill="#F3E0C8"/>
<path d="M46.8282 108.189H37.6234C36.9876 108.189 36.4727 107.674 36.4727 107.038V105.913C36.4727 105.277 36.988 104.762 37.6234 104.762H46.8279C47.4637 104.762 47.979 105.277 47.979 105.913V107.038C47.979 107.674 47.4637 108.189 46.8282 108.189Z" fill="#F3E0C8"/>
<path d="M60.2208 108.189H51.0163C50.3805 108.189 49.8652 107.674 49.8652 107.038V105.913C49.8652 105.277 50.3805 104.762 51.0163 104.762H60.2208C60.8566 104.762 61.3716 105.277 61.3716 105.913V107.038C61.3719 107.674 60.8566 108.189 60.2208 108.189Z" fill="#F3E0C8"/>
<path d="M73.4083 108.189H64.2035C63.568 108.189 63.0527 107.674 63.0527 107.038V105.913C63.0527 105.277 63.568 104.762 64.2035 104.762H73.4083C74.0438 104.762 74.5591 105.277 74.5591 105.913V107.038C74.5591 107.674 74.0438 108.189 73.4083 108.189Z" fill="#F3E0C8"/>
<path d="M77.6374 49.9079V80.7575H38.8887V49.9079H40.6705L40.6542 49.8906L40.6737 49.9079H77.6374Z" fill="white"/>
<path d="M85.7091 47.5234H41.0488V78.3733H85.7091V47.5234Z" fill="#1A1A1A"/>
<path d="M87.4962 47.5234H42.8359V78.3733H87.4962V47.5234Z" fill="#FF914C"/>
<path d="M42.8145 47.5059L63.4938 69.0314C64.4007 69.9755 65.9111 69.9755 66.8181 69.0314L87.4974 47.5059L66.6885 66.0264C65.8148 66.8038 64.4973 66.8038 63.6237 66.0264L42.8145 47.5059Z" fill="#1A1A1A"/>
<path d="M60.8635 63.4882L44.1296 78.3726H42.8359V77.5861L59.9015 62.4072L60.8635 63.4882Z" fill="#1A1A1A"/>
<path d="M87.4984 77.6906V78.3726H86.0878L69.3535 63.4882L70.3155 62.4072L87.4984 77.6906Z" fill="#1A1A1A"/>
<path d="M42.8359 47.5234L63.6942 66.0742C64.5336 66.8207 65.7989 66.8207 66.6382 66.0742L87.4965 47.5234H42.8359Z" fill="#FF914C"/>
<g opacity="0.5">
<path d="M64.6258 50.4122H49.1675C48.6532 50.4122 48.2363 49.9954 48.2363 49.481C48.2363 48.9666 48.6532 48.5498 49.1675 48.5498H64.6258C65.1402 48.5498 65.557 48.9666 65.557 49.481C65.557 49.9954 65.1402 50.4122 64.6258 50.4122Z" fill="#FF914C"/>
</g>
<g opacity="0.5">
<path d="M69.3551 50.4122H67.7906C67.2762 50.4122 66.8594 49.9954 66.8594 49.481C66.8594 48.9666 67.2762 48.5498 67.7906 48.5498H69.3551C69.8694 48.5498 70.2863 48.9666 70.2863 49.481C70.2863 49.9954 69.8694 50.4122 69.3551 50.4122Z" fill="#FF914C"/>
</g>
<path d="M80.4889 50.124H75.7769C74.528 50.124 73.5156 49.1116 73.5156 47.8627V43.1506C73.5156 41.902 74.528 40.8896 75.7766 40.8896H80.4889C81.7379 40.8896 82.7499 41.902 82.7499 43.1506V47.8627C82.7499 49.1119 81.7376 50.124 80.4889 50.124Z" fill="#1A1A1A"/>
<path d="M81.3054 50.124H76.5933C75.3444 50.124 74.332 49.1116 74.332 47.8627V43.1506C74.332 41.902 75.3444 40.8896 76.593 40.8896H81.305C82.554 40.8896 83.5664 41.902 83.5664 43.1506V47.8627C83.5664 49.1119 82.554 50.124 81.3054 50.124Z" fill="#FF914C"/>
<path d="M79.3699 57.4383L78.2977 47.1446H84.7312L83.659 57.4383H79.3699ZM81.5144 64.0625C80.5931 64.0625 79.8385 63.7845 79.2508 63.2285C78.663 62.6566 78.3691 61.9815 78.3691 61.2031C78.3691 60.4089 78.663 59.7417 79.2508 59.2016C79.8385 58.6615 80.5931 58.3914 81.5144 58.3914C82.4517 58.3914 83.2062 58.6615 83.7781 59.2016C84.3659 59.7417 84.6597 60.4089 84.6597 61.2031C84.6597 61.9815 84.3659 62.6566 83.7781 63.2285C83.2062 63.7845 82.4517 64.0625 81.5144 64.0625Z" fill="white"/>
<path d="M96.2094 114.335L96.0332 117.509L98.6088 117.565L98.9237 114.23L96.2094 114.335Z" fill="#F3E0C8"/>
<path d="M97.0539 117.063C97.0539 117.063 98.3799 116.762 98.7426 116.783C99.1054 116.804 101.434 119.615 102.246 119.807C103.72 120.153 103.634 122.471 102.726 122.552C100.1 122.786 95.6719 121.513 95.6719 121.513C95.6719 121.513 95.3727 118.522 95.5872 117.596C95.8012 116.669 96.3133 117.31 97.0539 117.063Z" fill="#FF914C"/>
<path d="M99.1216 119.685C99.0745 119.694 99.0244 119.684 98.9826 119.653C98.9017 119.595 98.8841 119.481 98.9429 119.4C98.9625 119.373 99.4315 118.736 99.9896 118.529C100.732 118.252 101.236 118.711 101.257 118.731C101.33 118.799 101.334 118.913 101.266 118.987C101.198 119.06 101.083 119.064 101.01 118.996C100.996 118.983 100.644 118.672 100.115 118.868C99.6609 119.037 99.2399 119.608 99.2358 119.614C99.2072 119.653 99.1657 119.677 99.1216 119.685Z" fill="white"/>
<path d="M98.6433 119.118C98.5964 119.126 98.5461 119.116 98.5042 119.086C98.4234 119.027 98.4054 118.914 98.4646 118.833C98.4841 118.806 98.9531 118.168 99.5112 117.961C100.254 117.685 100.757 118.143 100.778 118.164C100.852 118.232 100.855 118.346 100.787 118.419C100.719 118.493 100.604 118.497 100.531 118.428C100.517 118.416 100.166 118.105 99.6371 118.301C99.1803 118.47 98.7615 119.04 98.7575 119.046C98.7288 119.085 98.6873 119.11 98.6433 119.118Z" fill="white"/>
<path d="M99.8034 120.178C99.7565 120.186 99.7062 120.176 99.6644 120.146C99.5835 120.087 99.5656 119.974 99.6247 119.893C99.6442 119.866 100.113 119.228 100.671 119.021C101.414 118.744 101.918 119.203 101.939 119.223C102.012 119.291 102.016 119.406 101.947 119.479C101.879 119.552 101.765 119.556 101.691 119.488C101.677 119.476 101.326 119.165 100.797 119.36C100.34 119.53 99.9217 120.1 99.9176 120.106C99.889 120.145 99.8478 120.17 99.8034 120.178Z" fill="white"/>
<path d="M105.68 75.6502C105.68 75.6502 105.627 76.3958 105.529 77.6321C105.504 77.9593 105.476 78.3211 105.444 78.7143C105.111 82.8638 104.466 90.367 103.761 95.6899C102.774 103.152 99.6622 115.415 99.6622 115.415L96.4502 115.305L96.1324 115.292L95.3711 115.267C95.3711 115.267 95.9059 107.509 96.5886 100.774C97.0384 96.3317 97.3059 85.821 97.4348 79.1831C97.5009 75.7603 97.5324 73.3662 97.5324 73.3662L105.68 75.6502Z" fill="#1A1A1A"/>
<path d="M105.681 75.6502C105.681 75.6502 105.628 76.3958 105.53 77.6321C105.505 77.9593 105.477 78.3211 105.445 78.7143C103.963 78.9912 99.8894 79.1831 97.4355 79.1831C97.5016 75.7603 97.5331 73.3662 97.5331 73.3662L105.681 75.6502Z" fill="#1A1A1A"/>
<path d="M99.265 77.5764C99.2618 77.8312 98.9661 102.014 96.4525 115.303L96.1348 115.29C98.6515 102.042 98.9473 77.8249 98.9504 77.5732L99.265 77.5764Z" fill="#1A1A1A"/>
<path d="M116.355 114.944L116.249 117.808L113.631 117.669L113.572 114.628L116.355 114.944Z" fill="#F3E0C8"/>
<path d="M115.581 117.677C115.581 117.677 116.151 116.933 116.595 116.972C117.039 117.011 120.426 119.786 121.596 120.028C122.767 120.271 122.526 121.132 122.304 121.571C122.083 122.009 112.941 121.266 112.941 121.266C112.941 121.266 112.73 118.538 113.041 117.71C113.353 116.881 114.66 117.86 115.581 117.677Z" fill="#FF914C"/>
<path d="M117.448 119.606C117.406 119.618 117.359 119.614 117.319 119.59C117.241 119.543 117.215 119.443 117.261 119.364C117.276 119.338 117.644 118.721 118.131 118.485C118.777 118.17 119.273 118.541 119.293 118.556C119.365 118.611 119.379 118.715 119.324 118.787C119.269 118.859 119.166 118.873 119.093 118.817C119.08 118.807 118.735 118.558 118.274 118.781C117.878 118.973 117.548 119.526 117.544 119.532C117.522 119.57 117.487 119.595 117.448 119.606Z" fill="white"/>
<path d="M116.963 119.134C116.922 119.146 116.875 119.142 116.835 119.118C116.757 119.072 116.731 118.971 116.777 118.893C116.792 118.867 117.16 118.249 117.646 118.013C118.293 117.698 118.788 118.069 118.809 118.085C118.881 118.14 118.895 118.243 118.84 118.315C118.785 118.387 118.681 118.401 118.609 118.346C118.595 118.336 118.25 118.086 117.79 118.309C117.392 118.502 117.063 119.055 117.06 119.06C117.038 119.098 117.003 119.123 116.963 119.134Z" fill="white"/>
<path d="M118.106 119.991C118.064 120.003 118.018 119.998 117.978 119.975C117.899 119.928 117.873 119.828 117.919 119.749C117.935 119.723 118.303 119.106 118.789 118.87C119.436 118.555 119.931 118.925 119.952 118.941C120.024 118.996 120.038 119.1 119.982 119.172C119.927 119.244 119.824 119.258 119.752 119.202C119.738 119.192 119.393 118.942 118.933 119.166C118.535 119.359 118.206 119.911 118.203 119.917C118.18 119.954 118.145 119.98 118.106 119.991Z" fill="white"/>
<path d="M116.832 115.691L114.17 115.493L113.853 115.471L113.207 115.423C113.207 115.423 111.572 99.864 111.064 95.7195C110.622 92.1189 108.558 84.0294 107.218 78.9959C106.838 77.567 106.516 76.3844 106.304 75.6203C106.143 75.0194 106.047 74.6778 106.047 74.6778L114.943 73.8164C114.943 73.8164 114.968 74.0118 115.009 74.3635C115.096 75.0833 115.262 76.4625 115.463 78.1959C116.019 82.9142 116.864 90.2568 117.191 93.9946C118.031 103.62 116.832 115.691 116.832 115.691Z" fill="#1A1A1A"/>
<path d="M115.464 78.1957L107.218 78.9954C106.839 77.5665 106.517 76.3839 106.305 75.6198L115.01 74.3633C115.096 75.0831 115.262 76.4623 115.464 78.1957Z" fill="#1A1A1A"/>
<path d="M114.172 115.492L113.855 115.47C113.7 110.659 113.228 98.6423 112.264 93.5484C111.053 87.1272 108.267 77.7771 108.238 77.6828L108.541 77.5928C108.57 77.6875 111.36 87.0536 112.573 93.4909C113.544 98.6169 114.02 110.69 114.172 115.492Z" fill="#1A1A1A"/>
<path d="M115.383 51.885C115.522 53.0978 115.669 54.2612 115.798 55.2361C116.005 56.8084 116.166 57.8888 116.166 57.8888L117.441 61.9958C117.877 63.4008 119.466 64.0803 120.784 63.4266C120.807 63.4162 120.83 63.4042 120.853 63.3929C123.128 62.2264 121.709 57.7362 121.709 57.7362L121.271 57.7161C121.078 57.2256 120.557 55.9751 119.895 54.4046C119.814 54.2118 119.731 54.0133 119.646 53.8122C119.505 53.4785 119.36 53.1333 119.211 52.7807C119 52.2808 118.782 51.7655 118.562 51.2464C116.94 47.4118 115.212 43.3535 115.212 43.3535C114.595 43.6706 114.944 48.0246 115.383 51.885Z" fill="#F3E0C8"/>
<path d="M115.385 51.8847C115.524 53.0975 115.67 54.2609 115.799 55.2358C117.487 54.6676 118.593 53.5735 119.213 52.7804C119.002 52.2805 118.784 51.7652 118.563 51.2461L115.385 51.8847Z" fill="#FD857D"/>
<path d="M118.941 59.2776C118.951 59.2786 118.959 59.2786 118.969 59.2783C119.058 59.2761 119.134 59.2097 119.145 59.1194C119.414 56.9607 119.703 55.3631 119.897 54.4046C119.817 54.212 119.733 54.0135 119.649 53.8125C119.465 54.6578 119.109 56.4576 118.783 59.0741C118.77 59.1735 118.841 59.2644 118.941 59.2776Z" fill="#FD857D"/>
<path d="M120.41 51.0795C120.41 51.0795 120.043 51.5373 119.396 52.0456C118.614 52.6645 117.164 53.4374 115.714 53.4868C115.407 48.3341 115.111 43.4006 114.703 42.1309C115.392 42.9391 118.887 47.4242 120.41 51.0795Z" fill="#FF914C"/>
<path d="M119.273 59.3717C119.273 59.3717 119.425 54.1997 120.492 53.0666C121.557 51.9334 122.55 51.4823 123.584 51.4864C124.618 51.4904 125.593 51.5873 125.544 52.0142C125.544 52.0142 127.905 51.5792 128.984 52.1602C130.063 52.741 125.883 53.4142 124.639 53.4869C123.393 53.5592 122.758 54.2768 122.731 55.0211C122.705 55.7655 122.144 60.7075 122.144 60.7075L119.273 59.3717Z" fill="#F3E0C8"/>
<path d="M116.573 75.7165C109.621 77.667 102.621 77.84 95.5646 76.2513C95.4923 74.2505 95.3507 67.5276 95.3161 60.5908C95.3161 60.2258 95.3129 59.8578 95.3129 59.4897V58.9612C95.3098 58.7787 95.3098 58.5931 95.3098 58.4106C95.3098 58.225 95.3098 58.0426 95.3066 57.8601C95.3098 57.6776 95.3066 57.4952 95.3098 57.3095C95.3066 57.1334 95.3098 56.9572 95.3066 56.781C95.3066 56.5986 95.3066 56.413 95.3098 56.2336C95.3098 56.0512 95.3129 55.8656 95.3129 55.6831C95.3129 55.4975 95.3129 55.315 95.3161 55.1325C95.3161 54.9564 95.3161 54.7802 95.3192 54.604C95.3192 54.2548 95.3224 53.9025 95.3255 53.5596V53.5061C95.3287 53.2701 95.3287 53.0342 95.335 52.8014C95.3947 47.3904 95.5803 43.0426 95.9956 42.4386C96.9992 40.982 101.699 38.7421 103.134 37.6819L103.137 37.9116C103.137 37.9116 104.081 39.0945 105.106 38.9781C106.037 38.8774 106.726 37.7763 106.84 37.5781C107.579 38.072 109.275 38.8554 110.923 39.6954C112.569 40.5353 114.163 41.4256 114.705 42.1303C115.164 42.7343 115.545 47.3369 115.84 52.9839V52.9996C115.847 53.1066 115.85 53.2104 115.856 53.3173V53.3331C115.859 53.4117 115.865 53.4935 115.869 53.5784C115.878 53.7452 115.887 53.9119 115.894 54.0818C115.903 54.2548 115.913 54.431 115.919 54.6072C115.928 54.7896 115.935 54.9721 115.947 55.1577C115.954 55.3402 115.96 55.5226 115.972 55.7083C115.979 55.8876 115.988 56.07 115.994 56.2557C116.004 56.4287 116.01 56.6049 116.016 56.781C116.026 56.9666 116.032 57.1491 116.042 57.3347C116.048 57.514 116.057 57.6965 116.064 57.8821C116.07 58.0646 116.079 58.2502 116.086 58.4327C116.095 58.6057 116.101 58.7819 116.108 58.958C116.12 59.3261 116.136 59.691 116.149 60.0591C116.407 66.9708 116.548 73.6968 116.573 75.7165Z" fill="#FF914C"/>
<path d="M102.095 42.9707C102.025 42.9566 101.97 42.8968 101.965 42.8219C101.96 42.7326 102.027 42.6552 102.117 42.6495C106.224 42.3852 107.634 39.2855 107.647 39.2544C107.684 39.1723 107.78 39.1348 107.861 39.171C107.943 39.2069 107.981 39.3025 107.945 39.3846C107.93 39.4186 107.57 40.229 106.672 41.0806C105.845 41.8643 104.388 42.8288 102.138 42.9735C102.123 42.9745 102.108 42.9735 102.095 42.9707Z" fill="#FF914C"/>
<path d="M115.972 55.7073L95.3086 56.2336C95.3099 56.0496 95.3111 55.8658 95.3127 55.6818C95.3139 55.4978 95.3124 55.314 95.3168 55.1331L115.92 54.6084C115.927 54.789 115.935 54.9727 115.946 55.1564C115.953 55.3401 115.961 55.5236 115.972 55.7073Z" fill="#FF914C"/>
<path d="M116.064 57.8817L95.3105 58.4103C95.3089 58.2265 95.3102 58.0425 95.3086 57.8616C95.3099 57.6776 95.3083 57.4938 95.3095 57.3098L116.018 56.7822C116.026 56.966 116.034 57.1497 116.041 57.3334C116.049 57.5143 116.056 57.698 116.064 57.8817Z" fill="#FF914C"/>
<path d="M116.15 60.0592L95.3182 60.5899C95.3179 60.2253 95.3148 59.8575 95.3145 59.4897L116.107 58.96C116.122 59.3274 116.138 59.6917 116.15 60.0592Z" fill="#FF914C"/>
<path d="M113.655 50.1098C114.278 50.9083 115.204 52.7295 115.62 53.5713C115.677 53.6868 115.724 53.784 115.76 53.8576C115.807 53.9542 115.833 54.0102 115.835 54.0143C115.849 54.0429 115.869 54.0659 115.894 54.0816C115.887 53.913 115.878 53.7453 115.87 53.5782C115.866 53.4955 115.861 53.4128 115.857 53.3313L115.857 53.3177C115.771 53.1463 115.671 52.9446 115.558 52.7235C115.086 51.7992 114.414 50.554 113.912 49.91C113.857 49.8393 113.754 49.827 113.684 49.882C113.612 49.9371 113.601 50.0397 113.655 50.1098Z" fill="#FF914C"/>
<path d="M110.13 70.4271C110.215 70.4249 110.284 70.3572 110.288 70.2714C110.291 70.1817 110.221 70.1062 110.132 70.1024C105.554 69.9193 102.769 67.6725 101.238 65.8205C99.5743 63.8064 98.9882 61.8075 98.9825 61.7877C98.9577 61.7015 98.868 61.6514 98.7818 61.6763C98.6956 61.7008 98.6456 61.7908 98.6704 61.877C98.6943 61.9607 99.2764 63.9515 100.979 66.0168C102.552 67.9248 105.415 70.2386 110.119 70.4271C110.122 70.4274 110.126 70.4274 110.13 70.4271Z" fill="#FF914C"/>
<path d="M107.603 67.5864C107.675 67.5845 107.739 67.5351 107.757 67.4622C107.778 67.375 107.724 67.2872 107.637 67.2658C103.638 66.2934 102.787 62.9962 102.779 62.9628C102.758 62.8757 102.67 62.8222 102.583 62.8436C102.496 62.8647 102.442 62.9524 102.464 63.0396C102.473 63.0758 102.687 63.9362 103.424 64.9309C104.101 65.8461 105.37 67.0488 107.56 67.5817C107.575 67.5852 107.589 67.5867 107.603 67.5864Z" fill="#FF914C"/>
<path d="M97.4497 49.5425C96.8457 50.3573 95.9679 52.2008 95.5716 53.0533C95.5181 53.1697 95.474 53.2704 95.4394 53.3428C95.3954 53.4403 95.3702 53.4969 95.3702 53.5032C95.3608 53.5252 95.345 53.5441 95.3262 53.5598V53.5064C95.3293 53.2704 95.3293 53.0345 95.3356 52.8017C95.4111 52.6286 95.5086 52.4241 95.6125 52.2039C96.0623 51.2696 96.7041 50.0081 97.1886 49.3505C97.2421 49.2782 97.3427 49.2625 97.4151 49.3159C97.4874 49.3694 97.5032 49.4732 97.4497 49.5425Z" fill="#FF914C"/>
<path d="M117.454 52.6064L131.542 52.2474C131.943 52.237 132.261 51.9033 132.251 51.5012L132.24 51.0853C132.23 50.6836 131.896 50.3661 131.494 50.3762L117.407 50.7352C117.005 50.7455 116.687 51.0793 116.697 51.4814L116.708 51.8973C116.719 52.2993 117.053 52.6168 117.454 52.6064Z" fill="#1A1A1A"/>
<path d="M132.266 52.2297L134.909 41.2144C135.058 40.5956 134.579 40.0045 133.943 40.0208L127.515 40.1844C127.081 40.1954 126.708 40.4937 126.601 40.9143L123.676 52.4483L132.266 52.2297Z" fill="#1A1A1A"/>
<path d="M126.6 40.9134L123.699 52.3524L122.965 52.371L125.866 40.932C125.973 40.5114 126.346 40.2128 126.78 40.2015L127.515 40.1826C127.081 40.1943 126.708 40.4928 126.6 40.9134Z" fill="#1A1A1A"/>
<g opacity="0.5">
<path d="M128.401 46.7339C128.252 47.46 128.717 48.0335 129.438 48.0149C130.16 47.9967 130.865 47.3933 131.014 46.6672C131.163 45.9414 130.698 45.3679 129.977 45.3862C129.255 45.4047 128.55 46.0081 128.401 46.7339Z" fill="#1A1A1A"/>
</g>
<path d="M100.285 30.1912C100.285 30.1912 99.8581 30.4107 99.7357 29.5724C99.6133 28.734 99.9528 28.5839 99.7005 28.1866C99.4482 27.7892 99.2733 27.2686 99.6678 26.8951C100.062 26.5214 99.227 25.6037 99.6832 25.1277C100.14 24.6518 100.894 24.5341 101.183 24.0015C101.473 23.4692 101.926 22.4527 103.358 22.4367C104.79 22.4203 105.278 23.5617 106.027 23.2395C106.776 22.9177 107.328 22.7419 108.222 23.3452C109.115 23.9486 108.207 24.8198 109.036 25.2228C109.864 25.6258 109.245 26.8734 110.195 27.5762C110.912 28.106 110.234 30.261 108.803 29.9744C107.372 29.6875 100.285 30.1912 100.285 30.1912Z" fill="#1A1A1A"/>
<path d="M100.649 30.5247C100.649 30.5247 99.8355 29.4954 99.2724 30.3781C98.7092 31.2609 99.6021 33.8028 101.019 33.1406L100.649 30.5247Z" fill="#FD857D"/>
<path d="M100.686 32.3559C100.634 32.3571 100.584 32.3235 100.568 32.2703C100.325 31.4848 99.4973 31.1846 99.4891 31.1818C99.4262 31.1595 99.3928 31.0906 99.4152 31.0274C99.4372 30.9641 99.5064 30.9311 99.5693 30.9531C99.608 30.9666 100.52 31.2941 100.799 32.1989C100.819 32.2628 100.783 32.3307 100.719 32.3502C100.708 32.354 100.697 32.3556 100.686 32.3559Z" fill="#A97C50"/>
<path d="M100.686 32.3559C100.634 32.3571 100.584 32.3235 100.568 32.2703C100.325 31.4848 99.4973 31.1846 99.4891 31.1818C99.4262 31.1595 99.3928 31.0906 99.4152 31.0274C99.4372 30.9641 99.5064 30.9311 99.5693 30.9531C99.608 30.9666 100.52 31.2941 100.799 32.1989C100.819 32.2628 100.783 32.3307 100.719 32.3502C100.708 32.354 100.697 32.3556 100.686 32.3559Z" fill="black" fill-opacity="0.2"/>
<path d="M99.8489 31.9791C99.8262 31.9797 99.8036 31.9741 99.7828 31.9615C99.7255 31.9265 99.7076 31.8523 99.7422 31.795C99.7479 31.7856 99.8872 31.5607 100.187 31.4172C100.247 31.3883 100.32 31.4138 100.349 31.4742C100.378 31.5346 100.352 31.6066 100.292 31.6355C100.06 31.7466 99.9502 31.9193 99.9492 31.9209C99.9269 31.9577 99.8885 31.9781 99.8489 31.9791Z" fill="#A97C50"/>
<path d="M99.8489 31.9791C99.8262 31.9797 99.8036 31.9741 99.7828 31.9615C99.7255 31.9265 99.7076 31.8523 99.7422 31.795C99.7479 31.7856 99.8872 31.5607 100.187 31.4172C100.247 31.3883 100.32 31.4138 100.349 31.4742C100.378 31.5346 100.352 31.6066 100.292 31.6355C100.06 31.7466 99.9502 31.9193 99.9492 31.9209C99.9269 31.9577 99.8885 31.9781 99.8489 31.9791Z" fill="black" fill-opacity="0.2"/>
<path d="M108.761 30.3182C108.761 30.3182 109.521 29.2486 110.129 30.1015C110.736 30.9544 109.974 33.5384 108.525 32.9495L108.761 30.3182Z" fill="#FD857D"/>
<path d="M108.818 32.1491C108.87 32.1478 108.918 32.1117 108.932 32.0579C109.134 31.261 109.945 30.9194 109.954 30.9159C110.016 30.8904 110.045 30.8196 110.02 30.758C109.994 30.696 109.924 30.6664 109.862 30.6916C109.824 30.707 108.93 31.0807 108.697 31.9984C108.681 32.0632 108.72 32.129 108.785 32.1456C108.796 32.1482 108.807 32.1494 108.818 32.1491Z" fill="#A97C50"/>
<path d="M108.818 32.1491C108.87 32.1478 108.918 32.1117 108.932 32.0579C109.134 31.261 109.945 30.9194 109.954 30.9159C110.016 30.8904 110.045 30.8196 110.02 30.758C109.994 30.696 109.924 30.6664 109.862 30.6916C109.824 30.707 108.93 31.0807 108.697 31.9984C108.681 32.0632 108.72 32.129 108.785 32.1456C108.796 32.1482 108.807 32.1494 108.818 32.1491Z" fill="black" fill-opacity="0.2"/>
<path d="M109.634 31.7294C109.657 31.7288 109.679 31.7222 109.699 31.7083C109.754 31.6706 109.768 31.5954 109.731 31.54C109.725 31.5309 109.574 31.3132 109.267 31.1852C109.206 31.1594 109.134 31.1886 109.109 31.2503C109.083 31.3119 109.112 31.383 109.174 31.4085C109.411 31.5076 109.53 31.6744 109.531 31.6759C109.555 31.7118 109.594 31.7304 109.634 31.7294Z" fill="#A97C50"/>
<path d="M109.634 31.7294C109.657 31.7288 109.679 31.7222 109.699 31.7083C109.754 31.6706 109.768 31.5954 109.731 31.54C109.725 31.5309 109.574 31.3132 109.267 31.1852C109.206 31.1594 109.134 31.1886 109.109 31.2503C109.083 31.3119 109.112 31.383 109.174 31.4085C109.411 31.5076 109.53 31.6744 109.531 31.6759C109.555 31.7118 109.594 31.7304 109.634 31.7294Z" fill="black" fill-opacity="0.2"/>
<path d="M106.765 35.1689L106.829 37.7178C106.829 37.7178 106.102 39.0353 105.076 39.1498C104.052 39.2656 103.108 38.0815 103.108 38.0815L103.041 35.443L106.765 35.1689Z" fill="#F3E0C8"/>
<path d="M106.764 35.1689L106.793 36.2999C106.122 37.0829 104.902 37.3054 103.083 37.0839L103.041 35.4433L106.764 35.1689Z" fill="#FD857D"/>
<path d="M109.286 28.555C109.264 29.5466 109.201 30.7877 109.037 31.7831C108.996 32.0313 108.949 32.265 108.895 32.4749C108.407 34.3665 107.147 37.6216 103.357 36.3758C101.683 35.8259 100.867 33.9978 100.476 32.1272C100.211 30.8569 100.143 29.5683 100.137 28.6462C100.131 27.705 100.623 26.8323 101.429 26.3475C103.614 25.034 105.966 25.443 107.521 25.9961C108.6 26.3793 109.311 27.4118 109.286 28.555Z" fill="#F3E0C8"/>
<path d="M103.22 30.7925C103.227 31.0646 103.093 31.2886 102.92 31.293C102.747 31.2974 102.601 31.0803 102.594 30.8082C102.587 30.5361 102.722 30.3121 102.895 30.3077C103.067 30.3033 103.213 30.5203 103.22 30.7925Z" fill="#1A1A1A"/>
<path d="M106.982 30.6958C106.989 30.9679 106.854 31.1919 106.681 31.1963C106.508 31.2007 106.363 30.9837 106.356 30.7115C106.349 30.4394 106.483 30.2154 106.656 30.211C106.829 30.2066 106.975 30.4237 106.982 30.6958Z" fill="#1A1A1A"/>
<path d="M107.724 29.0545C107.724 29.0545 106.417 28.576 105.432 29.0319L105.546 29.5837C105.546 29.5837 107.005 29.4226 107.75 29.7026C107.81 29.4874 107.814 29.2716 107.724 29.0545Z" fill="#1A1A1A"/>
<path d="M101.57 29.2132C101.57 29.2132 102.861 28.6648 103.876 29.0728L103.79 29.6338C103.79 29.6338 102.313 29.5466 101.579 29.8662C101.507 29.6533 101.491 29.4362 101.57 29.2132Z" fill="#1A1A1A"/>
<path d="M104.907 32.7563C104.705 32.7843 104.493 32.7337 104.46 32.7252C104.395 32.7085 104.356 32.6427 104.373 32.5779C104.389 32.5131 104.455 32.4738 104.52 32.4905C104.635 32.5194 104.904 32.5525 105.008 32.4691C105.028 32.453 105.054 32.4232 105.051 32.3492C105.036 31.9242 104.727 30.5359 104.724 30.5217C104.709 30.4566 104.75 30.3918 104.816 30.377C104.881 30.3622 104.946 30.4035 104.96 30.4689C104.973 30.5268 105.278 31.8934 105.293 32.3407C105.299 32.509 105.224 32.6063 105.16 32.6578C105.089 32.7145 104.999 32.7437 104.907 32.7563Z" fill="#FD857D"/>
<path d="M103.172 33.4745C103.284 33.97 103.636 34.8776 104.744 34.8493C105.855 34.821 106.145 33.976 106.237 33.3965L103.172 33.4745Z" fill="white"/>
<path d="M104.747 35.6C105.061 35.5922 105.322 35.4267 105.333 35.4195C105.39 35.3833 105.406 35.3084 105.37 35.2521C105.334 35.1958 105.259 35.1794 105.203 35.2153C105.201 35.2165 104.985 35.3515 104.741 35.3575C104.517 35.3631 104.299 35.2401 104.297 35.2389C104.239 35.2052 104.165 35.2247 104.132 35.2826C104.098 35.3405 104.118 35.4144 104.175 35.4481C104.186 35.455 104.452 35.6076 104.747 35.6Z" fill="#FD857D"/>
<path d="M109.286 28.555C109.264 29.5466 109.201 30.7877 109.037 31.7831L108.495 31.7585C108.495 31.7585 108.605 30.9189 108.651 30.3724C108.698 29.826 108.775 28.8048 108.307 28.6896C107.84 28.5754 108.083 27.4067 107.424 26.9194C106.766 26.4309 105.321 26.0231 104.384 26.6334C103.447 27.2425 102.357 26.9468 101.921 27.0597C101.484 27.1714 100.903 27.7921 101.079 28.3533C101.255 28.9136 100.78 29.2698 100.678 29.8574C100.575 30.4451 100.991 32.0099 100.991 32.0099L100.476 32.1272C100.211 30.8569 100.143 29.5683 100.137 28.6462C100.131 27.705 100.623 26.8323 101.429 26.3475C103.614 25.034 105.966 25.443 107.521 25.9961C108.6 26.3793 109.311 27.4118 109.286 28.555Z" fill="#1A1A1A"/>
<path d="M96.2937 73.0064L95.0007 74.7713C95.0007 74.7713 94.252 74.3025 93.2359 73.4877C93.2327 73.4846 93.2327 73.4846 93.2296 73.4814C91.6817 72.2451 89.8024 69.9491 88.627 67.5875C86.792 63.8998 87.6235 61.2544 87.6235 61.2544C87.8059 59.48 88.8001 57.0218 89.747 54.3446C90.093 53.3725 90.4076 52.5262 90.6279 51.9316L93.519 52.5954L94.7553 53.3568L94.2803 54.612C93.4624 57.3216 92.5375 59.9862 91.2995 62.5197C91.5795 65.0018 92.6287 67.998 93.8399 69.8353C95.092 71.7417 96.2937 73.0064 96.2937 73.0064Z" fill="#F3E0C8"/>
<path d="M96.2939 73.0061L95.0009 74.771C95.0009 74.771 94.2522 74.3022 93.236 73.4874C93.2329 73.4843 93.2329 73.4843 93.2297 73.4811C93.0064 72.1472 93.1416 70.2628 93.84 69.835C95.0921 71.7414 96.2939 73.0061 96.2939 73.0061Z" fill="#FD857D"/>
<path d="M95.6023 70.9703C95.8625 70.9872 97.2498 71.0561 97.0998 70.5814C96.9343 70.0579 95.5727 69.4448 95.5727 69.4448C95.5727 69.4448 95.5649 69.4181 95.5781 69.3828L95.5633 69.2708L95.5032 68.1455C95.2402 68.1474 94.9986 68.1987 94.8677 68.2393C94.2709 68.4239 94.3527 69.789 94.3527 69.789C94.3527 69.789 93.6002 70.0579 93.6276 70.6088C93.6553 71.16 94.2615 71.2427 94.2615 71.2427C94.2615 71.2427 93.4335 71.6561 93.627 72.1245C93.8204 72.5929 94.448 72.7307 94.448 72.7307C94.448 72.7307 93.7377 73.1992 93.9859 73.5298C94.2338 73.8604 94.8127 74.0259 94.8127 74.0259C94.8127 74.0259 94.3172 74.6966 94.8208 75.0622C95.3242 75.4278 96.0648 75.3485 96.5411 75.183C97.0174 75.0175 96.9346 74.4113 95.9977 73.9706C95.9977 73.9706 96.8245 74.0533 97.2376 73.3643C97.5824 72.7899 96.7031 72.5417 95.9531 72.4429C96.5423 72.4825 97.5591 72.4659 97.7337 71.9037C97.9624 71.1669 95.921 70.9929 95.6023 70.9703Z" fill="#F3E0C8"/>
<path d="M94.7564 53.3568L94.2814 54.612C93.3218 54.6718 91.6042 54.7001 89.748 54.3446C90.0941 53.3725 90.4087 52.5262 90.6289 51.9316L93.52 52.5954L94.7564 53.3568Z" fill="#FD857D"/>
<path d="M95.9947 42.4404C95.9947 42.4404 91.6338 46.6812 89.0645 52.8388C91.0782 53.49 92.9846 53.9508 94.7545 54.1711C94.9637 53.5994 96.0648 51.2331 97.0395 49.5626L95.9947 42.4404Z" fill="#FF914C"/>
<path d="M60.7258 9.10865L60.7305 9.09513C60.8035 8.93374 60.8702 8.77015 60.93 8.60688C61.8087 6.20903 61.8952 1.28718 56.431 0.122866C56.431 0.122866 51.9275 -0.929142 49.9245 3.12348C49.9245 3.12348 49.0226 5.00098 48.3817 6.36475C48.3817 6.36475 47.8441 9.2304 45.1401 9.48334C42.4362 9.73627 40.9283 10.7744 41.1882 12.7772C41.448 14.7799 41.0321 14.4612 39.1603 16.1546C37.2885 17.8481 35.9826 21.0151 37.5974 23.0997C39.2122 25.1842 45.254 20.2523 49.1229 22.456C52.9918 24.6597 59.4885 24.0154 60.2439 20.8796C60.9992 17.744 57.9731 15.6774 58.1342 14.0846C58.2956 12.4921 60.2354 10.6326 60.7258 9.10865Z" fill="#1A1A1A"/>
<path d="M62.1952 29.211L58.3351 29.2141L56.4696 25.5868L56.2588 25.1716L55.4629 23.6269C55.4629 23.6269 55.6227 17.0519 57.3089 16.1553L62.1952 29.211Z" fill="#FF914C"/>
<path d="M56.4705 25.5861L56.2598 25.1709C56.631 24.419 57.2728 22.6887 56.7631 20.4614C56.7411 20.3576 56.804 20.2569 56.9047 20.2349C57.0054 20.2128 57.1092 20.2758 57.1312 20.3764C57.7352 23.019 56.8292 24.9601 56.4705 25.5861Z" fill="#FF914C"/>
<path d="M63.1426 28.7546C63.1426 28.7546 63.4751 30.1882 64.0417 30.5831C64.6083 30.9779 64.4651 28.9733 64.4651 28.9733C64.4651 28.9733 64.6558 31.3925 65.2422 31.4573C65.8286 31.5221 65.7106 29.1668 65.7106 29.1668C65.7106 29.1668 66.0894 30.7863 66.5336 30.8807C66.9781 30.9754 66.9624 29.2501 66.9624 29.2501C66.9624 29.2501 67.3928 30.5031 67.7215 30.612C68.0506 30.7208 68.2098 29.2652 68.0251 28.5237C67.8401 27.7822 66.9171 28.2324 66.9171 28.2324C66.9171 28.2324 66.0447 27.9804 65.7421 28.2809C65.7421 28.2809 64.96 27.9411 64.5221 28.161C64.5221 28.1616 63.2448 27.7929 63.1426 28.7546Z" fill="#F3E0C8"/>
<path d="M56.6451 19.3007C56.7929 20.5685 57.1956 21.8489 56.6576 23.8654C56.4878 24.5041 56.2235 25.0137 55.7264 25.8883V25.8914C55.7233 25.8914 55.7233 25.8914 55.7233 25.8914C55.7013 25.9418 55.673 25.989 55.6415 26.0393C55.6321 26.1305 55.6195 26.2186 55.61 26.3067C55.286 28.5529 55.3709 27.3606 55.4087 29.2136H43.7812L43.8662 24.611L43.8851 23.6295L44.0518 14.5943L47.7231 14.2703H47.7263L48.3586 14.2136L48.3964 14.2074L49.3842 14.1224C49.4723 14.113 49.5572 14.1067 49.6453 14.1004C50.976 14.0186 52.3099 14.2262 53.5589 14.7076L53.5998 14.7233L54.1503 14.9341V14.9372L54.1849 14.9498L54.7229 15.1574L57.3089 16.1547C57.1767 16.7367 56.7646 18.7155 56.6451 19.3007Z" fill="#FF914C"/>
<path d="M45.3313 21.2668L43.8652 24.6109L43.8841 23.6294L44.9852 21.1157C45.0261 21.0214 45.1393 20.9773 45.2337 21.0182C45.3281 21.0591 45.3721 21.1724 45.3313 21.2668Z" fill="#FF914C"/>
<path d="M47.7246 14.2702C48.9238 16.6869 51.86 19.3874 53.3644 18.5541C54.2899 18.0425 54.668 16.362 54.7225 15.1577L54.1833 14.9507L54.1505 14.9384V14.9375L53.6003 14.7254L53.5582 14.7091C52.3108 14.2284 50.9766 14.0214 49.6452 14.1035C49.5999 14.1098 49.554 14.1157 49.5087 14.122C49.4668 14.1271 49.4256 14.1324 49.3847 14.1374L48.3956 14.2114L48.3576 14.2145L47.7246 14.2702Z" fill="#F3E0C8"/>
<path d="M55.6419 26.043C55.6309 26.1324 55.6187 26.2211 55.6092 26.3095C54.9722 26.4454 52.9726 26.7263 49.5734 25.9125C49.1327 25.8068 48.668 25.6828 48.1801 25.5372C48.0797 25.5079 48.0234 25.4025 48.0526 25.3022C48.0828 25.2034 48.1886 25.1458 48.2873 25.176C53.1909 26.6326 55.6942 25.9015 55.7193 25.8946C55.7222 25.8939 55.7237 25.893 55.7263 25.8924C55.6986 25.9411 55.6712 25.9914 55.6419 26.043Z" fill="#FF914C"/>
<path d="M58.856 8.75205C58.856 8.75205 59.9379 8.07441 60.2131 9.05249C60.4884 10.0309 58.8818 12.0559 57.7266 11.0086L58.856 8.75205Z" fill="#FD857D"/>
<path d="M58.3904 11.0652C58.3416 11.202 58.4127 11.3524 58.5496 11.4015C58.6864 11.4502 58.8368 11.3791 58.8859 11.2423C58.9346 11.1054 58.8635 10.9548 58.7267 10.906C58.5898 10.8572 58.4391 10.9283 58.3904 11.0652Z" fill="white"/>
<path d="M58.2775 10.4032C58.3275 10.4212 58.3848 10.4061 58.4162 10.363C58.8806 9.72655 59.7596 9.71522 59.7684 9.71522C59.8351 9.71491 59.8873 9.66269 59.8848 9.59851C59.8826 9.53433 59.8266 9.48242 59.7599 9.48242C59.719 9.48242 58.7513 9.49249 58.2165 10.2255C58.1787 10.2774 58.1929 10.3501 58.2479 10.3881C58.257 10.3944 58.2671 10.3995 58.2775 10.4032Z" fill="#A97C50"/>
<path d="M58.2775 10.4032C58.3275 10.4212 58.3848 10.4061 58.4162 10.363C58.8806 9.72655 59.7596 9.71522 59.7684 9.71522C59.8351 9.71491 59.8873 9.66269 59.8848 9.59851C59.8826 9.53433 59.8266 9.48242 59.7599 9.48242C59.719 9.48242 58.7513 9.49249 58.2165 10.2255C58.1787 10.2774 58.1929 10.3501 58.2479 10.3881C58.257 10.3944 58.2671 10.3995 58.2775 10.4032Z" fill="black" fill-opacity="0.2"/>
<path d="M59.1876 10.3242C59.209 10.3317 59.2323 10.3339 59.2559 10.3289C59.3207 10.3154 59.36 10.2534 59.344 10.1905C59.3415 10.1801 59.2751 9.93188 59.0316 9.70757C58.9828 9.66227 58.9061 9.66258 58.8605 9.70851C58.8148 9.75413 58.818 9.82775 58.8668 9.87305C59.0549 10.0467 59.1084 10.238 59.109 10.2399C59.1194 10.2798 59.1499 10.3106 59.1876 10.3242Z" fill="#A97C50"/>
<path d="M59.1876 10.3242C59.209 10.3317 59.2323 10.3339 59.2559 10.3289C59.3207 10.3154 59.36 10.2534 59.344 10.1905C59.3415 10.1801 59.2751 9.93188 59.0316 9.70757C58.9828 9.66227 58.9061 9.66258 58.8605 9.70851C58.8148 9.75413 58.818 9.82775 58.8668 9.87305C59.0549 10.0467 59.1084 10.238 59.109 10.2399C59.1194 10.2798 59.1499 10.3106 59.1876 10.3242Z" fill="black" fill-opacity="0.2"/>
<path d="M51.3927 11.5234L50.3828 14.351C50.3828 14.351 51.3348 15.8343 52.3286 16.2889C53.3208 16.7441 54.1067 15.6619 54.1067 15.6619L55.0467 13.0303L51.3927 11.5234Z" fill="#F3E0C8"/>
<path d="M51.2936 11.7998L50.8906 12.9276C51.3059 13.9369 52.4306 14.6434 54.3339 15.0225L54.9473 13.3064L51.2936 11.7998Z" fill="#FD857D"/>
<path d="M58.9204 9.98751C58.7902 10.2489 58.6524 10.5129 58.5045 10.7721C57.523 12.4945 55.6505 14.0653 54.0631 13.874C50.6349 13.461 50.208 10.5 50.3571 8.48154C50.3741 8.25723 50.5626 8.06124 50.6044 7.80358C50.7038 7.19358 50.7048 6.46026 50.8816 5.80024C51.0043 5.34282 51.1351 4.89515 51.2578 4.49215C51.6055 3.35646 52.6194 2.56085 53.7743 2.5209C55.4391 2.46175 57.8165 2.79334 59.4741 4.77214C60.0863 5.50295 60.2719 6.51752 59.9605 7.444C59.7223 8.15153 59.3763 9.0648 58.9204 9.98751Z" fill="#F3E0C8"/>
<path d="M54.5417 10.0279C54.4826 10.0068 54.4458 9.94548 54.4571 9.88194C54.47 9.81084 54.5377 9.76333 54.6088 9.77623L55.0571 9.85614L55.0287 8.09598C55.0275 8.02393 55.0851 7.96416 55.1574 7.9629C55.2295 7.96196 55.2892 8.01922 55.2902 8.09157L55.3235 10.1692L54.5625 10.0333C54.5556 10.0323 54.5484 10.0304 54.5417 10.0279Z" fill="#FD857D"/>
<path d="M58.8051 6.45426C59.8426 7.46253 58.9231 8.79422 59.0779 9.68263C59.0876 9.74021 59.1131 9.75908 59.1515 9.74492C59.6202 8.80586 59.9735 7.87528 60.2157 7.15392C60.5325 6.20887 60.3262 5.16913 59.6753 4.41442C57.9129 2.37144 55.4122 2.00588 53.6643 2.04803C52.4518 2.07603 51.3957 2.87888 51.0431 4.03722C50.9185 4.44808 50.7861 4.90487 50.6621 5.37142C50.8241 5.56741 51.3067 5.80273 51.2095 6.14092C50.9528 7.03531 50.7817 7.64909 50.983 7.6623C51.3224 7.6837 51.8922 6.69272 51.7846 5.88201C51.7846 5.88201 52.2326 5.52211 53.5463 5.48939C55.2316 5.44755 56.9594 5.11188 56.9594 5.11188C56.9594 5.11188 57.6427 4.97408 57.9906 4.68183C57.9912 4.68214 58.0148 5.68633 58.8051 6.45426Z" fill="#1A1A1A"/>
<path d="M56.7979 8.58159C56.701 8.85309 56.7624 9.12301 56.9348 9.18467C57.1072 9.24633 57.3258 9.07614 57.4227 8.80496C57.5196 8.53378 57.4582 8.26385 57.2858 8.20219C57.1131 8.14022 56.8948 8.31041 56.7979 8.58159Z" fill="#1A1A1A"/>
<path d="M53.2393 7.30798C53.1424 7.57947 53.2038 7.84939 53.3762 7.91106C53.5486 7.97272 53.7672 7.80252 53.8641 7.53134C53.961 7.25984 53.8996 6.98992 53.7273 6.92858C53.5549 6.86723 53.3362 7.03648 53.2393 7.30798Z" fill="#1A1A1A"/>
<path d="M58.3326 7.49397C58.0988 7.35524 57.62 7.09318 57.0723 6.91889C56.9282 6.87296 56.776 6.93966 56.7549 7.05983L56.7543 7.06298C56.7376 7.15893 56.8128 7.25457 56.9295 7.28666C57.3083 7.39047 58.2703 7.74093 58.6714 8.03476C58.707 7.97436 58.6884 7.88974 58.6466 7.80668C58.5836 7.68084 58.4691 7.57482 58.3326 7.49397Z" fill="#1A1A1A"/>
<path d="M53.2896 5.75918C53.5589 5.7963 54.0969 5.88942 54.6339 6.09454C54.7752 6.14833 54.8529 6.29525 54.7943 6.40252L54.7928 6.40504C54.7459 6.49061 54.6276 6.5183 54.5162 6.47079C54.1554 6.31633 53.1846 5.99103 52.6875 5.97121C52.6973 5.90169 52.7646 5.84726 52.8492 5.80825C52.9769 5.74911 53.1323 5.73747 53.2896 5.75918Z" fill="#1A1A1A"/>
<path d="M55.6465 11.2494C55.4011 11.6486 54.8138 12.3348 53.7916 11.9695C52.767 11.6037 52.739 10.7747 52.8189 10.2393L55.6465 11.2494Z" fill="white"/>
<path d="M53.541 12.7175C53.8361 12.8228 54.1532 12.7571 54.1667 12.7543C54.236 12.7395 54.28 12.6712 54.2652 12.602C54.2504 12.5328 54.1825 12.4887 54.1133 12.5032C54.1107 12.5038 53.8521 12.5564 53.6272 12.4758C53.3837 12.389 53.2116 12.182 53.2101 12.1798C53.1651 12.1251 53.0845 12.1169 53.0295 12.1619C52.9747 12.2066 52.9666 12.2871 53.0112 12.3418C53.02 12.3528 53.2286 12.6058 53.541 12.7175Z" fill="#FD857D"/>
<path d="M51.2199 6.01684C51.2199 6.01684 50.7291 4.65653 49.9473 5.23161C49.1656 5.80669 49.0888 8.30301 50.535 8.20391L51.2199 6.01684Z" fill="#F3E0C8"/>
<path d="M49.7302 7.97253C49.6814 8.10938 49.7525 8.25976 49.8894 8.30883C50.0262 8.3576 50.1769 8.2865 50.2257 8.14965C50.2745 8.0128 50.2034 7.86211 50.0665 7.81334C49.9294 7.76427 49.779 7.83568 49.7302 7.97253Z" fill="white"/>
<path d="M50.5087 7.41357C50.4625 7.39721 50.431 7.35128 50.4345 7.3C50.4873 6.53962 49.8717 6.00387 49.8654 5.99852C49.8185 5.95825 49.8128 5.88747 49.8528 5.84028C49.8931 5.79309 49.9638 5.78743 50.011 5.82738C50.04 5.85192 50.7195 6.4399 50.6588 7.31542C50.6544 7.37739 50.6009 7.42395 50.5389 7.41955C50.5282 7.41892 50.5182 7.41672 50.5087 7.41357Z" fill="#FD857D"/>
<path d="M49.9105 6.80969C49.891 6.80277 49.8731 6.79019 49.8592 6.77257C49.8215 6.72349 49.8306 6.65302 49.8797 6.61496C49.8878 6.60867 50.0835 6.46081 50.3909 6.4369C50.4525 6.43186 50.5067 6.47842 50.5114 6.54008C50.5161 6.60174 50.4698 6.65585 50.4082 6.66089C50.1707 6.67945 50.0181 6.79207 50.0165 6.79333C49.9854 6.81693 49.9454 6.82196 49.9105 6.80969Z" fill="#FD857D"/>
<path d="M55.0289 7.5209C55.0553 7.44759 55.0645 7.37146 55.0582 7.29785C55.0424 7.09588 54.9138 6.91184 54.7121 6.83476L52.9318 6.15398C52.7918 6.1005 52.644 6.10899 52.5172 6.16562C52.4476 6.19676 52.3854 6.24207 52.3341 6.30027C52.291 6.34808 52.2561 6.40377 52.2318 6.46669L52.1447 6.69414C51.9971 7.07983 52.0075 7.5058 52.173 7.86443C52.3385 8.22056 52.588 8.46846 52.9158 8.60184L52.9626 8.61978C53.3436 8.76544 53.7583 8.75474 54.1323 8.58895C54.512 8.42095 54.8024 8.11485 54.9506 7.72696L55.0242 7.53442C55.0261 7.53033 55.028 7.5253 55.0289 7.5209ZM54.741 7.64673C54.6143 7.97863 54.3657 8.23975 54.042 8.3832C53.7221 8.52477 53.3682 8.53389 53.0432 8.40963L53.0004 8.39327C52.7276 8.2819 52.5181 8.07238 52.3778 7.77006C52.2372 7.46679 52.229 7.10343 52.3548 6.77436L52.442 6.54691C52.5046 6.383 52.6877 6.30152 52.8513 6.36413L54.6316 7.04491C54.7945 7.1072 54.8773 7.29061 54.8143 7.4542L54.741 7.64673Z" fill="white"/>
<path d="M58.8304 8.83494C58.8385 8.75849 58.8288 8.68173 58.8049 8.61C58.7542 8.46308 58.6416 8.33819 58.4856 8.27842L56.7046 7.59732C56.4983 7.51835 56.273 7.57435 56.1261 7.72284C56.0767 7.77223 56.0361 7.83201 56.0094 7.90027C56.0072 7.90342 56.0062 7.90625 56.005 7.90971L55.9178 8.13716C55.7703 8.52286 55.7813 8.94913 55.9468 9.30777C56.1116 9.66358 56.3617 9.9118 56.6889 10.0449L56.7364 10.0631C57.1174 10.2088 57.532 10.1981 57.9061 10.0323C58.2849 9.86429 58.5762 9.55819 58.7243 9.1703L58.798 8.97776C58.8159 8.93151 58.8269 8.88338 58.8304 8.83494ZM58.5142 9.0907C58.3874 9.4226 58.1389 9.68371 57.8145 9.82686C57.4955 9.96874 57.1413 9.97786 56.8166 9.8536L56.7732 9.83692C56.5005 9.72524 56.291 9.51603 56.1506 9.21371C56.0106 8.91044 56.0018 8.54708 56.1277 8.21801L56.2148 7.99056C56.2774 7.82666 56.4612 7.74518 56.6241 7.80778L58.405 8.48888C58.568 8.55117 58.6504 8.73458 58.5878 8.89817L58.5142 9.0907Z" fill="white"/>
<path d="M52.5174 6.1662C52.372 6.00796 51.976 5.64051 51.3027 5.44043V5.67763C51.8583 5.85884 52.1987 6.16085 52.3343 6.30085C52.3793 6.34678 52.4019 6.37572 52.4032 6.37698L52.5813 6.24045C52.5772 6.23478 52.5561 6.20741 52.5174 6.1662Z" fill="white"/>
<path d="M54.9512 7.51466L54.9581 7.29004C54.9723 7.29035 55.3057 7.30168 55.6294 7.42563C55.9742 7.55745 56.1558 7.74841 56.1633 7.75627L55.9994 7.91011C55.9981 7.90885 55.8427 7.74778 55.5492 7.63546C55.262 7.52567 54.9543 7.51466 54.9512 7.51466Z" fill="white"/>
<path d="M59.531 8.66586C59.1126 8.58155 58.7335 8.61426 58.709 8.61647L58.7294 8.84014C58.7357 8.83983 59.1249 8.8068 59.531 8.89646V8.66586Z" fill="white"/>
<path d="M53.2706 29.2267C53.2706 29.2267 53.343 30.6603 52.8878 31.0554C52.4326 31.4502 52.0101 29.4456 52.0101 29.4456C52.0101 29.4456 52.5024 31.8649 51.9342 31.9297C51.3661 31.9945 50.819 29.6391 50.819 29.6391C50.819 29.6391 50.8977 31.2586 50.4799 31.353C50.0621 31.4477 49.5905 29.7225 49.5905 29.7225C49.5905 29.7225 49.5141 30.9755 49.2158 31.0843C48.9176 31.1932 48.3472 29.7376 48.3227 28.9964C48.2982 28.2549 49.3483 28.7051 49.3483 28.7051C49.3483 28.7051 50.1495 28.4534 50.5368 28.7535C50.5368 28.7535 51.2229 28.4137 51.7232 28.6336C51.7238 28.6336 52.8969 28.2649 53.2706 29.2267Z" fill="#F3E0C8"/>
<path d="M46.8641 29.2118L38.6059 29.215C38.5997 29.2118 38.5808 29.1426 38.5808 29.1394C38.4361 26.9467 39.8234 23.2534 40.7924 20.0256C41.4342 17.8895 42.2773 15.3193 44.0484 14.5957C44.3599 14.9638 44.9356 16.4801 44.9765 17.254C45.0709 19.1227 44.8349 21.0984 44.4889 22.1366C43.9887 23.6277 43.3626 25.443 42.9065 26.9341C42.9065 26.9341 42.9065 26.9373 42.9033 26.9467C42.8939 26.9876 42.8624 27.1355 42.8624 27.1386C42.875 27.1418 42.9568 27.1858 43.1015 27.2676C43.6395 27.5665 45.0457 28.3561 46.8641 29.2118Z" fill="#FF914C"/>
<path d="M43.1046 27.2682C42.2394 27.6708 41.0157 28.5202 41.0031 28.5297C40.9685 28.5549 40.9307 28.5643 40.8961 28.5643C40.8363 28.5643 40.7766 28.536 40.7388 28.4825C40.679 28.3976 40.7011 28.2812 40.786 28.2214C40.8395 28.1836 42.0192 27.3657 42.9064 26.9473C42.8969 26.9882 42.8655 27.136 42.8655 27.1392C42.8781 27.1423 42.9599 27.1864 43.1046 27.2682Z" fill="#FF914C"/>
<path d="M49.3848 14.1221C49.3848 14.1221 50.0136 16.9846 52.2661 17.1419C54.5186 17.2992 54.7228 15.0237 54.7228 15.0237" stroke="white" stroke-width="1.2" stroke-miterlimit="10" stroke-linecap="round"/>
<path d="M128.884 107.909C128.884 107.909 128.628 108.16 128.102 108.199C127.943 108.212 127.76 108.205 127.55 108.162C127.326 108.122 127.074 108.042 126.793 107.909C126.793 107.909 126.915 102.737 124.823 99.1743C122.732 95.6115 119.963 90.6903 122.178 88.1666C124.393 85.6432 127.961 89.1507 129.13 95.0575C130.3 100.965 128.884 107.909 128.884 107.909Z" fill="#FF914C"/>
<path d="M128.103 108.199C127.944 108.211 127.762 108.204 127.551 108.162C128.223 98.9799 124.055 91.8877 124.013 91.8156C123.933 91.6845 123.976 91.5149 124.107 91.4353C124.238 91.3576 124.408 91.4001 124.487 91.5313C124.531 91.6033 128.788 98.8358 128.103 108.199Z" fill="#1A1A1A"/>
<path d="M136.056 99.5616C131.162 107.473 131.5 109.303 131.5 109.303L130.857 109.188L130.311 109.092L129.532 108.954C129.098 105.445 131.793 90.6123 136.598 90.6123C141.49 90.6123 137.723 96.8683 136.056 99.5616Z" fill="#FF914C"/>
<path d="M135.873 95.0085C135.826 95.0862 131.728 102.396 130.859 109.187L130.312 109.091C131.206 102.191 135.345 94.8147 135.389 94.7355C135.464 94.6027 135.635 94.5564 135.767 94.6319C135.9 94.7078 135.947 94.8758 135.873 95.0085Z" fill="#1A1A1A"/>
<path d="M126.749 108.61L126.185 108.761L125.647 108.907L125.323 108.994C125.344 108.924 125.098 108.318 121.656 103.718C120.234 101.817 116.442 96.7037 119.919 95.8452C123.107 95.0587 126.841 105.961 126.749 108.61Z" fill="#FF914C"/>
<path d="M126.186 108.762L125.647 108.908C124.654 104.475 120.624 99.0355 120.58 98.9764C120.489 98.8546 120.515 98.681 120.637 98.5888C120.759 98.4982 120.932 98.5224 121.024 98.646C121.202 98.8858 125.163 104.228 126.186 108.762Z" fill="#1A1A1A"/>
<path d="M133.566 120.314C133.566 121.199 122.621 121.199 122.621 120.314V107.299C122.621 107.165 122.73 107.056 122.865 107.056H133.322C133.457 107.056 133.566 107.165 133.566 107.299L133.566 120.314Z" fill="#1A1A1A"/>
<path d="M19.9919 120.637H12.1251C11.0552 120.637 10.107 119.819 9.77632 118.61L6.44004 106.409C6.30351 105.91 6.59639 105.391 7.03683 105.351C13.111 104.791 19.1261 104.791 25.0811 105.349C25.5209 105.39 25.8131 105.909 25.6769 106.407L22.3403 118.609C22.01 119.819 21.0618 120.637 19.9919 120.637Z" fill="#1A1A1A"/>
<path d="M24.9786 106.237C24.9786 106.562 21.009 106.825 16.1123 106.825C11.2157 106.825 7.24609 106.562 7.24609 106.237C7.24609 105.912 11.2157 105.649 16.1123 105.649C21.009 105.649 24.9786 105.913 24.9786 106.237Z" fill="#1A1A1A"/>
<path d="M26.1544 89.7486C22.9638 88.908 18.0888 95.5305 16.6083 101.987V92.5799C17.3527 91.2602 18.7715 89.2745 21.3477 87.1764C25.3541 83.9134 29.0421 79.7262 25.8458 78.8843C22.8505 78.0953 18.3707 83.8842 16.6083 89.9383V77.8575C17.1246 77.0562 17.9702 76.0048 19.322 74.9037C21.847 72.8472 24.1712 70.2084 22.1569 69.6777C20.4087 69.2171 17.8582 72.3118 16.6083 75.8019V71.8865C16.815 70.6753 17.107 68.9453 17.9083 67.1766C19.7653 63.0787 20.7686 58.8565 18.3201 59.1708C15.8694 59.4851 14.2803 66.7837 15.6205 72.3867V74.4016C14.7151 70.3012 11.6094 66.0548 9.58217 66.5887C7.56781 67.1194 9.89204 69.7582 12.417 71.8147C14.3389 73.3802 15.2383 74.8452 15.6205 75.6333V85.1501C14.1687 78.661 9.25908 71.9632 6.05146 72.8082C2.85517 73.6501 6.54318 77.8377 10.5495 81.1003C13.5769 83.5661 15.0067 85.8765 15.6205 87.1333V98.5456C14.0686 92.175 9.28456 85.746 6.13829 86.5749C2.942 87.4168 5.68307 90.4772 10.1856 94.1784C13.2453 96.6939 14.8844 99.3484 15.6205 100.791V106.167C15.9776 106.267 16.312 106.266 16.6083 106.167V104.028C17.2347 102.761 18.6658 100.477 21.6567 98.0416C25.6627 94.778 29.3507 90.5904 26.1544 89.7486Z" fill="#FF914C"/>
</svg>
