<svg width="515" height="455" viewBox="0 0 515 455" fill="none" xmlns="http://www.w3.org/2000/svg">
<path d="M254.234 454.295C394.644 454.295 508.468 447.093 508.468 438.21C508.468 429.326 394.644 422.124 254.234 422.124C113.824 422.124 0 429.326 0 438.21C0 447.093 113.824 454.295 254.234 454.295Z" fill="#F3E0C8"/>
<path d="M155.952 48.1438C155.952 49.3457 155.463 50.4408 154.665 51.2336C153.877 52.0311 152.782 52.5217 151.58 52.5217H57.9963C55.5925 52.5217 53.623 50.5522 53.623 48.1438C53.623 46.9419 54.1125 45.8469 54.9111 45.054C55.6982 44.2554 56.7944 43.7659 57.9963 43.7659H62.4191C64.1656 39.7063 68.1999 36.8693 72.8961 36.8693C76.0572 36.8693 78.9149 38.1562 80.9855 40.2314C83.7421 35.5559 88.8266 32.4156 94.6489 32.4156C96.2495 32.4156 97.7892 32.658 99.2439 33.097C102.289 27.3712 108.308 23.4736 115.246 23.4736C123.577 23.4736 130.586 29.0983 132.701 36.7533C134.236 35.9857 135.968 35.5467 137.806 35.5467C143.002 35.5467 147.385 39.0157 148.764 43.7671H151.581C153.983 43.7659 155.952 45.7354 155.952 48.1438Z" fill="white"/>
<path d="M514.999 106.297C514.999 107.498 514.51 108.593 513.711 109.386C512.923 110.184 511.828 110.674 510.626 110.674H417.042C414.638 110.674 412.669 108.705 412.669 106.297C412.669 105.095 413.158 104 413.957 103.207C414.744 102.409 415.84 101.919 417.042 101.919H421.465C423.212 97.859 427.246 95.0209 431.942 95.0209C435.103 95.0209 437.961 96.3078 440.031 98.383C442.788 93.7075 447.873 90.5671 453.695 90.5671C455.295 90.5671 456.835 90.8096 458.29 91.2485C461.335 85.5228 467.354 81.624 474.292 81.624C482.623 81.624 489.631 87.2486 491.747 94.9036C493.282 94.1361 495.014 93.6971 496.852 93.6971C502.048 93.6971 506.431 97.1661 507.81 101.917H510.627C513.03 101.919 514.999 103.888 514.999 106.297Z" fill="white"/>
<path d="M343.122 59.1354C343.122 60.3373 342.632 61.4335 341.834 62.2252C341.046 63.0238 339.951 63.5133 338.749 63.5133H245.165C242.761 63.5133 240.793 61.5438 240.793 59.1354C240.793 57.9335 241.282 56.8384 242.081 56.0456C242.868 55.247 243.964 54.7575 245.166 54.7575H249.59C251.337 50.6979 255.371 47.8597 260.067 47.8597C263.228 47.8597 266.086 49.1467 268.157 51.2218C270.913 46.5463 275.998 43.406 281.82 43.406C283.421 43.406 284.96 43.6484 286.415 44.0874C289.46 38.3616 295.479 34.4629 302.417 34.4629C310.749 34.4629 317.757 40.0887 319.872 47.7425C321.407 46.9749 323.139 46.536 324.977 46.536C330.173 46.536 334.556 50.005 335.935 54.7563H338.752C341.153 54.7575 343.122 56.727 343.122 59.1354Z" fill="white"/>
<path d="M43.5305 162.248C47.3259 175.006 60.0677 174.608 59.7965 184.966C59.5254 195.321 66.0336 203.184 74.9779 201.287C83.9255 199.388 90.4028 197.491 94.4853 207.793C98.5645 218.096 111.579 223.246 116.729 215.111C118.012 213.088 119.398 210.894 120.753 208.741C121.123 208.153 121.493 207.568 121.856 206.991C121.941 206.858 122.026 206.725 122.109 206.591C127.562 197.933 125.761 186.46 117.722 180.131C114.466 177.57 110.573 176.13 106.157 177.429C92.3309 181.495 97.3132 167.589 89.0756 161.706C79.5879 154.926 71.4491 162.6 64.9489 156.825C55.9058 148.794 39.7364 149.49 43.5305 162.248Z" fill="#FFFCF9"/>
<path d="M60.0253 167.764L120.752 208.742C121.122 208.154 121.492 207.569 121.855 206.992L61.1836 166.05C60.7102 165.731 60.0667 165.855 59.7484 166.328C59.4278 166.801 59.5519 167.444 60.0253 167.764Z" fill="#FFFCF9"/>
<path d="M343.944 100.793C358.242 94.8367 370.683 86.5612 363.78 81.6031C356.872 76.6391 335.734 91.285 325.951 108.538L321.219 113.611C328.569 101.162 330.72 83.1761 324.362 79.7611C318.044 76.3668 317.7 88.4687 319.228 99.5754C320.392 108.029 319.215 113.831 318.327 116.712L295.98 140.674C307.562 120.926 310.928 92.534 300.868 87.13C290.844 81.7444 290.297 100.947 292.722 118.569C294.554 131.887 292.729 141.061 291.323 145.666L286.867 150.444C287.574 151.346 288.286 152.245 289.004 153.139L315.59 124.632C318.772 123.826 323.369 123.164 329.358 123.567C340.544 124.318 352.592 123.131 348.767 117.065C345.447 111.801 331.758 113.603 320.417 119.456L329.611 109.597C332.976 107.034 337.773 103.364 343.944 100.793Z" fill="white"/>
<path d="M59.5961 110.751C58.1011 123.088 69.1619 127.486 65.0782 136.255C60.9956 145.022 63.6442 154.177 72.0104 155.878C80.379 157.578 86.6322 158.362 86.2966 168.702C85.9588 179.042 95.188 188.292 102.624 183.241C104.476 181.985 106.477 180.621 108.439 179.283C108.974 178.916 109.509 178.553 110.034 178.193C110.157 178.111 110.279 178.028 110.399 177.945C118.289 172.558 121.013 162.063 116.481 153.653C114.646 150.249 111.847 147.568 107.583 147.039C94.2297 145.38 103.668 135.322 98.8018 127.221C93.1978 117.889 83.3746 121.432 79.955 114.069C75.1968 103.83 61.0898 98.4133 59.5961 110.751Z" fill="white"/>
<path d="M71.6716 121.608L108.439 179.284C108.974 178.917 109.509 178.554 110.034 178.195L73.3009 120.572C73.0148 120.123 72.4173 119.989 71.968 120.277C71.5176 120.562 71.3855 121.159 71.6716 121.608Z" fill="#FFFCF9"/>
<path d="M355.95 359.549C352.063 372.617 339.01 372.211 339.289 382.821C339.567 393.428 332.9 401.483 323.737 399.538C314.572 397.593 307.937 395.649 303.755 406.202C299.576 416.755 286.247 422.03 280.971 413.698C279.655 411.625 278.237 409.378 276.848 407.174C276.469 406.572 276.091 405.972 275.718 405.381C275.631 405.245 275.544 405.108 275.46 404.972C269.874 396.104 271.718 384.35 279.954 377.868C283.288 375.245 287.275 373.77 291.798 375.102C305.961 379.267 300.857 365.021 309.295 358.995C319.012 352.052 327.349 359.911 334.009 353.995C343.273 345.767 359.837 346.48 355.95 359.549Z" fill="#FFFCF9"/>
<path d="M339.055 365.198L276.851 407.173C276.472 406.571 276.094 405.971 275.722 405.38L337.868 363.443C338.353 363.116 339.012 363.243 339.339 363.728C339.667 364.212 339.54 364.872 339.055 365.198Z" fill="#FFFCF9"/>
<path d="M333.387 311.294C334.918 323.932 323.589 328.436 327.772 337.419C331.954 346.4 329.24 355.777 320.671 357.519C312.099 359.261 305.693 360.064 306.036 370.656C306.382 381.248 296.928 390.722 289.312 385.549C287.415 384.263 285.364 382.866 283.355 381.494C282.807 381.119 282.259 380.746 281.721 380.378C281.596 380.293 281.471 380.209 281.347 380.124C273.265 374.606 270.474 363.856 275.117 355.241C276.996 351.755 279.863 349.008 284.231 348.466C297.908 346.767 288.24 336.466 293.226 328.167C298.966 318.607 309.027 322.237 312.531 314.696C317.407 304.206 331.857 298.657 333.387 311.294Z" fill="white"/>
<path d="M321.019 322.416L283.358 381.495C282.809 381.12 282.261 380.747 281.724 380.379L319.351 321.354C319.644 320.894 320.256 320.758 320.716 321.051C321.176 321.344 321.313 321.955 321.019 322.416Z" fill="#FFFCF9"/>
<path d="M506.206 276.2C509.669 276.2 512.486 279.018 512.486 282.481C512.486 285.944 509.669 288.762 506.206 288.762C502.742 288.762 499.925 285.944 499.925 282.481C499.925 279.018 502.742 276.2 506.206 276.2ZM506.206 278.17C503.829 278.17 501.895 280.104 501.895 282.48C501.895 284.856 503.829 286.79 506.206 286.79C508.583 286.79 510.516 284.856 510.516 282.48C510.517 280.104 508.583 278.17 506.206 278.17Z" fill="#FF914C"/>
<path d="M499.817 244.276C503.28 244.276 506.098 247.094 506.098 250.557C506.098 254.02 503.28 256.838 499.817 256.838C496.354 256.838 493.536 254.02 493.536 250.557C493.535 247.095 496.354 244.276 499.817 244.276ZM499.817 246.247C497.439 246.247 495.507 248.181 495.507 250.557C495.507 252.933 497.441 254.867 499.817 254.867C502.194 254.867 504.127 252.933 504.127 250.557C504.127 248.181 502.193 246.247 499.817 246.247Z" fill="#FF914C"/>
<path d="M480.712 235.433C480.712 235.977 481.153 236.418 481.697 236.418H486.041C486.586 236.418 487.026 235.977 487.026 235.433C487.026 234.89 486.585 234.448 486.041 234.448H481.697C481.152 234.447 480.712 234.888 480.712 235.433Z" fill="#1A1A1A"/>
<path d="M473.108 235.433C473.108 235.977 473.55 236.418 474.093 236.418H478.438C478.982 236.418 479.422 235.977 479.422 235.433C479.422 234.89 478.981 234.448 478.438 234.448H474.093C473.55 234.447 473.108 234.888 473.108 235.433Z" fill="#1A1A1A"/>
<path d="M479.083 229.333V233.237C479.083 233.781 479.524 234.223 480.069 234.223C480.614 234.223 481.054 233.781 481.054 233.237V229.333C481.054 228.79 480.612 228.349 480.069 228.349C479.524 228.349 479.083 228.79 479.083 229.333Z" fill="#1A1A1A"/>
<path d="M479.083 237.628V241.532C479.083 242.075 479.524 242.516 480.069 242.516C480.614 242.516 481.054 242.075 481.054 241.532V237.628C481.054 237.084 480.612 236.644 480.069 236.644C479.524 236.642 479.083 237.084 479.083 237.628Z" fill="#1A1A1A"/>
<path d="M487.793 268.979C487.793 269.523 488.234 269.964 488.778 269.964H493.122C493.667 269.964 494.107 269.523 494.107 268.979C494.107 268.434 493.666 267.993 493.122 267.993H488.778C488.234 267.993 487.793 268.434 487.793 268.979Z" fill="#FF914C"/>
<path d="M480.189 268.979C480.189 269.523 480.631 269.964 481.175 269.964H485.52C486.065 269.964 486.506 269.523 486.506 268.979C486.506 268.434 486.065 267.993 485.52 267.993H481.175C480.631 267.993 480.189 268.434 480.189 268.979Z" fill="#FF914C"/>
<path d="M486.168 262.88V266.784C486.168 267.327 486.609 267.768 487.153 267.768C487.697 267.768 488.137 267.327 488.137 266.784V262.88C488.137 262.337 487.696 261.896 487.153 261.896C486.609 261.896 486.168 262.337 486.168 262.88Z" fill="#FF914C"/>
<path d="M486.168 271.174V275.078C486.168 275.621 486.609 276.062 487.153 276.062C487.697 276.062 488.137 275.621 488.137 275.078V271.174C488.137 270.631 487.696 270.189 487.153 270.189C486.609 270.189 486.168 270.631 486.168 271.174Z" fill="#FF914C"/>
<path d="M30.0615 124.223C30.0615 127.686 27.244 130.504 23.7807 130.504C20.3175 130.504 17.5 127.686 17.5 124.223C17.5 120.76 20.3175 117.942 23.7807 117.942C27.244 117.942 30.0615 120.76 30.0615 124.223ZM19.4706 124.223C19.4706 126.599 21.4045 128.533 23.7807 128.533C26.1581 128.533 28.0908 126.599 28.0908 124.223C28.0908 121.847 26.157 119.913 23.7807 119.913C21.4045 119.913 19.4706 121.846 19.4706 124.223Z" fill="#FF914C"/>
<path d="M36.4521 92.3012C36.4521 95.7645 33.6346 98.582 30.1714 98.582C26.7081 98.582 23.8906 95.7645 23.8906 92.3012C23.8906 88.838 26.7081 86.0205 30.1714 86.0205C33.6346 86.0205 36.4521 88.838 36.4521 92.3012ZM25.8613 92.3012C25.8613 94.6775 27.7951 96.6113 30.1714 96.6113C32.5487 96.6113 34.4815 94.6775 34.4815 92.3012C34.4815 89.925 32.5476 87.9911 30.1714 87.9911C27.7951 87.99 25.8613 89.9238 25.8613 92.3012Z" fill="#1A1A1A"/>
<path d="M49.273 77.1752C49.273 77.7187 48.8318 78.1599 48.2883 78.1599H43.9437C43.4002 78.1599 42.959 77.7187 42.959 77.1752C42.959 76.6305 43.4002 76.1904 43.9437 76.1904H48.2883C48.8318 76.1904 49.273 76.6317 49.273 77.1752Z" fill="#FF914C"/>
<path d="M56.8766 77.1752C56.8766 77.7187 56.4353 78.1599 55.8918 78.1599H51.5472C51.0026 78.1599 50.5625 77.7187 50.5625 77.1752C50.5625 76.6305 51.0037 76.1904 51.5472 76.1904H55.8918C56.4353 76.1904 56.8766 76.6317 56.8766 77.1752Z" fill="#FF914C"/>
<path d="M50.907 71.0775V74.9809C50.907 75.5255 50.4657 75.9667 49.9222 75.9667C49.3776 75.9667 48.9375 75.5255 48.9375 74.9809V71.0775C48.9375 70.534 49.3787 70.0928 49.9222 70.0928C50.4657 70.0916 50.907 70.5329 50.907 71.0775Z" fill="#FF914C"/>
<path d="M50.907 79.3715V83.2748C50.907 83.8183 50.4657 84.2595 49.9222 84.2595C49.3776 84.2595 48.9375 83.8183 48.9375 83.2748V79.3715C48.9375 78.8268 49.3787 78.3867 49.9222 78.3867C50.4657 78.3867 50.907 78.8268 50.907 79.3715Z" fill="#FF914C"/>
<path d="M42.191 110.723C42.191 111.267 41.7498 111.708 41.2063 111.708H36.8617C36.317 111.708 35.877 111.267 35.877 110.723C35.877 110.178 36.3182 109.738 36.8617 109.738H41.2063C41.7498 109.737 42.191 110.178 42.191 110.723Z" fill="#FF914C"/>
<path d="M49.7949 110.723C49.7949 111.267 49.3536 111.708 48.809 111.708H44.4644C43.9198 111.708 43.4785 111.267 43.4785 110.723C43.4785 110.178 43.9198 109.738 44.4644 109.738H48.809C49.3536 109.737 49.7949 110.178 49.7949 110.723Z" fill="#FF914C"/>
<path d="M43.821 104.623V108.527C43.821 109.07 43.3798 109.511 42.8363 109.511C42.2917 109.511 41.8516 109.07 41.8516 108.527V104.623C41.8516 104.08 42.2928 103.639 42.8363 103.639C43.3798 103.639 43.821 104.08 43.821 104.623Z" fill="#FF914C"/>
<path d="M43.821 112.918V116.822C43.821 117.365 43.3798 117.806 42.8363 117.806C42.2917 117.806 41.8516 117.365 41.8516 116.822V112.918C41.8516 112.375 42.2928 111.934 42.8363 111.934C43.3798 111.932 43.821 112.374 43.821 112.918Z" fill="#FF914C"/>
<path d="M414.498 126.22V142.074C414.498 144.17 416.199 145.869 418.293 145.869H447.079L455.77 148.987C456.663 149.308 457.516 148.43 457.174 147.548L453.886 139.059V126.22C453.886 124.124 452.186 122.425 450.089 122.425H418.293C416.198 122.425 414.498 124.124 414.498 126.22Z" fill="#FF914C"/>
<g opacity="0.5">
<path d="M439.507 134.598C439.507 136.115 440.736 137.344 442.253 137.344C443.77 137.344 444.999 136.115 444.999 134.598C444.999 133.081 443.77 131.852 442.253 131.852C440.736 131.853 439.507 133.081 439.507 134.598Z" fill="#FF914C"/>
<path d="M430.814 134.598C430.814 136.115 432.044 137.344 433.561 137.344C435.077 137.344 436.307 136.115 436.307 134.598C436.307 133.081 435.077 131.852 433.561 131.852C432.044 131.853 430.814 133.081 430.814 134.598Z" fill="#FF914C"/>
<path d="M422.123 134.598C422.123 136.115 423.353 137.344 424.869 137.344C426.386 137.344 427.616 136.115 427.616 134.598C427.616 133.081 426.386 131.852 424.869 131.852C423.353 131.852 422.123 133.081 422.123 134.598Z" fill="#FF914C"/>
</g>
<path d="M104.47 123.525V419.883C104.47 429.173 111.998 436.702 121.288 436.702H268.868C273.536 436.702 277.755 434.802 280.805 431.736C283.822 428.693 285.687 424.507 285.687 419.883V123.525C285.687 114.235 278.158 106.706 268.868 106.706H121.288C118.542 106.706 115.95 107.363 113.66 108.532C108.203 111.311 104.47 116.981 104.47 123.525Z" fill="#1A1A1A"/>
<path d="M110.735 123.525V419.883C110.735 429.173 118.264 436.702 127.554 436.702H275.134C279.801 436.702 284.021 434.802 287.069 431.736C290.087 428.693 291.953 424.507 291.953 419.883V123.525C291.953 114.235 284.424 106.706 275.134 106.706H127.554C124.808 106.706 122.216 107.363 119.925 108.532C114.469 111.311 110.735 116.981 110.735 123.525Z" fill="#1A1A1A"/>
<path d="M107.545 179.593H105.635C103.234 179.593 101.287 177.647 101.287 175.245V157.176C101.287 154.775 103.234 152.828 105.635 152.828H107.545V179.593Z" fill="#1A1A1A"/>
<path d="M107.545 214.597H105.635C103.234 214.597 101.287 212.65 101.287 210.249V192.18C101.287 189.779 103.234 187.832 105.635 187.832H107.545V214.597Z" fill="#1A1A1A"/>
<path d="M291.954 179.593H293.45C295.332 179.593 296.857 178.067 296.857 176.186V156.235C296.857 154.354 295.332 152.828 293.45 152.828H291.954V179.593Z" fill="#1A1A1A"/>
<path d="M283.563 122.506V420.898C283.563 421.927 283.354 422.906 282.974 423.796C281.843 426.454 279.217 428.306 276.155 428.306H126.539C122.452 428.306 119.131 424.997 119.131 420.897V122.506C119.131 122.092 119.162 121.685 119.231 121.288C119.648 118.768 121.345 116.675 123.628 115.686C124.105 115.485 124.601 115.33 125.12 115.233C125.577 115.141 126.054 115.095 126.539 115.095H276.155C280.245 115.095 283.563 118.415 283.563 122.506Z" fill="white"/>
<path d="M283.561 122.506V137.806H119.129V122.506C119.129 122.092 119.16 121.685 119.229 121.288C119.646 118.768 121.343 116.675 123.626 115.686C124.103 115.485 124.6 115.33 125.118 115.233C125.575 115.141 126.052 115.095 126.537 115.095H276.153C280.244 115.095 283.561 118.415 283.561 122.506Z" fill="white"/>
<path d="M257.601 115.086L249.971 126.695C247.843 129.933 244.228 131.884 240.353 131.884H166.617C162.741 131.884 159.126 129.934 156.998 126.695L149.368 115.086C149.368 113.883 150.352 112.897 151.558 112.897H255.412C256.615 112.897 257.601 113.884 257.601 115.086Z" fill="#1A1A1A"/>
<path opacity="0.3" d="M229.644 123.479H165.63C164.576 123.479 163.713 122.616 163.713 121.563V120.727C163.713 119.673 164.576 118.811 165.63 118.811H229.644C230.698 118.811 231.561 119.673 231.561 120.727V121.563C231.562 122.617 230.699 123.479 229.644 123.479Z" fill="white"/>
<path opacity="0.3" d="M243.946 120.99C243.946 122.537 242.692 123.791 241.144 123.791C239.596 123.791 238.343 122.538 238.343 120.99C238.343 119.443 239.596 118.188 241.144 118.188C242.692 118.188 243.946 119.442 243.946 120.99Z" fill="white"/>
<path d="M133.188 321.592C133.188 322.96 134.295 324.067 135.663 324.067H194.817C196.183 324.067 197.292 322.96 197.292 321.592C197.292 320.226 196.184 319.117 194.817 319.117H135.663C134.295 319.118 133.188 320.226 133.188 321.592Z" fill="#F3E0C8"/>
<path d="M208.22 321.592C208.22 322.96 209.327 324.067 210.695 324.067H269.85C271.217 324.067 272.325 322.96 272.325 321.592C272.325 320.226 271.218 319.117 269.85 319.117H210.695C209.327 319.118 208.22 320.226 208.22 321.592Z" fill="#F3E0C8"/>
<path d="M133.188 335.39C133.188 336.758 134.295 337.865 135.663 337.865H194.817C196.183 337.865 197.292 336.758 197.292 335.39C197.292 334.024 196.184 332.915 194.817 332.915H135.663C134.295 332.916 133.188 334.024 133.188 335.39Z" fill="#F3E0C8"/>
<path d="M208.22 335.39C208.22 336.758 209.327 337.865 210.695 337.865H269.85C271.217 337.865 272.325 336.758 272.325 335.39C272.325 334.024 271.218 332.915 269.85 332.915H210.695C209.327 332.916 208.22 334.024 208.22 335.39Z" fill="#F3E0C8"/>
<path d="M133.188 349.188C133.188 350.554 134.295 351.663 135.663 351.663H194.817C196.183 351.663 197.292 350.555 197.292 349.188C197.292 347.822 196.184 346.713 194.817 346.713H135.663C134.295 346.714 133.188 347.822 133.188 349.188Z" fill="#F3E0C8"/>
<path d="M208.22 349.188C208.22 350.554 209.327 351.663 210.695 351.663H269.85C271.217 351.663 272.325 350.555 272.325 349.188C272.325 347.822 271.218 346.713 269.85 346.713H210.695C209.327 346.714 208.22 347.822 208.22 349.188Z" fill="#F3E0C8"/>
<path d="M133.188 362.986C133.188 364.352 134.295 365.461 135.663 365.461H194.817C196.183 365.461 197.292 364.353 197.292 362.986C197.292 361.62 196.184 360.511 194.817 360.511H135.663C134.295 360.511 133.188 361.62 133.188 362.986Z" fill="#F3E0C8"/>
<path d="M208.22 362.986C208.22 364.352 209.327 365.461 210.695 365.461H269.85C271.217 365.461 272.325 364.353 272.325 362.986C272.325 361.62 271.218 360.511 269.85 360.511H210.695C209.327 360.511 208.22 361.62 208.22 362.986Z" fill="#F3E0C8"/>
<path d="M171.034 395.157H137.414C135.092 395.157 133.211 393.275 133.211 390.954V386.844C133.211 384.522 135.093 382.64 137.414 382.64H171.033C173.355 382.64 175.238 384.522 175.238 386.844V390.954C175.238 393.275 173.355 395.157 171.034 395.157Z" fill="#F3E0C8"/>
<path d="M219.952 395.157H186.333C184.011 395.157 182.129 393.275 182.129 390.954V386.844C182.129 384.522 184.011 382.64 186.333 382.64H219.952C222.275 382.64 224.156 384.522 224.156 386.844V390.954C224.157 393.275 222.275 395.157 219.952 395.157Z" fill="#F3E0C8"/>
<path d="M268.118 395.157H234.498C232.177 395.157 230.295 393.275 230.295 390.954V386.844C230.295 384.522 232.177 382.64 234.498 382.64H268.118C270.439 382.64 272.322 384.522 272.322 386.844V390.954C272.322 393.275 270.439 395.157 268.118 395.157Z" fill="#F3E0C8"/>
<path d="M283.565 182.292V294.969H142.036V182.292H148.544L148.485 182.229L148.556 182.292H283.565Z" fill="white"/>
<path d="M313.046 173.585H149.925V286.264H313.046V173.585Z" fill="#1A1A1A"/>
<path d="M319.577 173.585H156.456V286.264H319.577V173.585Z" fill="#FF914C"/>
<path d="M156.373 173.521L231.904 252.142C235.217 255.591 240.733 255.591 244.046 252.142L319.577 173.521L243.572 241.166C240.382 244.006 235.569 244.006 232.378 241.166L156.373 173.521Z" fill="#1A1A1A"/>
<path d="M222.302 231.898L161.182 286.264H156.457V283.391L218.789 227.95L222.302 231.898Z" fill="#1A1A1A"/>
<path d="M319.577 283.772V286.264H314.424L253.303 231.898L256.817 227.95L319.577 283.772Z" fill="#1A1A1A"/>
<path d="M156.451 173.584L232.636 241.34C235.701 244.067 240.323 244.067 243.389 241.34L319.573 173.584H156.451Z" fill="#FF914C"/>
<g opacity="0.5">
<path d="M236.04 184.133H179.579C177.7 184.133 176.178 182.611 176.178 180.732C176.178 178.854 177.7 177.331 179.579 177.331H236.04C237.919 177.331 239.441 178.854 239.441 180.732C239.441 182.611 237.919 184.133 236.04 184.133Z" fill="#FF914C"/>
</g>
<g opacity="0.5">
<path d="M253.319 184.133H247.604C245.726 184.133 244.203 182.611 244.203 180.732C244.203 178.854 245.726 177.331 247.604 177.331H253.319C255.197 177.331 256.72 178.854 256.72 180.732C256.72 182.611 255.197 184.133 253.319 184.133Z" fill="#FF914C"/>
</g>
<path d="M293.981 183.074H276.77C272.208 183.074 268.511 179.376 268.511 174.815V157.604C268.511 153.043 272.208 149.346 276.769 149.346H293.981C298.542 149.346 302.239 153.043 302.239 157.604V174.815C302.239 179.377 298.541 183.074 293.981 183.074Z" fill="#1A1A1A"/>
<path d="M296.966 183.074H279.755C275.194 183.074 271.496 179.376 271.496 174.815V157.604C271.496 153.043 275.194 149.346 279.754 149.346H296.965C301.527 149.346 305.224 153.043 305.224 157.604V174.815C305.224 179.377 301.527 183.074 296.966 183.074Z" fill="#FF914C"/>
<path d="M285.659 165.722L284.587 155.429H291.02L289.948 165.722H285.659ZM287.803 172.347C286.882 172.347 286.128 172.069 285.54 171.513C284.952 170.941 284.658 170.266 284.658 169.487C284.658 168.693 284.952 168.026 285.54 167.486C286.128 166.946 286.882 166.676 287.803 166.676C288.741 166.676 289.495 166.946 290.067 167.486C290.655 168.026 290.949 168.693 290.949 169.487C290.949 170.266 290.655 170.941 290.067 171.513C289.495 172.069 288.741 172.347 287.803 172.347Z" fill="white"/>
<path d="M351.406 417.602L350.763 429.197L360.17 429.403L361.32 417.222L351.406 417.602Z" fill="#F3E0C8"/>
<path d="M354.493 427.568C354.493 427.568 359.337 426.471 360.661 426.547C361.986 426.624 370.49 436.89 373.458 437.589C378.841 438.855 378.527 447.323 375.211 447.618C365.62 448.472 349.446 443.82 349.446 443.82C349.446 443.82 348.353 432.899 349.136 429.514C349.918 426.131 351.788 428.47 354.493 427.568Z" fill="#FF914C"/>
<path d="M362.045 437.143C361.873 437.174 361.69 437.137 361.537 437.027C361.242 436.812 361.178 436.398 361.393 436.103C361.464 436.004 363.177 433.675 365.215 432.919C367.927 431.91 369.767 433.585 369.844 433.657C370.112 433.905 370.125 434.324 369.876 434.592C369.628 434.859 369.208 434.874 368.941 434.624C368.891 434.579 367.607 433.444 365.675 434.159C364.015 434.775 362.477 436.86 362.462 436.882C362.358 437.025 362.206 437.113 362.045 437.143Z" fill="white"/>
<path d="M360.292 435.073C360.121 435.104 359.937 435.067 359.784 434.957C359.489 434.742 359.423 434.328 359.639 434.033C359.71 433.934 361.424 431.605 363.462 430.849C366.176 429.84 368.013 431.514 368.09 431.588C368.358 431.836 368.372 432.255 368.123 432.522C367.874 432.79 367.455 432.805 367.187 432.554C367.137 432.509 365.852 431.374 363.922 432.089C362.253 432.708 360.724 434.79 360.709 434.812C360.604 434.954 360.453 435.043 360.292 435.073Z" fill="white"/>
<path d="M364.532 438.942C364.361 438.973 364.177 438.938 364.024 438.826C363.729 438.611 363.663 438.198 363.879 437.901C363.951 437.803 365.664 435.473 367.702 434.717C370.416 433.707 372.254 435.384 372.331 435.455C372.598 435.704 372.612 436.123 372.363 436.39C372.115 436.658 371.695 436.673 371.427 436.423C371.377 436.378 370.092 435.242 368.162 435.957C366.493 436.576 364.964 438.659 364.949 438.679C364.845 438.824 364.694 438.914 364.532 438.942Z" fill="white"/>
<path d="M386.001 276.306C386.001 276.306 385.806 279.029 385.45 283.545C385.358 284.74 385.254 286.061 385.139 287.498C383.921 302.654 381.566 330.059 378.992 349.501C375.384 376.756 364.02 421.546 364.02 421.546L352.288 421.144L351.127 421.098L348.347 421.006C348.347 421.006 350.3 392.671 352.794 368.07C354.437 351.845 355.413 313.455 355.884 289.21C356.126 276.708 356.241 267.964 356.241 267.964L386.001 276.306Z" fill="#1A1A1A"/>
<path d="M386.002 276.306C386.002 276.306 385.807 279.029 385.451 283.545C385.359 284.74 385.256 286.061 385.141 287.498C379.729 288.509 364.848 289.21 355.886 289.21C356.127 276.708 356.242 267.964 356.242 267.964L386.002 276.306Z" fill="#1A1A1A"/>
<path d="M362.56 283.347C362.549 284.278 361.468 372.606 352.288 421.142L351.127 421.096C360.319 372.709 361.4 284.255 361.411 283.336L362.56 283.347Z" fill="#1A1A1A"/>
<path d="M424.982 419.828L424.597 430.288L415.034 429.783L414.818 418.675L424.982 419.828Z" fill="#F3E0C8"/>
<path d="M422.16 429.808C422.16 429.808 424.243 427.093 425.864 427.235C427.484 427.376 439.855 437.513 444.131 438.398C448.408 439.283 447.527 442.429 446.717 444.031C445.907 445.632 412.518 442.917 412.518 442.917C412.518 442.917 411.747 432.955 412.885 429.928C414.022 426.9 418.795 430.479 422.16 429.808Z" fill="#FF914C"/>
<path d="M428.973 436.855C428.821 436.898 428.652 436.882 428.505 436.794C428.218 436.625 428.124 436.258 428.292 435.971C428.348 435.876 429.692 433.62 431.468 432.759C433.83 431.608 435.639 432.962 435.715 433.02C435.978 433.221 436.029 433.599 435.826 433.862C435.625 434.125 435.248 434.175 434.984 433.973C434.935 433.936 433.675 433.024 431.992 433.84C430.545 434.542 429.339 436.562 429.327 436.583C429.246 436.721 429.117 436.814 428.973 436.855Z" fill="white"/>
<path d="M427.206 435.137C427.055 435.18 426.885 435.164 426.738 435.078C426.451 434.909 426.356 434.541 426.525 434.255C426.581 434.159 427.924 431.904 429.7 431.042C432.065 429.892 433.872 431.244 433.948 431.303C434.211 431.504 434.262 431.882 434.059 432.145C433.858 432.408 433.48 432.459 433.217 432.257C433.168 432.22 431.907 431.306 430.225 432.123C428.771 432.829 427.572 434.845 427.56 434.866C427.479 435.003 427.35 435.096 427.206 435.137Z" fill="white"/>
<path d="M431.38 438.264C431.227 438.308 431.058 438.291 430.911 438.205C430.625 438.036 430.53 437.668 430.699 437.382C430.755 437.286 432.098 435.031 433.875 434.169C436.24 433.019 438.047 434.371 438.123 434.43C438.386 434.631 438.435 435.009 438.234 435.272C438.033 435.535 437.655 435.586 437.392 435.384C437.343 435.347 436.081 434.434 434.4 435.25C432.946 435.956 431.747 437.972 431.735 437.993C431.653 438.13 431.524 438.224 431.38 438.264Z" fill="white"/>
<path d="M426.724 422.557L417.004 421.835L415.846 421.754L413.484 421.577C413.484 421.577 407.514 364.75 405.657 349.612C404.043 336.461 396.505 306.914 391.61 288.529C390.223 283.31 389.047 278.991 388.273 276.2C387.682 274.005 387.333 272.757 387.333 272.757L419.827 269.611C419.827 269.611 419.918 270.325 420.067 271.61C420.383 274.239 420.991 279.276 421.725 285.607C423.755 302.841 426.841 329.66 428.037 343.312C431.104 378.467 426.724 422.557 426.724 422.557Z" fill="#1A1A1A"/>
<path d="M421.725 285.608L391.609 288.529C390.222 283.31 389.047 278.991 388.272 276.2L420.067 271.61C420.383 274.239 420.991 279.277 421.725 285.608Z" fill="#1A1A1A"/>
<path d="M417.006 421.834L415.848 421.753C415.284 404.181 413.559 360.291 410.038 341.686C405.613 318.233 395.439 284.082 395.334 283.737L396.441 283.408C396.545 283.754 406.737 317.964 411.168 341.476C414.712 360.198 416.451 404.297 417.006 421.834Z" fill="#1A1A1A"/>
<path d="M421.439 189.504C421.945 193.934 422.481 198.183 422.952 201.744C423.712 207.487 424.299 211.433 424.299 211.433L428.955 226.433C430.548 231.565 436.352 234.047 441.166 231.659C441.247 231.621 441.332 231.578 441.416 231.536C449.726 227.276 444.543 210.875 444.543 210.875L442.943 210.802C442.238 209.01 440.335 204.443 437.916 198.707C437.623 198.002 437.317 197.277 437.01 196.543C436.495 195.324 435.963 194.063 435.42 192.775C434.649 190.949 433.853 189.067 433.049 187.171C427.124 173.166 420.814 158.343 420.814 158.343C418.559 159.501 419.835 175.404 421.439 189.504Z" fill="#F3E0C8"/>
<path d="M421.439 189.503C421.946 193.933 422.482 198.182 422.953 201.743C429.117 199.668 433.158 195.672 435.421 192.775C434.65 190.949 433.854 189.067 433.05 187.171L421.439 189.503Z" fill="#FD857D"/>
<path d="M434.426 216.505C434.461 216.509 434.492 216.509 434.528 216.508C434.852 216.5 435.13 216.257 435.172 215.927C436.153 208.043 437.208 202.208 437.919 198.706C437.626 198.003 437.318 197.278 437.011 196.544C436.339 199.631 435.039 206.205 433.848 215.762C433.803 216.125 434.06 216.457 434.426 216.505Z" fill="#FD857D"/>
<path d="M439.795 186.561C439.795 186.561 438.457 188.233 436.094 190.09C433.235 192.35 427.94 195.173 422.643 195.353C421.524 176.533 420.441 158.514 418.952 153.876C421.47 156.828 434.232 173.21 439.795 186.561Z" fill="#FF914C"/>
<path d="M435.646 216.85C435.646 216.85 436.201 197.96 440.095 193.821C443.988 189.682 447.612 188.034 451.389 188.049C455.166 188.064 458.729 188.418 458.547 189.977C458.547 189.977 467.171 188.388 471.113 190.51C475.056 192.631 459.788 195.09 455.241 195.356C450.694 195.62 448.372 198.241 448.275 200.96C448.178 203.678 446.13 221.729 446.13 221.729L435.646 216.85Z" fill="#F3E0C8"/>
<path d="M425.783 276.553C400.388 283.677 374.822 284.309 349.049 278.506C348.784 271.198 348.267 246.643 348.141 221.306C348.141 219.973 348.129 218.629 348.129 217.285V215.354C348.118 214.688 348.118 214.01 348.118 213.343C348.118 212.665 348.118 211.999 348.106 211.332C348.118 210.666 348.106 210 348.118 209.322C348.106 208.678 348.118 208.035 348.106 207.391C348.106 206.725 348.106 206.047 348.118 205.392C348.118 204.725 348.129 204.047 348.129 203.381C348.129 202.703 348.129 202.037 348.141 201.37C348.141 200.727 348.141 200.083 348.152 199.44C348.152 198.164 348.164 196.877 348.175 195.625V195.43C348.187 194.568 348.187 193.706 348.21 192.856C348.428 173.092 349.106 157.212 350.623 155.006C354.288 149.686 371.455 141.504 376.695 137.632L376.706 138.471C376.706 138.471 380.154 142.791 383.899 142.366C387.301 141.999 389.817 137.977 390.231 137.253C392.931 139.057 399.124 141.918 405.146 144.986C411.155 148.054 416.981 151.306 418.957 153.88C420.635 156.086 422.025 172.897 423.105 193.522V193.58C423.128 193.97 423.14 194.349 423.163 194.74V194.798C423.174 195.085 423.197 195.384 423.209 195.694C423.243 196.303 423.278 196.912 423.301 197.532C423.335 198.164 423.37 198.808 423.393 199.451C423.427 200.118 423.45 200.784 423.496 201.462C423.519 202.129 423.542 202.795 423.588 203.473C423.611 204.128 423.645 204.794 423.668 205.472C423.703 206.104 423.726 206.748 423.749 207.391C423.783 208.069 423.806 208.736 423.841 209.414C423.864 210.069 423.898 210.735 423.921 211.413C423.944 212.079 423.979 212.757 424.002 213.424C424.036 214.056 424.059 214.699 424.082 215.343C424.128 216.687 424.185 218.02 424.231 219.364C425.174 244.609 425.691 269.176 425.783 276.553Z" fill="#FF914C"/>
<path d="M372.897 156.949C372.641 156.897 372.441 156.679 372.424 156.406C372.403 156.079 372.652 155.797 372.978 155.776C387.979 154.811 393.128 143.489 393.178 143.375C393.31 143.076 393.661 142.939 393.96 143.071C394.26 143.202 394.396 143.551 394.265 143.851C394.211 143.975 392.894 146.935 389.615 150.046C386.596 152.908 381.273 156.431 373.055 156.96C373 156.963 372.947 156.96 372.897 156.949Z" fill="#FF914C"/>
<path d="M423.588 203.47L348.116 205.392C348.121 204.72 348.125 204.049 348.131 203.377C348.136 202.704 348.13 202.033 348.146 201.373L423.399 199.456C423.426 200.116 423.455 200.787 423.494 201.458C423.521 202.129 423.549 202.799 423.588 203.47Z" fill="#FF914C"/>
<path d="M423.923 211.41L348.121 213.341C348.115 212.67 348.12 211.998 348.114 211.337C348.119 210.665 348.113 209.994 348.118 209.321L423.755 207.395C423.784 208.066 423.812 208.737 423.839 209.408C423.867 210.068 423.894 210.739 423.923 211.41Z" fill="#FF914C"/>
<path d="M424.236 219.363L348.148 221.302C348.146 219.97 348.135 218.627 348.134 217.284L424.079 215.349C424.135 216.691 424.191 218.021 424.236 219.363Z" fill="#FF914C"/>
<path d="M415.122 183.023C417.396 185.939 420.778 192.591 422.299 195.666C422.507 196.088 422.678 196.443 422.809 196.712C422.981 197.064 423.077 197.269 423.085 197.284C423.134 197.388 423.209 197.472 423.301 197.53C423.272 196.914 423.241 196.301 423.21 195.691C423.197 195.389 423.179 195.087 423.164 194.789L423.163 194.74C422.851 194.114 422.484 193.377 422.072 192.569C420.348 189.193 417.892 184.645 416.058 182.293C415.857 182.035 415.484 181.99 415.225 182.191C414.965 182.392 414.923 182.767 415.122 183.023Z" fill="#FF914C"/>
<path d="M402.25 257.23C402.56 257.222 402.814 256.975 402.826 256.662C402.839 256.334 402.585 256.058 402.258 256.045C385.537 255.376 375.364 247.169 369.774 240.405C363.697 233.049 361.556 225.748 361.535 225.675C361.444 225.36 361.117 225.178 360.802 225.268C360.487 225.358 360.305 225.687 360.395 226.002C360.483 226.307 362.608 233.578 368.828 241.122C374.574 248.091 385.029 256.542 402.211 257.23C402.223 257.232 402.237 257.232 402.25 257.23Z" fill="#FF914C"/>
<path d="M393.015 246.859C393.277 246.852 393.511 246.672 393.576 246.405C393.653 246.087 393.457 245.766 393.139 245.688C378.533 242.136 375.425 230.093 375.395 229.971C375.317 229.653 374.995 229.458 374.678 229.536C374.36 229.613 374.165 229.933 374.243 230.252C374.275 230.384 375.057 233.526 377.749 237.16C380.225 240.502 384.857 244.895 392.859 246.842C392.911 246.854 392.963 246.86 393.015 246.859Z" fill="#FF914C"/>
<path d="M355.933 180.951C353.727 183.927 350.521 190.661 349.073 193.775C348.878 194.2 348.717 194.567 348.59 194.832C348.43 195.188 348.338 195.395 348.338 195.418C348.303 195.498 348.246 195.567 348.177 195.625V195.429C348.188 194.567 348.188 193.706 348.211 192.855C348.487 192.223 348.843 191.476 349.222 190.672C350.866 187.259 353.21 182.652 354.979 180.25C355.175 179.986 355.542 179.928 355.806 180.124C356.071 180.319 356.128 180.698 355.933 180.951Z" fill="#FF914C"/>
<path d="M429.001 192.142L480.454 190.831C481.922 190.793 483.081 189.573 483.044 188.105L483.005 186.586C482.967 185.119 481.748 183.959 480.28 183.996L428.826 185.307C427.359 185.345 426.199 186.564 426.236 188.033L426.275 189.552C426.313 191.02 427.533 192.18 429.001 192.142Z" fill="#1A1A1A"/>
<path d="M483.099 190.764L492.752 150.531C493.294 148.27 491.547 146.111 489.223 146.171L465.744 146.769C464.159 146.809 462.795 147.898 462.406 149.434L451.722 191.562L483.099 190.764Z" fill="#1A1A1A"/>
<path d="M462.404 149.435L451.809 191.216L449.126 191.283L459.721 149.503C460.114 147.966 461.475 146.876 463.061 146.835L465.744 146.766C464.159 146.808 462.797 147.899 462.404 149.435Z" fill="#1A1A1A"/>
<g opacity="0.5">
<path d="M468.987 170.695C468.444 173.347 470.14 175.441 472.776 175.374C475.412 175.307 477.988 173.103 478.532 170.451C479.074 167.8 477.378 165.705 474.742 165.772C472.106 165.84 469.53 168.044 468.987 170.695Z" fill="#1A1A1A"/>
</g>
<path d="M366.295 110.265C366.295 110.265 364.735 111.067 364.288 108.005C363.841 104.943 365.081 104.395 364.159 102.943C363.238 101.492 362.599 99.5904 364.04 98.2264C365.48 96.8614 362.43 93.5096 364.096 91.7711C365.763 90.0325 368.52 89.6028 369.576 87.6574C370.633 85.7132 372.287 82.0006 377.518 81.942C382.747 81.8823 384.529 86.0511 387.265 84.8744C390.001 83.6989 392.018 83.0566 395.282 85.2605C398.547 87.4644 395.231 90.6461 398.256 92.1181C401.28 93.59 399.019 98.1472 402.491 100.714C405.109 102.649 402.634 110.52 397.407 109.473C392.18 108.425 366.295 110.265 366.295 110.265Z" fill="#1A1A1A"/>
<path d="M367.62 111.485C367.62 111.485 364.647 107.726 362.591 110.95C360.534 114.174 363.795 123.458 368.97 121.04L367.62 111.485Z" fill="#FD857D"/>
<path d="M367.752 118.175C367.559 118.18 367.378 118.057 367.317 117.862C366.433 114.993 363.408 113.897 363.378 113.887C363.149 113.805 363.027 113.553 363.108 113.322C363.189 113.091 363.442 112.971 363.671 113.051C363.813 113.101 367.145 114.297 368.164 117.602C368.237 117.835 368.106 118.083 367.871 118.154C367.832 118.168 367.792 118.174 367.752 118.175Z" fill="#A97C50"/>
<path d="M367.752 118.175C367.559 118.18 367.378 118.057 367.317 117.862C366.433 114.993 363.408 113.897 363.378 113.887C363.149 113.805 363.027 113.553 363.108 113.322C363.189 113.091 363.442 112.971 363.671 113.051C363.813 113.101 367.145 114.297 368.164 117.602C368.237 117.835 368.106 118.083 367.871 118.154C367.832 118.168 367.792 118.174 367.752 118.175Z" fill="black" fill-opacity="0.2"/>
<path d="M364.693 116.796C364.61 116.798 364.528 116.778 364.452 116.732C364.243 116.604 364.177 116.333 364.304 116.124C364.324 116.089 364.833 115.268 365.929 114.744C366.149 114.638 366.414 114.731 366.519 114.952C366.625 115.172 366.532 115.436 366.311 115.541C365.464 115.947 365.063 116.578 365.06 116.583C364.978 116.718 364.838 116.793 364.693 116.796Z" fill="#A97C50"/>
<path d="M364.693 116.796C364.61 116.798 364.528 116.778 364.452 116.732C364.243 116.604 364.177 116.333 364.304 116.124C364.324 116.089 364.833 115.268 365.929 114.744C366.149 114.638 366.414 114.731 366.519 114.952C366.625 115.172 366.532 115.436 366.311 115.541C365.464 115.947 365.063 116.578 365.06 116.583C364.978 116.718 364.838 116.793 364.693 116.796Z" fill="black" fill-opacity="0.2"/>
<path d="M397.247 110.73C397.247 110.73 400.025 106.824 402.243 109.939C404.462 113.054 401.678 122.492 396.387 120.341L397.247 110.73Z" fill="#FD857D"/>
<path d="M397.457 117.419C397.65 117.414 397.824 117.282 397.874 117.086C398.611 114.175 401.576 112.927 401.606 112.915C401.832 112.821 401.94 112.563 401.847 112.338C401.755 112.111 401.497 112.003 401.271 112.095C401.132 112.152 397.866 113.517 397.016 116.868C396.957 117.105 397.1 117.345 397.337 117.406C397.377 117.415 397.417 117.42 397.457 117.419Z" fill="#A97C50"/>
<path d="M397.457 117.419C397.65 117.414 397.824 117.282 397.874 117.086C398.611 114.175 401.576 112.927 401.606 112.915C401.832 112.821 401.94 112.563 401.847 112.338C401.755 112.111 401.497 112.003 401.271 112.095C401.132 112.152 397.866 113.517 397.016 116.868C396.957 117.105 397.1 117.345 397.337 117.406C397.377 117.415 397.417 117.42 397.457 117.419Z" fill="black" fill-opacity="0.2"/>
<path d="M400.439 115.886C400.522 115.884 400.604 115.86 400.676 115.809C400.878 115.672 400.93 115.397 400.793 115.195C400.77 115.161 400.22 114.366 399.1 113.899C398.875 113.804 398.615 113.911 398.522 114.136C398.427 114.362 398.534 114.621 398.759 114.714C399.626 115.076 400.059 115.685 400.062 115.691C400.15 115.822 400.295 115.89 400.439 115.886Z" fill="#A97C50"/>
<path d="M400.439 115.886C400.522 115.884 400.604 115.86 400.676 115.809C400.878 115.672 400.93 115.397 400.793 115.195C400.77 115.161 400.22 114.366 399.1 113.899C398.875 113.804 398.615 113.911 398.522 114.136C398.427 114.362 398.534 114.621 398.759 114.714C399.626 115.076 400.059 115.685 400.062 115.691C400.15 115.822 400.295 115.89 400.439 115.886Z" fill="black" fill-opacity="0.2"/>
<path d="M389.959 128.45L390.195 137.76C390.195 137.76 387.54 142.572 383.793 142.99C380.05 143.413 376.604 139.088 376.604 139.088L376.358 129.451L389.959 128.45Z" fill="#F3E0C8"/>
<path d="M389.958 128.45L390.064 132.581C387.615 135.441 383.159 136.253 376.513 135.444L376.36 129.452L389.958 128.45Z" fill="#FD857D"/>
<path d="M399.164 104.291C399.084 107.913 398.854 112.446 398.256 116.082C398.107 116.988 397.933 117.842 397.737 118.608C395.952 125.518 391.352 137.407 377.508 132.857C371.394 130.848 368.413 124.171 366.987 117.339C366.02 112.699 365.771 107.992 365.747 104.624C365.727 101.186 367.521 97.9988 370.468 96.2281C378.449 91.4308 387.037 92.9246 392.718 94.9447C396.66 96.3442 399.257 100.115 399.164 104.291Z" fill="#F3E0C8"/>
<path d="M377.009 112.462C377.035 113.456 376.543 114.274 375.911 114.29C375.279 114.307 374.747 113.514 374.722 112.52C374.696 111.526 375.188 110.708 375.82 110.692C376.451 110.676 376.984 111.468 377.009 112.462Z" fill="#1A1A1A"/>
<path d="M390.75 112.112C390.775 113.106 390.283 113.924 389.651 113.94C389.019 113.956 388.487 113.163 388.462 112.169C388.437 111.175 388.928 110.357 389.56 110.341C390.191 110.325 390.724 111.118 390.75 112.112Z" fill="#1A1A1A"/>
<path d="M393.464 106.113C393.464 106.113 388.69 104.366 385.09 106.031L385.506 108.046C385.506 108.046 390.836 107.458 393.556 108.48C393.777 107.694 393.792 106.906 393.464 106.113Z" fill="#1A1A1A"/>
<path d="M370.986 106.695C370.986 106.695 375.701 104.692 379.408 106.182L379.093 108.231C379.093 108.231 373.699 107.913 371.016 109.08C370.753 108.302 370.698 107.509 370.986 106.695Z" fill="#1A1A1A"/>
<path d="M383.174 119.639C382.435 119.741 381.662 119.556 381.541 119.525C381.305 119.464 381.162 119.224 381.223 118.987C381.283 118.751 381.524 118.607 381.761 118.668C382.179 118.774 383.164 118.894 383.542 118.59C383.614 118.531 383.71 118.422 383.7 118.152C383.646 116.6 382.516 111.529 382.504 111.477C382.451 111.239 382.601 111.002 382.84 110.948C383.079 110.894 383.314 111.045 383.368 111.284C383.415 111.495 384.528 116.487 384.585 118.121C384.607 118.736 384.331 119.091 384.097 119.279C383.838 119.486 383.51 119.593 383.174 119.639Z" fill="#FD857D"/>
<path d="M376.831 122.259C377.239 124.068 378.526 127.383 382.573 127.28C386.63 127.177 387.69 124.09 388.027 121.974L376.831 122.259Z" fill="white"/>
<path d="M382.59 130.024C383.735 129.995 384.691 129.39 384.731 129.364C384.937 129.232 384.996 128.958 384.864 128.753C384.732 128.547 384.459 128.487 384.253 128.618C384.246 128.623 383.459 129.116 382.567 129.138C381.749 129.158 380.954 128.709 380.946 128.704C380.734 128.581 380.464 128.653 380.341 128.864C380.219 129.076 380.29 129.346 380.501 129.469C380.541 129.494 381.51 130.051 382.59 130.024Z" fill="#FD857D"/>
<path d="M399.163 104.291C399.083 107.913 398.853 112.446 398.255 116.082L396.274 115.992C396.274 115.992 396.675 112.925 396.845 110.929C397.015 108.933 397.297 105.203 395.587 104.783C393.882 104.366 394.768 100.097 392.363 98.3171C389.959 96.5327 384.68 95.0435 381.26 97.2726C377.838 99.4972 373.854 98.4171 372.263 98.8296C370.667 99.2375 368.547 101.505 369.188 103.555C369.832 105.601 368.096 106.902 367.721 109.048C367.347 111.195 368.865 116.91 368.865 116.91L366.986 117.339C366.019 112.699 365.77 107.992 365.746 104.624C365.726 101.186 367.52 97.9988 370.467 96.2281C378.448 91.4308 387.036 92.9246 392.717 94.9447C396.659 96.3442 399.256 100.115 399.163 104.291Z" fill="#1A1A1A"/>
<path d="M351.711 266.652L346.988 273.098C346.988 273.098 344.253 271.386 340.542 268.41C340.53 268.398 340.53 268.398 340.519 268.387C334.866 263.871 328.001 255.485 323.708 246.859C317.006 233.39 320.043 223.728 320.043 223.728C320.709 217.247 324.34 208.268 327.799 198.49C329.063 194.939 330.212 191.848 331.016 189.677L341.576 192.101L346.092 194.882L344.357 199.467C341.369 209.364 337.991 219.096 333.47 228.349C334.492 237.415 338.324 248.359 342.748 255.069C347.321 262.033 351.711 266.652 351.711 266.652Z" fill="#F3E0C8"/>
<path d="M351.711 266.652L346.988 273.098C346.988 273.098 344.254 271.386 340.542 268.41C340.531 268.398 340.531 268.398 340.519 268.387C339.703 263.515 340.198 256.632 342.748 255.069C347.322 262.033 351.711 266.652 351.711 266.652Z" fill="#FD857D"/>
<path d="M349.188 259.214C350.138 259.276 355.206 259.528 354.658 257.794C354.053 255.882 349.08 253.642 349.08 253.642C349.08 253.642 349.051 253.544 349.1 253.416L349.046 253.007L348.826 248.896C347.866 248.903 346.983 249.091 346.505 249.239C344.325 249.913 344.624 254.899 344.624 254.899C344.624 254.899 341.876 255.882 341.976 257.894C342.077 259.907 344.291 260.209 344.291 260.209C344.291 260.209 341.267 261.719 341.973 263.43C342.68 265.141 344.972 265.644 344.972 265.644C344.972 265.644 342.378 267.355 343.284 268.563C344.19 269.77 346.304 270.375 346.304 270.375C346.304 270.375 344.494 272.824 346.334 274.16C348.172 275.495 350.877 275.205 352.617 274.601C354.357 273.996 354.054 271.782 350.632 270.172C350.632 270.172 353.652 270.475 355.161 267.958C356.42 265.86 353.209 264.953 350.469 264.593C352.621 264.737 356.335 264.676 356.973 262.623C357.808 259.932 350.352 259.297 349.188 259.214Z" fill="#F3E0C8"/>
<path d="M346.092 194.882L344.357 199.467C340.852 199.685 334.578 199.788 327.799 198.49C329.063 194.939 330.212 191.848 331.016 189.677L341.576 192.101L346.092 194.882Z" fill="#FD857D"/>
<path d="M350.618 155.011C350.618 155.011 334.69 170.5 325.306 192.99C332.661 195.369 339.624 197.052 346.089 197.857C346.853 195.769 350.874 187.126 354.434 181.024L350.618 155.011Z" fill="#FF914C"/>
<path d="M221.801 33.2692L221.819 33.2198C222.085 32.6303 222.329 32.0328 222.547 31.4365C225.756 22.6784 226.072 4.70141 206.115 0.448764C206.115 0.448764 189.666 -3.39368 182.35 11.4084C182.35 11.4084 179.055 18.266 176.715 23.2471C176.715 23.2471 174.751 33.7139 164.875 34.6377C154.999 35.5616 149.491 39.3534 150.441 46.6683C151.39 53.9832 149.871 52.8192 143.034 59.0046C136.197 65.1899 131.427 76.7575 137.325 84.3711C143.223 91.9847 165.291 73.971 179.422 82.0201C193.553 90.0693 217.282 87.716 220.041 76.2622C222.8 64.8096 211.747 57.2615 212.336 51.4438C212.925 45.6273 220.01 38.8352 221.801 33.2692Z" fill="#1A1A1A"/>
<path d="M227.166 106.695L213.067 106.706L206.253 93.4574L205.483 91.9407L202.576 86.2988C202.576 86.2988 203.16 62.2836 209.319 59.0088L227.166 106.695Z" fill="#FF914C"/>
<path d="M206.251 93.457L205.481 91.9402C206.837 89.194 209.181 82.8742 207.32 74.7389C207.24 74.3597 207.469 73.992 207.837 73.9115C208.205 73.8311 208.584 74.0609 208.664 74.4286C210.871 84.0807 207.561 91.1703 206.251 93.457Z" fill="#FF914C"/>
<path d="M230.628 105.027C230.628 105.027 231.842 110.263 233.912 111.705C235.981 113.147 235.459 105.825 235.459 105.825C235.459 105.825 236.155 114.662 238.297 114.898C240.439 115.135 240.008 106.532 240.008 106.532C240.008 106.532 241.391 112.447 243.014 112.792C244.637 113.138 244.58 106.836 244.58 106.836C244.58 106.836 246.152 111.413 247.352 111.811C248.554 112.208 249.136 106.892 248.461 104.183C247.786 101.475 244.414 103.119 244.414 103.119C244.414 103.119 241.228 102.199 240.123 103.296C240.123 103.296 237.266 102.055 235.667 102.858C235.667 102.861 231.001 101.514 230.628 105.027Z" fill="#F3E0C8"/>
<path d="M206.893 70.4997C207.433 75.1304 208.904 79.8071 206.939 87.1725C206.319 89.5051 205.353 91.3666 203.538 94.5609V94.5724C203.526 94.5724 203.526 94.5724 203.526 94.5724C203.446 94.7563 203.342 94.9286 203.228 95.1125C203.193 95.4457 203.147 95.7674 203.113 96.0892C201.929 104.293 202.239 99.9385 202.377 106.706H159.908L160.218 89.8958L160.287 86.3107L160.896 53.3099L174.306 52.1264H174.317L176.627 51.9195L176.765 51.8966L180.373 51.5863C180.695 51.5518 181.005 51.5288 181.327 51.5059C186.187 51.2071 191.059 51.9655 195.621 53.7235L195.77 53.781L197.781 54.5509V54.5624L197.907 54.6083L199.872 55.3667L209.318 59.0092C208.835 61.1349 207.33 68.3625 206.893 70.4997Z" fill="#FF914C"/>
<path d="M165.575 77.6814L160.221 89.8958L160.29 86.3108L164.311 77.1298C164.461 76.7851 164.874 76.6242 165.219 76.7736C165.564 76.923 165.725 77.3367 165.575 77.6814Z" fill="#FF914C"/>
<path d="M174.316 52.1193C178.697 60.9464 189.421 70.8099 194.916 67.766C198.296 65.8976 199.677 59.7594 199.876 55.3608L197.906 54.6047L197.787 54.5599V54.5565L195.777 53.782L195.623 53.7223C191.067 51.9665 186.194 51.2104 181.331 51.5103C181.166 51.5333 180.998 51.5552 180.833 51.5781C180.68 51.5965 180.529 51.616 180.38 51.6344L176.767 51.9045L176.628 51.916L174.316 52.1193Z" fill="#F3E0C8"/>
<path d="M203.237 95.1181C203.197 95.4444 203.152 95.7684 203.118 96.0913C200.791 96.5877 193.488 97.6138 181.072 94.6412C179.462 94.2551 177.765 93.8024 175.983 93.2704C175.616 93.1635 175.411 92.7786 175.517 92.412C175.628 92.0512 176.014 91.841 176.375 91.9513C194.285 97.2714 203.428 94.601 203.52 94.5757C203.53 94.5734 203.536 94.57 203.545 94.5677C203.444 94.7458 203.344 94.9296 203.237 95.1181Z" fill="#FF914C"/>
<path d="M214.968 31.9727C214.968 31.9727 218.919 29.4976 219.925 33.07C220.93 36.6436 215.062 44.0401 210.843 40.2149L214.968 31.9727Z" fill="#FD857D"/>
<path d="M213.269 40.4217C213.091 40.9216 213.351 41.4708 213.85 41.6501C214.35 41.8282 214.9 41.5685 215.079 41.0687C215.257 40.5688 214.997 40.0184 214.497 39.8403C213.998 39.6622 213.447 39.9219 213.269 40.4217Z" fill="white"/>
<path d="M212.857 38.001C213.04 38.0665 213.249 38.0113 213.364 37.8539C215.06 35.5294 218.27 35.488 218.302 35.488C218.546 35.4868 218.737 35.2961 218.727 35.0617C218.719 34.8273 218.515 34.6377 218.271 34.6377C218.122 34.6377 214.587 34.6745 212.634 37.3518C212.496 37.5414 212.548 37.8068 212.749 37.9458C212.782 37.9688 212.819 37.9872 212.857 38.001Z" fill="#A97C50"/>
<path d="M212.857 38.001C213.04 38.0665 213.249 38.0113 213.364 37.8539C215.06 35.5294 218.27 35.488 218.302 35.488C218.546 35.4868 218.737 35.2961 218.727 35.0617C218.719 34.8273 218.515 34.6377 218.271 34.6377C218.122 34.6377 214.587 34.6745 212.634 37.3518C212.496 37.5414 212.548 37.8068 212.749 37.9458C212.782 37.9688 212.819 37.9872 212.857 38.001Z" fill="black" fill-opacity="0.2"/>
<path d="M216.182 37.7133C216.26 37.7409 216.345 37.7489 216.432 37.7305C216.668 37.6811 216.812 37.4547 216.753 37.2249C216.744 37.187 216.502 36.2804 215.612 35.4611C215.434 35.2957 215.154 35.2968 214.987 35.4646C214.821 35.6312 214.832 35.9001 215.01 36.0655C215.697 36.6998 215.893 37.3984 215.895 37.4053C215.933 37.5513 216.044 37.6639 216.182 37.7133Z" fill="#A97C50"/>
<path d="M216.182 37.7133C216.26 37.7409 216.345 37.7489 216.432 37.7305C216.668 37.6811 216.812 37.4547 216.753 37.2249C216.744 37.187 216.502 36.2804 215.612 35.4611C215.434 35.2957 215.154 35.2968 214.987 35.4646C214.821 35.6312 214.832 35.9001 215.01 36.0655C215.697 36.6998 215.893 37.3984 215.895 37.4053C215.933 37.5513 216.044 37.6639 216.182 37.7133Z" fill="black" fill-opacity="0.2"/>
<path d="M187.705 42.0918L184.017 52.4195C184.017 52.4195 187.494 57.8373 191.123 59.4977C194.748 61.1604 197.618 57.2076 197.618 57.2076L201.051 47.5958L187.705 42.0918Z" fill="#F3E0C8"/>
<path d="M187.344 43.1025L185.872 47.2219C187.389 50.9081 191.497 53.4888 198.448 54.8734L200.689 48.6054L187.344 43.1025Z" fill="#FD857D"/>
<path d="M215.201 36.483C214.725 37.4378 214.222 38.4019 213.682 39.3487C210.097 45.6398 203.258 51.377 197.46 50.6784C184.938 49.1697 183.379 38.3548 183.924 30.9824C183.986 30.1632 184.674 29.4473 184.827 28.5062C185.19 26.2782 185.193 23.5998 185.839 21.189C186.287 19.5183 186.765 17.8832 187.214 16.4113C188.483 12.2632 192.187 9.35724 196.405 9.21131C202.486 8.99528 211.169 10.2064 217.223 17.4339C219.459 20.1032 220.137 23.8089 219 27.1929C218.13 29.7771 216.866 33.1128 215.201 36.483Z" fill="#F3E0C8"/>
<path d="M199.21 36.6303C198.994 36.5533 198.86 36.3293 198.901 36.0972C198.948 35.8375 199.195 35.664 199.455 35.7111L201.092 36.0029L200.989 29.574C200.984 29.3109 201.195 29.0925 201.459 29.0879C201.722 29.0845 201.94 29.2936 201.944 29.5579L202.066 37.1463L199.286 36.6499C199.261 36.6464 199.234 36.6395 199.21 36.6303Z" fill="#FD857D"/>
<path d="M214.782 23.5767C218.572 27.2594 215.213 32.1234 215.778 35.3683C215.814 35.5786 215.907 35.6475 216.047 35.5958C217.759 32.1659 219.05 28.767 219.935 26.1322C221.092 22.6804 220.338 18.8828 217.96 16.1262C211.523 8.66427 202.39 7.32907 196.005 7.48305C191.577 7.58531 187.72 10.5177 186.432 14.7485C185.977 16.2492 185.493 17.9176 185.04 19.6217C185.632 20.3375 187.394 21.197 187.039 22.4322C186.102 25.699 185.477 27.9408 186.212 27.9891C187.452 28.0672 189.533 24.4477 189.14 21.4866C189.14 21.4866 190.776 20.1721 195.575 20.0525C201.73 19.8997 208.041 18.6737 208.041 18.6737C208.041 18.6737 210.536 18.1704 211.807 17.1029C211.81 17.1041 211.896 20.7719 214.782 23.5767Z" fill="#1A1A1A"/>
<path d="M207.45 31.3454C207.096 32.337 207.32 33.3229 207.95 33.5481C208.58 33.7733 209.378 33.1517 209.732 32.1612C210.086 31.1707 209.862 30.1848 209.232 29.9596C208.601 29.7332 207.804 30.3549 207.45 31.3454Z" fill="#1A1A1A"/>
<path d="M194.449 26.6943C194.095 27.686 194.319 28.6718 194.949 28.8971C195.579 29.1223 196.377 28.5006 196.731 27.5102C197.085 26.5185 196.861 25.5326 196.231 25.3086C195.602 25.0845 194.803 25.7027 194.449 26.6943Z" fill="#1A1A1A"/>
<path d="M213.054 27.3735C212.2 26.8668 210.451 25.9096 208.45 25.273C207.924 25.1053 207.368 25.3489 207.291 25.7878L207.289 25.7993C207.228 26.1498 207.502 26.4991 207.929 26.6163C209.312 26.9955 212.826 28.2755 214.291 29.3487C214.421 29.1281 214.353 28.819 214.2 28.5157C213.97 28.0561 213.552 27.6688 213.054 27.3735Z" fill="#1A1A1A"/>
<path d="M194.636 21.0371C195.619 21.1727 197.584 21.5128 199.546 22.262C200.062 22.4585 200.345 22.9951 200.132 23.3869L200.126 23.3961C199.955 23.7086 199.523 23.8098 199.116 23.6362C197.798 23.0721 194.252 21.8839 192.437 21.8115C192.472 21.5576 192.718 21.3588 193.027 21.2163C193.494 21.0003 194.061 20.9578 194.636 21.0371Z" fill="#1A1A1A"/>
<path d="M203.241 41.091C202.345 42.5491 200.2 45.0552 196.466 43.7212C192.724 42.3848 192.622 39.3571 192.913 37.4014L203.241 41.091Z" fill="white"/>
<path d="M195.551 46.4508C196.629 46.8358 197.787 46.5956 197.836 46.5853C198.089 46.5313 198.25 46.2819 198.196 46.0291C198.142 45.7763 197.894 45.6155 197.641 45.6683C197.632 45.6706 196.687 45.8625 195.866 45.5684C194.976 45.2512 194.348 44.4951 194.342 44.4871C194.178 44.2872 193.884 44.2573 193.683 44.4216C193.483 44.5848 193.453 44.8789 193.616 45.0789C193.648 45.1191 194.41 46.0429 195.551 46.4508Z" fill="#FD857D"/>
<path d="M187.081 21.9796C187.081 21.9796 185.289 17.0111 182.433 19.1116C179.578 21.212 179.297 30.3298 184.58 29.9678L187.081 21.9796Z" fill="#F3E0C8"/>
<path d="M181.642 29.1243C181.464 29.6242 181.724 30.1734 182.223 30.3527C182.723 30.5308 183.274 30.2711 183.452 29.7713C183.63 29.2714 183.37 28.721 182.87 28.5429C182.369 28.3637 181.82 28.6245 181.642 29.1243Z" fill="white"/>
<path d="M184.486 27.085C184.317 27.0253 184.202 26.8575 184.215 26.6702C184.408 23.8929 182.159 21.9361 182.136 21.9166C181.965 21.7695 181.944 21.511 182.09 21.3386C182.238 21.1662 182.496 21.1456 182.668 21.2915C182.774 21.3811 185.256 23.5287 185.034 26.7265C185.018 26.9529 184.823 27.1229 184.597 27.1068C184.557 27.1046 184.521 27.0965 184.486 27.085Z" fill="#FD857D"/>
<path d="M182.295 24.8708C182.224 24.8455 182.158 24.7996 182.107 24.7352C181.97 24.556 182.003 24.2986 182.182 24.1595C182.212 24.1366 182.927 23.5965 184.049 23.5092C184.275 23.4908 184.472 23.6608 184.489 23.8861C184.507 24.1113 184.338 24.3089 184.113 24.3273C183.245 24.3951 182.688 24.8065 182.682 24.811C182.568 24.8972 182.422 24.9156 182.295 24.8708Z" fill="#FD857D"/>
<path d="M200.991 27.4711C201.088 27.2034 201.121 26.9253 201.098 26.6564C201.041 25.9187 200.571 25.2465 199.834 24.965L193.332 22.4785C192.82 22.2831 192.28 22.3142 191.817 22.521C191.563 22.6347 191.336 22.8002 191.149 23.0128C190.991 23.1874 190.864 23.3908 190.775 23.6206L190.457 24.4514C189.918 25.8601 189.956 27.416 190.56 28.7259C191.165 30.0266 192.076 30.9321 193.273 31.4193L193.444 31.4848C194.836 32.0168 196.35 31.9777 197.717 31.3722C199.103 30.7586 200.164 29.6405 200.705 28.2237L200.974 27.5205C200.981 27.5056 200.988 27.4872 200.991 27.4711ZM199.94 27.9307C199.477 29.143 198.569 30.0967 197.387 30.6207C196.218 31.1377 194.925 31.1711 193.738 30.7172L193.582 30.6574C192.586 30.2507 191.821 29.4854 191.308 28.3812C190.795 27.2735 190.765 25.9463 191.224 24.7444L191.543 23.9136C191.771 23.315 192.44 23.0174 193.038 23.246L199.54 25.7326C200.135 25.9601 200.437 26.63 200.208 27.2275L199.94 27.9307Z" fill="white"/>
<path d="M214.879 32.2693C214.909 31.9901 214.873 31.7097 214.786 31.4477C214.601 30.9111 214.189 30.4549 213.619 30.2366L207.115 27.7489C206.361 27.4605 205.538 27.665 205.002 28.2074C204.821 28.3878 204.673 28.6061 204.575 28.8554C204.567 28.8669 204.564 28.8773 204.559 28.8899L204.241 29.7207C203.702 31.1294 203.742 32.6864 204.347 33.9963C204.949 35.2959 205.862 36.2025 207.057 36.6885L207.231 36.7552C208.622 37.2872 210.137 37.2481 211.503 36.6426C212.886 36.029 213.95 34.911 214.492 33.4942L214.76 32.7909C214.826 32.622 214.866 32.4462 214.879 32.2693ZM213.724 33.2035C213.261 34.4157 212.353 35.3694 211.169 35.8922C210.003 36.4105 208.71 36.4438 207.524 35.9899L207.365 35.929C206.369 35.5211 205.604 34.757 205.091 33.6527C204.58 32.545 204.548 31.2179 205.007 30.016L205.326 29.1852C205.554 28.5866 206.225 28.289 206.821 28.5176L213.325 31.0053C213.921 31.2328 214.222 31.9027 213.993 32.5002L213.724 33.2035Z" fill="white"/>
<path d="M191.815 22.521C191.285 21.943 189.838 20.6009 187.379 19.8701V20.7365C189.408 21.3984 190.651 22.5015 191.147 23.0128C191.311 23.1805 191.394 23.2863 191.398 23.2908L192.049 22.7922C192.034 22.7715 191.957 22.6715 191.815 22.521Z" fill="white"/>
<path d="M200.705 27.4503L200.73 26.6299C200.782 26.631 202 26.6724 203.182 27.1251C204.442 27.6066 205.105 28.3041 205.132 28.3328L204.534 28.8947C204.529 28.8901 203.961 28.3018 202.889 27.8915C201.84 27.4905 200.717 27.4503 200.705 27.4503Z" fill="white"/>
<path d="M217.434 31.6513C215.906 31.3433 214.521 31.4628 214.432 31.4709L214.506 32.2878C214.529 32.2867 215.951 32.166 217.434 32.4935V31.6513Z" fill="white"/>
<path d="M194.574 106.751C194.574 106.751 194.838 111.987 193.175 113.43C191.513 114.872 189.97 107.551 189.97 107.551C189.97 107.551 191.768 116.387 189.693 116.624C187.617 116.86 185.619 108.257 185.619 108.257C185.619 108.257 185.907 114.173 184.381 114.517C182.855 114.863 181.132 108.562 181.132 108.562C181.132 108.562 180.853 113.139 179.764 113.536C178.674 113.934 176.591 108.617 176.502 105.91C176.412 103.202 180.247 104.846 180.247 104.846C180.247 104.846 183.174 103.927 184.589 105.023C184.589 105.023 187.095 103.782 188.922 104.585C188.924 104.585 193.209 103.238 194.574 106.751Z" fill="#F3E0C8"/>
<path d="M171.189 106.695L141.027 106.706C141.004 106.695 140.935 106.442 140.935 106.43C140.406 98.4214 145.473 84.9315 149.013 73.1423C151.357 65.3402 154.436 55.9524 160.905 53.3096C162.043 54.654 164.146 60.1924 164.295 63.0191C164.64 69.8445 163.778 77.0605 162.514 80.8524C160.687 86.2989 158.4 92.929 156.734 98.3755C156.734 98.3755 156.734 98.387 156.723 98.4214C156.688 98.5708 156.573 99.1109 156.573 99.1224C156.619 99.1339 156.918 99.2947 157.447 99.5935C159.412 100.685 164.548 103.569 171.189 106.695Z" fill="#FF914C"/>
<path d="M157.44 99.5939C154.28 101.065 149.81 104.167 149.764 104.202C149.638 104.294 149.5 104.328 149.374 104.328C149.155 104.328 148.937 104.225 148.799 104.029C148.581 103.719 148.661 103.294 148.971 103.076C149.167 102.938 153.476 99.9501 156.716 98.4219C156.682 98.5713 156.567 99.1113 156.567 99.1228C156.613 99.1343 156.911 99.2952 157.44 99.5939Z" fill="#FF914C"/>
<path d="M180.378 51.582C180.378 51.582 182.675 62.0373 190.902 62.6118C199.129 63.1863 199.875 54.8752 199.875 54.8752" stroke="white" stroke-width="1.2" stroke-miterlimit="10" stroke-linecap="round"/>
<path d="M470.75 394.131C470.75 394.131 469.813 395.048 467.891 395.189C467.311 395.236 466.645 395.21 465.876 395.055C465.06 394.907 464.136 394.616 463.111 394.131C463.111 394.131 463.556 375.239 455.917 362.226C448.278 349.213 438.164 331.239 446.255 322.021C454.345 312.804 467.379 325.615 471.646 347.19C475.922 368.767 470.75 394.131 470.75 394.131Z" fill="#FF914C"/>
<path d="M467.892 395.189C467.311 395.237 466.645 395.21 465.876 395.055C468.331 361.519 453.106 335.614 452.952 335.351C452.662 334.872 452.817 334.253 453.295 333.962C453.774 333.678 454.395 333.833 454.684 334.313C454.845 334.576 470.393 360.992 467.892 395.189Z" fill="#1A1A1A"/>
<path d="M496.944 363.642C479.071 392.54 480.305 399.222 480.305 399.222L477.958 398.803L475.962 398.453L473.116 397.947C471.532 385.13 481.376 330.955 498.926 330.955C516.794 330.955 503.033 353.805 496.944 363.642Z" fill="#FF914C"/>
<path d="M496.27 347.016C496.101 347.299 481.134 373.999 477.958 398.803L475.962 398.453C479.225 373.25 494.342 346.308 494.503 346.018C494.779 345.533 495.4 345.364 495.885 345.64C496.371 345.917 496.54 346.531 496.27 347.016Z" fill="#1A1A1A"/>
<path d="M462.945 396.694L460.889 397.246L458.92 397.779L457.74 398.097C457.814 397.84 456.918 395.628 444.343 378.827C439.152 371.882 425.302 353.206 438 350.071C449.643 347.198 463.282 387.017 462.945 396.694Z" fill="#FF914C"/>
<path d="M460.891 397.246L458.922 397.779C455.295 381.59 440.577 361.721 440.415 361.505C440.084 361.06 440.178 360.426 440.624 360.089C441.07 359.758 441.703 359.847 442.039 360.298C442.687 361.174 457.156 380.687 460.891 397.246Z" fill="#1A1A1A"/>
<path d="M487.848 439.443C487.848 442.678 447.871 442.678 447.871 439.443V391.909C447.871 391.417 448.27 391.019 448.762 391.019H486.956C487.448 391.019 487.847 391.417 487.847 391.909L487.848 439.443Z" fill="#1A1A1A"/>
<path d="M73.0255 440.629H44.2923C40.3843 440.629 36.9211 437.639 35.7134 433.224L23.5277 388.662C23.029 386.839 24.0988 384.944 25.7075 384.796C47.8934 382.753 69.8633 382.75 91.6138 384.79C93.2201 384.94 94.2876 386.834 93.7901 388.655L81.6032 433.222C80.3967 437.639 76.9335 440.629 73.0255 440.629Z" fill="#1A1A1A"/>
<path d="M91.2383 388.032C91.2383 389.218 76.7395 390.179 58.8545 390.179C40.9695 390.179 26.4707 389.218 26.4707 388.032C26.4707 386.846 40.9695 385.886 58.8545 385.886C76.7395 385.886 91.2383 386.848 91.2383 388.032Z" fill="#1A1A1A"/>
<path d="M95.5296 327.808C83.8759 324.737 66.0701 348.926 60.6627 372.509V338.149C63.3813 333.329 68.5636 326.076 77.9732 318.413C92.6064 306.495 106.077 291.201 94.4024 288.126C83.4622 285.244 67.0997 306.388 60.6627 328.5V284.376C62.5483 281.449 65.6369 277.609 70.5744 273.587C79.7967 266.076 88.2859 256.437 80.9285 254.499C74.5433 252.817 65.2279 264.12 60.6627 276.868V262.566C61.4176 258.143 62.4839 251.824 65.4106 245.364C72.1934 230.396 75.8578 214.975 66.9147 216.123C57.9635 217.271 52.1597 243.929 57.0546 264.393V271.753C53.7477 256.776 42.4042 241.266 34.9997 243.216C27.6423 245.155 36.1315 254.793 45.3538 262.305C52.3734 268.022 55.6585 273.373 57.0546 276.252V311.012C51.7518 287.31 33.8196 262.847 22.1039 265.933C10.4295 269.008 23.8998 284.303 38.533 296.22C49.5904 305.226 54.8128 313.665 57.0546 318.255V359.938C51.3864 336.67 33.9127 313.188 22.421 316.216C10.7466 319.291 20.7583 330.469 37.2036 343.987C48.3793 353.175 54.3659 362.871 57.0546 368.142V387.775C58.3588 388.141 59.5803 388.139 60.6627 387.775V379.963C62.9504 375.336 68.1775 366.994 79.1015 358.098C93.7336 346.177 107.204 330.882 95.5296 327.808Z" fill="#FF914C"/>
</svg>
