<svg width="42" height="42" viewBox="0 0 42 42" fill="none" xmlns="http://www.w3.org/2000/svg">
<g clip-path="url(#clip0_4334_23303)">
<path fill-rule="evenodd" clip-rule="evenodd" d="M20.9998 3.5C18.6792 3.5 16.4536 4.42187 14.8127 6.06282C13.1717 7.70376 12.2498 9.92936 12.2498 12.25C12.2498 14.5706 13.1717 16.7962 14.8127 18.4372C16.4536 20.0781 18.6792 21 20.9998 21C23.3205 21 25.5461 20.0781 27.187 18.4372C28.828 16.7962 29.7498 14.5706 29.7498 12.25C29.7498 9.92936 28.828 7.70376 27.187 6.06282C25.5461 4.42187 23.3205 3.5 20.9998 3.5ZM15.7498 22.75C12.8396 22.75 10.0413 24.0765 8.4016 26.075C7.5686 27.09 6.9841 28.3448 6.93335 29.736C6.88085 31.157 7.3936 32.543 8.4506 33.7523C11.0283 36.701 15.1426 38.5 20.9998 38.5C26.8588 38.5 30.9731 36.701 33.5491 33.7523C34.6078 32.543 35.1188 31.157 35.0681 29.736C35.0156 28.3448 34.4311 27.09 33.5981 26.075C31.9601 24.08 29.1618 22.75 26.2498 22.75H15.7498Z" fill="url(#paint0_linear_4334_23303)"/>
</g>
<defs>
<linearGradient id="paint0_linear_4334_23303" x1="20.9998" y1="3.5" x2="20.9998" y2="38.5" gradientUnits="userSpaceOnUse">
<stop stop-color="#F12811"/>
<stop offset="1" stop-color="#F5B93D"/>
</linearGradient>
<clipPath id="clip0_4334_23303">
<rect width="42" height="42" fill="white"/>
</clipPath>
</defs>
</svg>
